M48
INCH,TZ
T1C0.0118
T2C0.0197
T3C0.0236
T4C0.0315
T5C0.0394
T6C0.0669
T7C0.1024
%
G90
G05
T1
X-7189Y4362
X-6334Y-4805
X-6189Y4362
X-5897Y1242
X-5897Y-3530
X-5724Y-8484
X-5189Y4362
X-4287Y-3811
X-4189Y4362
X-4037Y-4047
X-3240Y-3274
X-1047Y2959
X1284Y-252
X1299Y665
X1571Y-1370
X1807Y-1961
X3197Y-5657
X3296Y-5894
X4146Y2083
X4161Y2439
T2
X-5020Y-5808
X4154Y-8144
T3
X2323Y4335
X2878Y-1524
X6559Y6156
T4
X-7209Y333
X-6880Y3809
X-6764Y-3289
X-6224Y-7640
X-6039Y-5673
X-4598Y-760
X-2382Y-9011
X-2217Y6262
X-737Y-3311
X171Y5453
X2263Y5289
X3016Y3689
X5504Y-7943
X6800Y3300
T5
X-1500Y6555
X-500Y6555
X500Y6555
X1500Y6555
X7563Y6791
X7563Y5791
X7563Y4791
X7563Y3791
X7563Y2791
X7563Y1791
T6
X-5823Y9465
X-5823Y7465
X-3823Y9465
X-3823Y7465
X3823Y9465
X3823Y7465
X5823Y9465
X5823Y7465
T7
X-4823Y8465
X4823Y8465
T0
M30
