<?xml version="1.0" standalone="no"?>
 <!DOCTYPE svg PUBLIC "-//W3C//DTD SVG 1.1//EN" 
 "http://www.w3.org/Graphics/SVG/1.1/DTD/svg11.dtd"> 
<svg
  xmlns:svg="http://www.w3.org/2000/svg"
  xmlns="http://www.w3.org/2000/svg"
  xmlns:xlink="http://www.w3.org/1999/xlink"
  version="1.1"
  width="297.002200mm" height="210.007200mm" viewBox="0.000000 0.000000 297.002200 210.007200">
<title>SVG Image created as v0.0-CutieCat-B_Paste.svg date 2024/07/22 22:09:46 </title>
  <desc>Image generated by PCBNEW </desc>
<g style="fill:#000000; fill-opacity:1.000000;stroke:#000000; stroke-opacity:1.000000;
stroke-linecap:round; stroke-linejoin:round;"
 transform="translate(0 0) scale(1 1)">
</g>
<g style="fill:#000000; fill-opacity:0.0; 
stroke:#000000; stroke-width:0.000000; stroke-opacity:1; 
stroke-linecap:round; stroke-linejoin:round;">
<g >
</g>
<g >
</g>
<g >
</g>
<g >
</g>
<g >
</g>
<g >
</g>
<g >
</g>
<g >
</g>
<g >
</g>
<g >
</g>
<g >
</g>
<g >
</g>
<g >
</g>
<g >
</g>
<g >
</g>
<g >
</g>
<g >
</g>
<g >
</g>
<g >
</g>
<g >
</g>
<g >
</g>
<g >
</g>
<g >
</g>
<g >
</g>
<g >
</g>
<g >
</g>
<g >
</g>
<g >
</g>
<g >
</g>
<g >
</g>
<g >
</g>
<g >
</g>
<g >
</g>
<g >
</g>
<g >
</g>
<g >
</g>
<g >
</g>
<g >
</g>
<g style="fill:#000000; fill-opacity:0.0; 
stroke:#000000; stroke-width:0.000000; stroke-opacity:1; 
stroke-linecap:round; stroke-linejoin:round;">
</g>
<g style="fill:#000000; fill-opacity:0.0; 
stroke:#000000; stroke-width:0.000000; stroke-opacity:1; 
stroke-linecap:round; stroke-linejoin:round;">
</g>
<g style="fill:#000000; fill-opacity:1.000000; 
stroke:#000000; stroke-width:0.000000; stroke-opacity:1; 
stroke-linecap:round; stroke-linejoin:round;">
<path style="fill:#000000; fill-opacity:1.000000; 
stroke:#000000; stroke-width:0.000000; stroke-opacity:1; 
stroke-linecap:round; stroke-linejoin:round;fill-rule:evenodd;"
d="M -16.455000,18.870000
-16.512403,18.858582
-16.561066,18.826066
-16.593582,18.777403
-16.605000,18.720000
-16.605000,18.420000
-16.593582,18.362597
-16.561066,18.313934
-16.512403,18.281418
-16.455000,18.270000
-15.205000,18.270000
-15.147597,18.281418
-15.098934,18.313934
-15.066418,18.362597
-15.055000,18.420000
-15.055000,18.720000
-15.066418,18.777403
-15.098934,18.826066
-15.147597,18.858582
-15.205000,18.870000
Z" /> 
<path style="fill:#000000; fill-opacity:1.000000; 
stroke:#000000; stroke-width:0.000000; stroke-opacity:1; 
stroke-linecap:round; stroke-linejoin:round;fill-rule:evenodd;"
d="M -16.455000,17.870000
-16.512403,17.858582
-16.561066,17.826066
-16.593582,17.777403
-16.605000,17.720000
-16.605000,17.420000
-16.593582,17.362597
-16.561066,17.313934
-16.512403,17.281418
-16.455000,17.270000
-15.205000,17.270000
-15.147597,17.281418
-15.098934,17.313934
-15.066418,17.362597
-15.055000,17.420000
-15.055000,17.720000
-15.066418,17.777403
-15.098934,17.826066
-15.147597,17.858582
-15.205000,17.870000
Z" /> 
<path style="fill:#000000; fill-opacity:1.000000; 
stroke:#000000; stroke-width:0.000000; stroke-opacity:1; 
stroke-linecap:round; stroke-linejoin:round;fill-rule:evenodd;"
d="M -16.455000,16.870000
-16.512403,16.858582
-16.561066,16.826066
-16.593582,16.777403
-16.605000,16.720000
-16.605000,16.420000
-16.593582,16.362597
-16.561066,16.313934
-16.512403,16.281418
-16.455000,16.270000
-15.205000,16.270000
-15.147597,16.281418
-15.098934,16.313934
-15.066418,16.362597
-15.055000,16.420000
-15.055000,16.720000
-15.066418,16.777403
-15.098934,16.826066
-15.147597,16.858582
-15.205000,16.870000
Z" /> 
<path style="fill:#000000; fill-opacity:1.000000; 
stroke:#000000; stroke-width:0.000000; stroke-opacity:1; 
stroke-linecap:round; stroke-linejoin:round;fill-rule:evenodd;"
d="M -16.455000,15.870000
-16.512403,15.858582
-16.561066,15.826066
-16.593582,15.777403
-16.605000,15.720000
-16.605000,15.420000
-16.593582,15.362597
-16.561066,15.313934
-16.512403,15.281418
-16.455000,15.270000
-15.205000,15.270000
-15.147597,15.281418
-15.098934,15.313934
-15.066418,15.362597
-15.055000,15.420000
-15.055000,15.720000
-15.066418,15.777403
-15.098934,15.826066
-15.147597,15.858582
-15.205000,15.870000
Z" /> 
<path style="fill:#000000; fill-opacity:1.000000; 
stroke:#000000; stroke-width:0.000000; stroke-opacity:1; 
stroke-linecap:round; stroke-linejoin:round;fill-rule:evenodd;"
d="M -20.355000,20.470000
-20.450671,20.450970
-20.531777,20.396777
-20.585970,20.315671
-20.605000,20.220000
-20.605000,19.520000
-20.585970,19.424329
-20.531777,19.343223
-20.450671,19.289030
-20.355000,19.270000
-19.055000,19.270000
-18.959329,19.289030
-18.878223,19.343223
-18.824030,19.424329
-18.805000,19.520000
-18.805000,20.220000
-18.824030,20.315671
-18.878223,20.396777
-18.959329,20.450970
-19.055000,20.470000
Z" /> 
<path style="fill:#000000; fill-opacity:1.000000; 
stroke:#000000; stroke-width:0.000000; stroke-opacity:1; 
stroke-linecap:round; stroke-linejoin:round;fill-rule:evenodd;"
d="M -20.355000,14.870000
-20.450671,14.850970
-20.531777,14.796777
-20.585970,14.715671
-20.605000,14.620000
-20.605000,13.920000
-20.585970,13.824329
-20.531777,13.743223
-20.450671,13.689030
-20.355000,13.670000
-19.055000,13.670000
-18.959329,13.689030
-18.878223,13.743223
-18.824030,13.824329
-18.805000,13.920000
-18.805000,14.620000
-18.824030,14.715671
-18.878223,14.796777
-18.959329,14.850970
-19.055000,14.870000
Z" /> 
</g>
<g >
</g>
<g >
</g>
<g style="fill:#000000; fill-opacity:1.000000; 
stroke:#000000; stroke-width:0.000000; stroke-opacity:1; 
stroke-linecap:round; stroke-linejoin:round;">
<path style="fill:#000000; fill-opacity:1.000000; 
stroke:#000000; stroke-width:0.000000; stroke-opacity:1; 
stroke-linecap:round; stroke-linejoin:round;fill-rule:evenodd;"
d="M 13.478700,21.161320
13.506851,21.212633
13.513222,21.270812
13.496845,21.327001
13.460211,21.372645
13.230398,21.565482
13.179085,21.593633
13.120906,21.600004
13.064718,21.583627
13.019073,21.546993
12.215588,20.589438
12.187437,20.538125
12.181066,20.479946
12.197443,20.423757
12.234077,20.378113
12.463890,20.185276
12.515203,20.157125
12.573382,20.150754
12.629570,20.167131
12.675215,20.203765
Z" /> 
<path style="fill:#000000; fill-opacity:1.000000; 
stroke:#000000; stroke-width:0.000000; stroke-opacity:1; 
stroke-linecap:round; stroke-linejoin:round;fill-rule:evenodd;"
d="M 12.712656,21.804107
12.740807,21.855420
12.747178,21.913599
12.730801,21.969788
12.694167,22.015432
12.464354,22.208269
12.413041,22.236420
12.354862,22.242791
12.298674,22.226414
12.253029,22.189780
11.449544,21.232225
11.421393,21.180912
11.415022,21.122733
11.431399,21.066544
11.468033,21.020900
11.697846,20.828063
11.749159,20.799912
11.807338,20.793541
11.863526,20.809918
11.909171,20.846552
Z" /> 
<path style="fill:#000000; fill-opacity:1.000000; 
stroke:#000000; stroke-width:0.000000; stroke-opacity:1; 
stroke-linecap:round; stroke-linejoin:round;fill-rule:evenodd;"
d="M 11.946611,22.446895
11.974762,22.498208
11.981133,22.556387
11.964756,22.612576
11.928122,22.658220
11.698309,22.851057
11.646996,22.879208
11.588817,22.885579
11.532629,22.869202
11.486984,22.832568
10.683499,21.875013
10.655348,21.823700
10.648977,21.765521
10.665354,21.709332
10.701988,21.663688
10.931801,21.470851
10.983114,21.442700
11.041293,21.436329
11.097481,21.452706
11.143126,21.489340
Z" /> 
<path style="fill:#000000; fill-opacity:1.000000; 
stroke:#000000; stroke-width:0.000000; stroke-opacity:1; 
stroke-linecap:round; stroke-linejoin:round;fill-rule:evenodd;"
d="M 17.211243,23.120433
17.258161,23.205954
17.268781,23.302919
17.241484,23.396567
17.180428,23.472641
16.644197,23.922593
16.558677,23.969511
16.461711,23.980131
16.368063,23.952834
16.291989,23.891778
15.456365,22.895921
15.409447,22.810400
15.398827,22.713435
15.426124,22.619787
15.487180,22.543713
16.023411,22.093761
16.108931,22.046843
16.205897,22.036223
16.299545,22.063520
16.375619,22.124576
Z" /> 
<path style="fill:#000000; fill-opacity:1.000000; 
stroke:#000000; stroke-width:0.000000; stroke-opacity:1; 
stroke-linecap:round; stroke-linejoin:round;fill-rule:evenodd;"
d="M 13.687439,26.077256
13.734357,26.162777
13.744977,26.259742
13.717680,26.353390
13.656624,26.429464
13.120393,26.879416
13.034873,26.926334
12.937907,26.936954
12.844259,26.909657
12.768185,26.848601
11.932561,25.852744
11.885643,25.767223
11.875023,25.670258
11.902320,25.576610
11.963376,25.500536
12.499607,25.050584
12.585127,25.003666
12.682093,24.993046
12.775741,25.020343
12.851815,25.081399
Z" /> 
</g>
<g >
</g>
<g >
</g>
<g style="fill:#000000; fill-opacity:1.000000; 
stroke:#000000; stroke-width:0.000000; stroke-opacity:1; 
stroke-linecap:round; stroke-linejoin:round;">
<path style="fill:#000000; fill-opacity:1.000000; 
stroke:#000000; stroke-width:0.000000; stroke-opacity:1; 
stroke-linecap:round; stroke-linejoin:round;fill-rule:evenodd;"
d="M 16.455000,15.270000
16.512403,15.281418
16.561066,15.313934
16.593582,15.362597
16.605000,15.420000
16.605000,15.720000
16.593582,15.777403
16.561066,15.826066
16.512403,15.858582
16.455000,15.870000
15.205000,15.870000
15.147597,15.858582
15.098934,15.826066
15.066418,15.777403
15.055000,15.720000
15.055000,15.420000
15.066418,15.362597
15.098934,15.313934
15.147597,15.281418
15.205000,15.270000
Z" /> 
<path style="fill:#000000; fill-opacity:1.000000; 
stroke:#000000; stroke-width:0.000000; stroke-opacity:1; 
stroke-linecap:round; stroke-linejoin:round;fill-rule:evenodd;"
d="M 16.455000,16.270000
16.512403,16.281418
16.561066,16.313934
16.593582,16.362597
16.605000,16.420000
16.605000,16.720000
16.593582,16.777403
16.561066,16.826066
16.512403,16.858582
16.455000,16.870000
15.205000,16.870000
15.147597,16.858582
15.098934,16.826066
15.066418,16.777403
15.055000,16.720000
15.055000,16.420000
15.066418,16.362597
15.098934,16.313934
15.147597,16.281418
15.205000,16.270000
Z" /> 
<path style="fill:#000000; fill-opacity:1.000000; 
stroke:#000000; stroke-width:0.000000; stroke-opacity:1; 
stroke-linecap:round; stroke-linejoin:round;fill-rule:evenodd;"
d="M 16.455000,17.270000
16.512403,17.281418
16.561066,17.313934
16.593582,17.362597
16.605000,17.420000
16.605000,17.720000
16.593582,17.777403
16.561066,17.826066
16.512403,17.858582
16.455000,17.870000
15.205000,17.870000
15.147597,17.858582
15.098934,17.826066
15.066418,17.777403
15.055000,17.720000
15.055000,17.420000
15.066418,17.362597
15.098934,17.313934
15.147597,17.281418
15.205000,17.270000
Z" /> 
<path style="fill:#000000; fill-opacity:1.000000; 
stroke:#000000; stroke-width:0.000000; stroke-opacity:1; 
stroke-linecap:round; stroke-linejoin:round;fill-rule:evenodd;"
d="M 16.455000,18.270000
16.512403,18.281418
16.561066,18.313934
16.593582,18.362597
16.605000,18.420000
16.605000,18.720000
16.593582,18.777403
16.561066,18.826066
16.512403,18.858582
16.455000,18.870000
15.205000,18.870000
15.147597,18.858582
15.098934,18.826066
15.066418,18.777403
15.055000,18.720000
15.055000,18.420000
15.066418,18.362597
15.098934,18.313934
15.147597,18.281418
15.205000,18.270000
Z" /> 
<path style="fill:#000000; fill-opacity:1.000000; 
stroke:#000000; stroke-width:0.000000; stroke-opacity:1; 
stroke-linecap:round; stroke-linejoin:round;fill-rule:evenodd;"
d="M 20.355000,13.670000
20.450671,13.689030
20.531777,13.743223
20.585970,13.824329
20.605000,13.920000
20.605000,14.620000
20.585970,14.715671
20.531777,14.796777
20.450671,14.850970
20.355000,14.870000
19.055000,14.870000
18.959329,14.850970
18.878223,14.796777
18.824030,14.715671
18.805000,14.620000
18.805000,13.920000
18.824030,13.824329
18.878223,13.743223
18.959329,13.689030
19.055000,13.670000
Z" /> 
<path style="fill:#000000; fill-opacity:1.000000; 
stroke:#000000; stroke-width:0.000000; stroke-opacity:1; 
stroke-linecap:round; stroke-linejoin:round;fill-rule:evenodd;"
d="M 20.355000,19.270000
20.450671,19.289030
20.531777,19.343223
20.585970,19.424329
20.605000,19.520000
20.605000,20.220000
20.585970,20.315671
20.531777,20.396777
20.450671,20.450970
20.355000,20.470000
19.055000,20.470000
18.959329,20.450970
18.878223,20.396777
18.824030,20.315671
18.805000,20.220000
18.805000,19.520000
18.824030,19.424329
18.878223,19.343223
18.959329,19.289030
19.055000,19.270000
Z" /> 
</g>
<g >
</g>
<g style="fill:#000000; fill-opacity:1.000000; 
stroke:#000000; stroke-width:0.000000; stroke-opacity:1; 
stroke-linecap:round; stroke-linejoin:round;">
</g>
<g style="fill:#000000; fill-opacity:1.000000; 
stroke:#000000; stroke-width:2.000000; stroke-opacity:1; 
stroke-linecap:round; stroke-linejoin:round;">
</g>
<g style="fill:#000000; fill-opacity:0.0; 
stroke:#000000; stroke-width:2.000000; stroke-opacity:1; 
stroke-linecap:round; stroke-linejoin:round;">
<path d="M-17.820000 -13.570000
L-17.820000 -12.070000
" />
<path d="M-15.280000 -13.570000
L-15.280000 -12.070000
" />
<path d="M-12.740000 -13.570000
L-12.740000 -12.070000
" />
<path d="M-10.200000 -13.570000
L-10.200000 -12.070000
" />
<path d="M-7.660000 -13.570000
L-7.660000 -12.070000
" />
<path d="M-5.120000 -13.570000
L-5.120000 -12.070000
" />
<path d="M-2.580000 -13.570000
L-2.580000 -12.070000
" />
<path d="M-2.580000 4.210000
L-2.580000 5.710000
" />
<path d="M-5.120000 4.210000
L-5.120000 5.710000
" />
<path d="M-7.660000 4.210000
L-7.660000 5.710000
" />
<path d="M-10.200000 4.210000
L-10.200000 5.710000
" />
<path d="M-12.740000 4.210000
L-12.740000 5.710000
" />
<path d="M-15.280000 4.210000
L-15.280000 5.710000
" />
<path d="M-17.820000 4.210000
L-17.820000 5.710000
" />
</g>
<g >
</g>
<g style="fill:#000000; fill-opacity:0.0; 
stroke:#000000; stroke-width:2.000000; stroke-opacity:1; 
stroke-linecap:round; stroke-linejoin:round;">
</g>
<g style="fill:#000000; fill-opacity:1.000000; 
stroke:#000000; stroke-width:0.000000; stroke-opacity:1; 
stroke-linecap:round; stroke-linejoin:round;">
<circle cx="16.670000" cy="-12.190000" r="0.850000" /> 
<circle cx="16.670000" cy="-14.710000" r="0.850000" /> 
</g>
<g >
</g>
<g >
</g>
<g >
</g>
<g >
</g>
<g >
</g>
<g >
</g>
<g style="fill:#000000; fill-opacity:1.000000; 
stroke:#000000; stroke-width:0.000000; stroke-opacity:1; 
stroke-linecap:round; stroke-linejoin:round;">
<path style="fill:#000000; fill-opacity:1.000000; 
stroke:#000000; stroke-width:0.000000; stroke-opacity:1; 
stroke-linecap:round; stroke-linejoin:round;fill-rule:evenodd;"
d="M 3.860000,8.290000
3.966283,8.301427
4.099624,8.351161
4.213553,8.436447
4.298839,8.550376
4.348573,8.683717
4.360000,8.790000
4.360000,9.790000
4.348573,9.896283
4.298839,10.029624
4.213553,10.143553
4.099624,10.228839
3.966283,10.278573
3.860000,10.290000
1.360000,10.290000
1.253717,10.278573
1.120376,10.228839
1.006447,10.143553
0.921161,10.029624
0.871427,9.896283
0.860000,9.790000
0.860000,8.790000
0.871427,8.683717
0.921161,8.550376
1.006447,8.436447
1.120376,8.351161
1.253717,8.301427
1.360000,8.290000
Z" /> 
<path style="fill:#000000; fill-opacity:1.000000; 
stroke:#000000; stroke-width:0.000000; stroke-opacity:1; 
stroke-linecap:round; stroke-linejoin:round;fill-rule:evenodd;"
d="M 3.860000,10.830000
3.966283,10.841427
4.099624,10.891161
4.213553,10.976447
4.298839,11.090376
4.348573,11.223717
4.360000,11.330000
4.360000,12.330000
4.348573,12.436283
4.298839,12.569624
4.213553,12.683553
4.099624,12.768839
3.966283,12.818573
3.860000,12.830000
1.360000,12.830000
1.253717,12.818573
1.120376,12.768839
1.006447,12.683553
0.921161,12.569624
0.871427,12.436283
0.860000,12.330000
0.860000,11.330000
0.871427,11.223717
0.921161,11.090376
1.006447,10.976447
1.120376,10.891161
1.253717,10.841427
1.360000,10.830000
Z" /> 
<path style="fill:#000000; fill-opacity:1.000000; 
stroke:#000000; stroke-width:0.000000; stroke-opacity:1; 
stroke-linecap:round; stroke-linejoin:round;fill-rule:evenodd;"
d="M 3.860000,13.370000
3.966283,13.381427
4.099624,13.431161
4.213553,13.516447
4.298839,13.630376
4.348573,13.763717
4.360000,13.870000
4.360000,14.870000
4.348573,14.976283
4.298839,15.109624
4.213553,15.223553
4.099624,15.308839
3.966283,15.358573
3.860000,15.370000
1.360000,15.370000
1.253717,15.358573
1.120376,15.308839
1.006447,15.223553
0.921161,15.109624
0.871427,14.976283
0.860000,14.870000
0.860000,13.870000
0.871427,13.763717
0.921161,13.630376
1.006447,13.516447
1.120376,13.431161
1.253717,13.381427
1.360000,13.370000
Z" /> 
<path style="fill:#000000; fill-opacity:1.000000; 
stroke:#000000; stroke-width:0.000000; stroke-opacity:1; 
stroke-linecap:round; stroke-linejoin:round;fill-rule:evenodd;"
d="M 3.860000,15.910000
3.966283,15.921427
4.099624,15.971161
4.213553,16.056447
4.298839,16.170376
4.348573,16.303717
4.360000,16.410000
4.360000,17.410000
4.348573,17.516283
4.298839,17.649624
4.213553,17.763553
4.099624,17.848839
3.966283,17.898573
3.860000,17.910000
1.360000,17.910000
1.253717,17.898573
1.120376,17.848839
1.006447,17.763553
0.921161,17.649624
0.871427,17.516283
0.860000,17.410000
0.860000,16.410000
0.871427,16.303717
0.921161,16.170376
1.006447,16.056447
1.120376,15.971161
1.253717,15.921427
1.360000,15.910000
Z" /> 
<path style="fill:#000000; fill-opacity:1.000000; 
stroke:#000000; stroke-width:0.000000; stroke-opacity:1; 
stroke-linecap:round; stroke-linejoin:round;fill-rule:evenodd;"
d="M -11.380000,15.910000
-11.273717,15.921427
-11.140376,15.971161
-11.026447,16.056447
-10.941161,16.170376
-10.891427,16.303717
-10.880000,16.410000
-10.880000,17.410000
-10.891427,17.516283
-10.941161,17.649624
-11.026447,17.763553
-11.140376,17.848839
-11.273717,17.898573
-11.380000,17.910000
-13.880000,17.910000
-13.986283,17.898573
-14.119624,17.848839
-14.233553,17.763553
-14.318839,17.649624
-14.368573,17.516283
-14.380000,17.410000
-14.380000,16.410000
-14.368573,16.303717
-14.318839,16.170376
-14.233553,16.056447
-14.119624,15.971161
-13.986283,15.921427
-13.880000,15.910000
Z" /> 
<path style="fill:#000000; fill-opacity:1.000000; 
stroke:#000000; stroke-width:0.000000; stroke-opacity:1; 
stroke-linecap:round; stroke-linejoin:round;fill-rule:evenodd;"
d="M -11.380000,13.370000
-11.273717,13.381427
-11.140376,13.431161
-11.026447,13.516447
-10.941161,13.630376
-10.891427,13.763717
-10.880000,13.870000
-10.880000,14.870000
-10.891427,14.976283
-10.941161,15.109624
-11.026447,15.223553
-11.140376,15.308839
-11.273717,15.358573
-11.380000,15.370000
-13.880000,15.370000
-13.986283,15.358573
-14.119624,15.308839
-14.233553,15.223553
-14.318839,15.109624
-14.368573,14.976283
-14.380000,14.870000
-14.380000,13.870000
-14.368573,13.763717
-14.318839,13.630376
-14.233553,13.516447
-14.119624,13.431161
-13.986283,13.381427
-13.880000,13.370000
Z" /> 
<path style="fill:#000000; fill-opacity:1.000000; 
stroke:#000000; stroke-width:0.000000; stroke-opacity:1; 
stroke-linecap:round; stroke-linejoin:round;fill-rule:evenodd;"
d="M -11.380000,10.830000
-11.273717,10.841427
-11.140376,10.891161
-11.026447,10.976447
-10.941161,11.090376
-10.891427,11.223717
-10.880000,11.330000
-10.880000,12.330000
-10.891427,12.436283
-10.941161,12.569624
-11.026447,12.683553
-11.140376,12.768839
-11.273717,12.818573
-11.380000,12.830000
-13.880000,12.830000
-13.986283,12.818573
-14.119624,12.768839
-14.233553,12.683553
-14.318839,12.569624
-14.368573,12.436283
-14.380000,12.330000
-14.380000,11.330000
-14.368573,11.223717
-14.318839,11.090376
-14.233553,10.976447
-14.119624,10.891161
-13.986283,10.841427
-13.880000,10.830000
Z" /> 
<path style="fill:#000000; fill-opacity:1.000000; 
stroke:#000000; stroke-width:0.000000; stroke-opacity:1; 
stroke-linecap:round; stroke-linejoin:round;fill-rule:evenodd;"
d="M -11.380000,8.290000
-11.273717,8.301427
-11.140376,8.351161
-11.026447,8.436447
-10.941161,8.550376
-10.891427,8.683717
-10.880000,8.790000
-10.880000,9.790000
-10.891427,9.896283
-10.941161,10.029624
-11.026447,10.143553
-11.140376,10.228839
-11.273717,10.278573
-11.380000,10.290000
-13.880000,10.290000
-13.986283,10.278573
-14.119624,10.228839
-14.233553,10.143553
-14.318839,10.029624
-14.368573,9.896283
-14.380000,9.790000
-14.380000,8.790000
-14.368573,8.683717
-14.318839,8.550376
-14.233553,8.436447
-14.119624,8.351161
-13.986283,8.301427
-13.880000,8.290000
Z" /> 
</g>
<g >
</g>
<g style="fill:#000000; fill-opacity:1.000000; 
stroke:#000000; stroke-width:0.000000; stroke-opacity:1; 
stroke-linecap:round; stroke-linejoin:round;">
<path style="fill:#000000; fill-opacity:1.000000; 
stroke:#000000; stroke-width:0.000000; stroke-opacity:1; 
stroke-linecap:round; stroke-linejoin:round;fill-rule:evenodd;"
d="M 5.475000,25.170000
5.367999,25.154410
5.257096,25.100193
5.169807,25.012904
5.115590,24.902001
5.100000,24.795000
5.100000,24.045000
5.115590,23.937999
5.169807,23.827096
5.257096,23.739807
5.367999,23.685590
5.475000,23.670000
8.225000,23.670000
8.332001,23.685590
8.442904,23.739807
8.530193,23.827096
8.584410,23.937999
8.600000,24.045000
8.600000,24.795000
8.584410,24.902001
8.530193,25.012904
8.442904,25.100193
8.332001,25.154410
8.225000,25.170000
Z" /> 
<path style="fill:#000000; fill-opacity:1.000000; 
stroke:#000000; stroke-width:0.000000; stroke-opacity:1; 
stroke-linecap:round; stroke-linejoin:round;fill-rule:evenodd;"
d="M 5.475000,23.170000
5.367999,23.154410
5.257096,23.100193
5.169807,23.012904
5.115590,22.902001
5.100000,22.795000
5.100000,22.045000
5.115590,21.937999
5.169807,21.827096
5.257096,21.739807
5.367999,21.685590
5.475000,21.670000
8.225000,21.670000
8.332001,21.685590
8.442904,21.739807
8.530193,21.827096
8.584410,21.937999
8.600000,22.045000
8.600000,22.795000
8.584410,22.902001
8.530193,23.012904
8.442904,23.100193
8.332001,23.154410
8.225000,23.170000
Z" /> 
<path style="fill:#000000; fill-opacity:1.000000; 
stroke:#000000; stroke-width:0.000000; stroke-opacity:1; 
stroke-linecap:round; stroke-linejoin:round;fill-rule:evenodd;"
d="M -0.166665,27.770000
-0.252938,27.758642
-0.357858,27.709717
-0.439717,27.627858
-0.488642,27.522938
-0.499999,27.436664
-0.500000,26.103335
-0.488642,26.017062
-0.439717,25.912142
-0.357858,25.830283
-0.252938,25.781358
-0.166664,25.770001
4.166665,25.770000
4.252938,25.781358
4.357858,25.830283
4.439717,25.912142
4.488642,26.017062
4.499999,26.103336
4.500000,27.436665
4.488642,27.522938
4.439717,27.627858
4.357858,27.709717
4.252938,27.758642
4.166664,27.769999
Z" /> 
<path style="fill:#000000; fill-opacity:1.000000; 
stroke:#000000; stroke-width:0.000000; stroke-opacity:1; 
stroke-linecap:round; stroke-linejoin:round;fill-rule:evenodd;"
d="M -0.166665,21.070000
-0.252938,21.058642
-0.357858,21.009717
-0.439717,20.927858
-0.488642,20.822938
-0.499999,20.736664
-0.500000,19.403335
-0.488642,19.317062
-0.439717,19.212142
-0.357858,19.130283
-0.252938,19.081358
-0.166664,19.070001
4.166665,19.070000
4.252938,19.081358
4.357858,19.130283
4.439717,19.212142
4.488642,19.317062
4.499999,19.403336
4.500000,20.736665
4.488642,20.822938
4.439717,20.927858
4.357858,21.009717
4.252938,21.058642
4.166664,21.069999
Z" /> 
</g>
<g >
</g>
<g style="fill:#000000; fill-opacity:1.000000; 
stroke:#000000; stroke-width:0.000000; stroke-opacity:1; 
stroke-linecap:round; stroke-linejoin:round;">
<path style="fill:#000000; fill-opacity:1.000000; 
stroke:#000000; stroke-width:0.000000; stroke-opacity:1; 
stroke-linecap:round; stroke-linejoin:round;fill-rule:evenodd;"
d="M 11.620000,-12.550000
11.513717,-12.561427
11.380376,-12.611161
11.266447,-12.696447
11.181161,-12.810376
11.131427,-12.943717
11.120000,-13.050000
11.120000,-14.050000
11.131427,-14.156283
11.181161,-14.289624
11.266447,-14.403553
11.380376,-14.488839
11.513717,-14.538573
11.620000,-14.550000
14.120000,-14.550000
14.226283,-14.538573
14.359624,-14.488839
14.473553,-14.403553
14.558839,-14.289624
14.608573,-14.156283
14.620000,-14.050000
14.620000,-13.050000
14.608573,-12.943717
14.558839,-12.810376
14.473553,-12.696447
14.359624,-12.611161
14.226283,-12.561427
14.120000,-12.550000
Z" /> 
<path style="fill:#000000; fill-opacity:1.000000; 
stroke:#000000; stroke-width:0.000000; stroke-opacity:1; 
stroke-linecap:round; stroke-linejoin:round;fill-rule:evenodd;"
d="M 11.620000,-10.010000
11.513717,-10.021427
11.380376,-10.071161
11.266447,-10.156447
11.181161,-10.270376
11.131427,-10.403717
11.120000,-10.510000
11.120000,-11.510000
11.131427,-11.616283
11.181161,-11.749624
11.266447,-11.863553
11.380376,-11.948839
11.513717,-11.998573
11.620000,-12.010000
14.120000,-12.010000
14.226283,-11.998573
14.359624,-11.948839
14.473553,-11.863553
14.558839,-11.749624
14.608573,-11.616283
14.620000,-11.510000
14.620000,-10.510000
14.608573,-10.403717
14.558839,-10.270376
14.473553,-10.156447
14.359624,-10.071161
14.226283,-10.021427
14.120000,-10.010000
Z" /> 
<path style="fill:#000000; fill-opacity:1.000000; 
stroke:#000000; stroke-width:0.000000; stroke-opacity:1; 
stroke-linecap:round; stroke-linejoin:round;fill-rule:evenodd;"
d="M 11.620000,-7.470000
11.513717,-7.481427
11.380376,-7.531161
11.266447,-7.616447
11.181161,-7.730376
11.131427,-7.863717
11.120000,-7.970000
11.120000,-8.970000
11.131427,-9.076283
11.181161,-9.209624
11.266447,-9.323553
11.380376,-9.408839
11.513717,-9.458573
11.620000,-9.470000
14.120000,-9.470000
14.226283,-9.458573
14.359624,-9.408839
14.473553,-9.323553
14.558839,-9.209624
14.608573,-9.076283
14.620000,-8.970000
14.620000,-7.970000
14.608573,-7.863717
14.558839,-7.730376
14.473553,-7.616447
14.359624,-7.531161
14.226283,-7.481427
14.120000,-7.470000
Z" /> 
<path style="fill:#000000; fill-opacity:1.000000; 
stroke:#000000; stroke-width:0.000000; stroke-opacity:1; 
stroke-linecap:round; stroke-linejoin:round;fill-rule:evenodd;"
d="M 11.620000,-4.930000
11.513717,-4.941427
11.380376,-4.991161
11.266447,-5.076447
11.181161,-5.190376
11.131427,-5.323717
11.120000,-5.430000
11.120000,-6.430000
11.131427,-6.536283
11.181161,-6.669624
11.266447,-6.783553
11.380376,-6.868839
11.513717,-6.918573
11.620000,-6.930000
14.120000,-6.930000
14.226283,-6.918573
14.359624,-6.868839
14.473553,-6.783553
14.558839,-6.669624
14.608573,-6.536283
14.620000,-6.430000
14.620000,-5.430000
14.608573,-5.323717
14.558839,-5.190376
14.473553,-5.076447
14.359624,-4.991161
14.226283,-4.941427
14.120000,-4.930000
Z" /> 
<path style="fill:#000000; fill-opacity:1.000000; 
stroke:#000000; stroke-width:0.000000; stroke-opacity:1; 
stroke-linecap:round; stroke-linejoin:round;fill-rule:evenodd;"
d="M 1.460000,-12.550000
1.353717,-12.561427
1.220376,-12.611161
1.106447,-12.696447
1.021161,-12.810376
0.971427,-12.943717
0.960000,-13.050000
0.960000,-14.050000
0.971427,-14.156283
1.021161,-14.289624
1.106447,-14.403553
1.220376,-14.488839
1.353717,-14.538573
1.460000,-14.550000
3.960000,-14.550000
4.066283,-14.538573
4.199624,-14.488839
4.313553,-14.403553
4.398839,-14.289624
4.448573,-14.156283
4.460000,-14.050000
4.460000,-13.050000
4.448573,-12.943717
4.398839,-12.810376
4.313553,-12.696447
4.199624,-12.611161
4.066283,-12.561427
3.960000,-12.550000
Z" /> 
<path style="fill:#000000; fill-opacity:1.000000; 
stroke:#000000; stroke-width:0.000000; stroke-opacity:1; 
stroke-linecap:round; stroke-linejoin:round;fill-rule:evenodd;"
d="M 1.460000,-10.010000
1.353717,-10.021427
1.220376,-10.071161
1.106447,-10.156447
1.021161,-10.270376
0.971427,-10.403717
0.960000,-10.510000
0.960000,-11.510000
0.971427,-11.616283
1.021161,-11.749624
1.106447,-11.863553
1.220376,-11.948839
1.353717,-11.998573
1.460000,-12.010000
3.960000,-12.010000
4.066283,-11.998573
4.199624,-11.948839
4.313553,-11.863553
4.398839,-11.749624
4.448573,-11.616283
4.460000,-11.510000
4.460000,-10.510000
4.448573,-10.403717
4.398839,-10.270376
4.313553,-10.156447
4.199624,-10.071161
4.066283,-10.021427
3.960000,-10.010000
Z" /> 
<path style="fill:#000000; fill-opacity:1.000000; 
stroke:#000000; stroke-width:0.000000; stroke-opacity:1; 
stroke-linecap:round; stroke-linejoin:round;fill-rule:evenodd;"
d="M 1.460000,-7.470000
1.353717,-7.481427
1.220376,-7.531161
1.106447,-7.616447
1.021161,-7.730376
0.971427,-7.863717
0.960000,-7.970000
0.960000,-8.970000
0.971427,-9.076283
1.021161,-9.209624
1.106447,-9.323553
1.220376,-9.408839
1.353717,-9.458573
1.460000,-9.470000
3.960000,-9.470000
4.066283,-9.458573
4.199624,-9.408839
4.313553,-9.323553
4.398839,-9.209624
4.448573,-9.076283
4.460000,-8.970000
4.460000,-7.970000
4.448573,-7.863717
4.398839,-7.730376
4.313553,-7.616447
4.199624,-7.531161
4.066283,-7.481427
3.960000,-7.470000
Z" /> 
<path style="fill:#000000; fill-opacity:1.000000; 
stroke:#000000; stroke-width:0.000000; stroke-opacity:1; 
stroke-linecap:round; stroke-linejoin:round;fill-rule:evenodd;"
d="M 1.460000,-4.930000
1.353717,-4.941427
1.220376,-4.991161
1.106447,-5.076447
1.021161,-5.190376
0.971427,-5.323717
0.960000,-5.430000
0.960000,-6.430000
0.971427,-6.536283
1.021161,-6.669624
1.106447,-6.783553
1.220376,-6.868839
1.353717,-6.918573
1.460000,-6.930000
3.960000,-6.930000
4.066283,-6.918573
4.199624,-6.868839
4.313553,-6.783553
4.398839,-6.669624
4.448573,-6.536283
4.460000,-6.430000
4.460000,-5.430000
4.448573,-5.323717
4.398839,-5.190376
4.313553,-5.076447
4.199624,-4.991161
4.066283,-4.941427
3.960000,-4.930000
Z" /> 
</g>
<g >
</g>
<g style="fill:#000000; fill-opacity:1.000000; 
stroke:#000000; stroke-width:0.000000; stroke-opacity:1; 
stroke-linecap:round; stroke-linejoin:round;">
<path style="fill:#000000; fill-opacity:1.000000; 
stroke:#000000; stroke-width:0.000000; stroke-opacity:1; 
stroke-linecap:round; stroke-linejoin:round;fill-rule:evenodd;"
d="M 6.790000,7.530000
4.790000,7.530000
4.790000,6.830000
6.790000,6.830000
Z" /> 
<path style="fill:#000000; fill-opacity:1.000000; 
stroke:#000000; stroke-width:0.000000; stroke-opacity:1; 
stroke-linecap:round; stroke-linejoin:round;fill-rule:evenodd;"
d="M 6.790000,6.430000
4.790000,6.430000
4.790000,5.730000
6.790000,5.730000
Z" /> 
<path style="fill:#000000; fill-opacity:1.000000; 
stroke:#000000; stroke-width:0.000000; stroke-opacity:1; 
stroke-linecap:round; stroke-linejoin:round;fill-rule:evenodd;"
d="M 6.790000,5.330000
4.790000,5.330000
4.790000,4.630000
6.790000,4.630000
Z" /> 
<path style="fill:#000000; fill-opacity:1.000000; 
stroke:#000000; stroke-width:0.000000; stroke-opacity:1; 
stroke-linecap:round; stroke-linejoin:round;fill-rule:evenodd;"
d="M 6.790000,4.230000
4.790000,4.230000
4.790000,3.530000
6.790000,3.530000
Z" /> 
<path style="fill:#000000; fill-opacity:1.000000; 
stroke:#000000; stroke-width:0.000000; stroke-opacity:1; 
stroke-linecap:round; stroke-linejoin:round;fill-rule:evenodd;"
d="M 6.790000,3.130000
4.790000,3.130000
4.790000,2.430000
6.790000,2.430000
Z" /> 
<path style="fill:#000000; fill-opacity:1.000000; 
stroke:#000000; stroke-width:0.000000; stroke-opacity:1; 
stroke-linecap:round; stroke-linejoin:round;fill-rule:evenodd;"
d="M 6.790000,2.030000
4.790000,2.030000
4.790000,1.330000
6.790000,1.330000
Z" /> 
<path style="fill:#000000; fill-opacity:1.000000; 
stroke:#000000; stroke-width:0.000000; stroke-opacity:1; 
stroke-linecap:round; stroke-linejoin:round;fill-rule:evenodd;"
d="M 6.790000,0.930000
4.790000,0.930000
4.790000,0.230000
6.790000,0.230000
Z" /> 
<path style="fill:#000000; fill-opacity:1.000000; 
stroke:#000000; stroke-width:0.000000; stroke-opacity:1; 
stroke-linecap:round; stroke-linejoin:round;fill-rule:evenodd;"
d="M 6.790000,-0.170000
4.790000,-0.170000
4.790000,-0.870000
6.790000,-0.870000
Z" /> 
<path style="fill:#000000; fill-opacity:1.000000; 
stroke:#000000; stroke-width:0.000000; stroke-opacity:1; 
stroke-linecap:round; stroke-linejoin:round;fill-rule:evenodd;"
d="M 6.790000,-1.270000
4.790000,-1.270000
4.790000,-1.970000
6.790000,-1.970000
Z" /> 
<path style="fill:#000000; fill-opacity:1.000000; 
stroke:#000000; stroke-width:0.000000; stroke-opacity:1; 
stroke-linecap:round; stroke-linejoin:round;fill-rule:evenodd;"
d="M 7.440000,-2.320000
5.540000,-2.320000
5.540000,-3.920000
7.440000,-3.920000
Z" /> 
<path style="fill:#000000; fill-opacity:1.000000; 
stroke:#000000; stroke-width:0.000000; stroke-opacity:1; 
stroke-linecap:round; stroke-linejoin:round;fill-rule:evenodd;"
d="M 17.590000,-2.220000
14.590000,-2.220000
14.590000,-3.920000
17.590000,-3.920000
Z" /> 
<path style="fill:#000000; fill-opacity:1.000000; 
stroke:#000000; stroke-width:0.000000; stroke-opacity:1; 
stroke-linecap:round; stroke-linejoin:round;fill-rule:evenodd;"
d="M 7.190000,13.080000
5.190000,13.080000
5.190000,10.980000
7.190000,10.980000
Z" /> 
<path style="fill:#000000; fill-opacity:1.000000; 
stroke:#000000; stroke-width:0.000000; stroke-opacity:1; 
stroke-linecap:round; stroke-linejoin:round;fill-rule:evenodd;"
d="M 17.590000,13.780000
14.590000,13.780000
14.590000,12.080000
17.590000,12.080000
Z" /> 
</g>
<g >
</g>
<g style="fill:#000000; fill-opacity:1.000000; 
stroke:#000000; stroke-width:0.000000; stroke-opacity:1; 
stroke-linecap:round; stroke-linejoin:round;">
<path style="fill:#000000; fill-opacity:1.000000; 
stroke:#000000; stroke-width:0.000000; stroke-opacity:1; 
stroke-linecap:round; stroke-linejoin:round;fill-rule:evenodd;"
d="M -16.550000,8.950000
-16.492597,8.961418
-16.443934,8.993934
-16.411418,9.042597
-16.400000,9.100000
-16.400000,9.400000
-16.411418,9.457403
-16.443934,9.506066
-16.492597,9.538582
-16.550000,9.550000
-17.800000,9.550000
-17.857403,9.538582
-17.906066,9.506066
-17.938582,9.457403
-17.950000,9.400000
-17.950000,9.100000
-17.938582,9.042597
-17.906066,8.993934
-17.857403,8.961418
-17.800000,8.950000
Z" /> 
<path style="fill:#000000; fill-opacity:1.000000; 
stroke:#000000; stroke-width:0.000000; stroke-opacity:1; 
stroke-linecap:round; stroke-linejoin:round;fill-rule:evenodd;"
d="M -16.550000,9.950000
-16.492597,9.961418
-16.443934,9.993934
-16.411418,10.042597
-16.400000,10.100000
-16.400000,10.400000
-16.411418,10.457403
-16.443934,10.506066
-16.492597,10.538582
-16.550000,10.550000
-17.800000,10.550000
-17.857403,10.538582
-17.906066,10.506066
-17.938582,10.457403
-17.950000,10.400000
-17.950000,10.100000
-17.938582,10.042597
-17.906066,9.993934
-17.857403,9.961418
-17.800000,9.950000
Z" /> 
<path style="fill:#000000; fill-opacity:1.000000; 
stroke:#000000; stroke-width:0.000000; stroke-opacity:1; 
stroke-linecap:round; stroke-linejoin:round;fill-rule:evenodd;"
d="M -16.550000,10.950000
-16.492597,10.961418
-16.443934,10.993934
-16.411418,11.042597
-16.400000,11.100000
-16.400000,11.400000
-16.411418,11.457403
-16.443934,11.506066
-16.492597,11.538582
-16.550000,11.550000
-17.800000,11.550000
-17.857403,11.538582
-17.906066,11.506066
-17.938582,11.457403
-17.950000,11.400000
-17.950000,11.100000
-17.938582,11.042597
-17.906066,10.993934
-17.857403,10.961418
-17.800000,10.950000
Z" /> 
<path style="fill:#000000; fill-opacity:1.000000; 
stroke:#000000; stroke-width:0.000000; stroke-opacity:1; 
stroke-linecap:round; stroke-linejoin:round;fill-rule:evenodd;"
d="M -19.050000,7.350000
-18.954329,7.369030
-18.873223,7.423223
-18.819030,7.504329
-18.800000,7.600000
-18.800000,8.300000
-18.819030,8.395671
-18.873223,8.476777
-18.954329,8.530970
-19.050000,8.550000
-20.350000,8.550000
-20.445671,8.530970
-20.526777,8.476777
-20.580970,8.395671
-20.600000,8.300000
-20.600000,7.600000
-20.580970,7.504329
-20.526777,7.423223
-20.445671,7.369030
-20.350000,7.350000
Z" /> 
<path style="fill:#000000; fill-opacity:1.000000; 
stroke:#000000; stroke-width:0.000000; stroke-opacity:1; 
stroke-linecap:round; stroke-linejoin:round;fill-rule:evenodd;"
d="M -19.050000,11.950000
-18.954329,11.969030
-18.873223,12.023223
-18.819030,12.104329
-18.800000,12.200000
-18.800000,12.900000
-18.819030,12.995671
-18.873223,13.076777
-18.954329,13.130970
-19.050000,13.150000
-20.350000,13.150000
-20.445671,13.130970
-20.526777,13.076777
-20.580970,12.995671
-20.600000,12.900000
-20.600000,12.200000
-20.580970,12.104329
-20.526777,12.023223
-20.445671,11.969030
-20.350000,11.950000
Z" /> 
</g>
<g >
</g>
<g >
</g>
<g >
</g>
<g >
</g>
</g>
<g style="fill:#000000; fill-opacity:1.000000; 
stroke:#000000; stroke-width:0.000000; stroke-opacity:1; 
stroke-linecap:round; stroke-linejoin:round;">
</g>
<g style="fill:#000000; fill-opacity:1.000000; 
stroke:#000000; stroke-width:0.200000; stroke-opacity:1; 
stroke-linecap:round; stroke-linejoin:round;">
</g>
<g style="fill:#000000; fill-opacity:0.0; 
stroke:#000000; stroke-width:0.200000; stroke-opacity:1; 
stroke-linecap:round; stroke-linejoin:round;">
<path d="M-20.500000 -18.623200
L-20.500000 20.623200
" />
<path d="M20.500000 20.623200
L11.000000 28.594600
" />
<path d="M20.500000 -18.623200
L20.500000 20.623200
" />
<path d="M4.000000 -18.623200
L12.250000 -30.405400
" />
<path d="M11.000000 28.594600
L-11.000000 28.594600
" />
<path d="M-4.000000 -18.623200
L4.000000 -18.623200
" />
<path d="M-12.250000 -30.405400
L-4.000000 -18.623200
" />
<path d="M-20.500000 -18.623200
L-12.250000 -30.405400
" />
<path d="M-11.000000 28.594600
L-20.500000 20.623200
" />
<path d="M12.250000 -30.405400
L20.500000 -18.623200
" />
<g >
</g>
<g >
</g>
<g >
</g>
<g >
</g>
<g >
</g>
<g >
</g>
<g >
</g>
<g >
</g>
<g >
</g>
<g >
</g>
<g >
</g>
<g >
</g>
<g >
</g>
<g >
</g>
<g >
</g>
<g >
</g>
<g >
</g>
<g >
</g>
<g >
</g>
<g >
</g>
<g >
</g>
<g >
</g>
<g >
</g>
<g >
</g>
<g >
</g>
<g >
</g>
<g >
</g>
<g >
</g>
<g >
</g>
<g >
</g>
<g >
</g>
<g >
</g>
<g >
</g>
<g >
</g>
<g >
</g>
<g >
</g>
<g >
</g>
<g >
</g>
<g >
</g>
<g >
</g>
<g >
</g>
<g >
</g>
<g >
</g>
<g >
</g>
<g >
</g>
<g >
</g>
<g >
</g>
<g >
</g>
<g >
</g>
<g >
</g>
<g >
</g>
<g >
</g>
<g >
</g>
<g >
</g>
<g >
</g>
<g >
</g>
<g >
</g>
<g >
</g>
</g> 
</svg>
