M48
INCH,TZ
T1C0.0118
T2C0.0197
T3C0.0236
T4C0.0315
T5C0.0394
T6C0.0669
T7C0.1024
%
G90
G05
T1
X-7189Y4362
X-7157Y7382
X-6748Y-3449
X-6362Y1059
X-6334Y-4805
X-6189Y4362
X-5724Y-8484
X-5189Y4362
X-4481Y-3264
X-4220Y-4215
X-4189Y4362
X-2825Y4134
X-2490Y4468
X-1339Y4201
X-1200Y-2000
X1284Y-252
X1299Y665
X1571Y-1370
X1807Y-1961
X3197Y-5657
X3430Y-6027
X4146Y2083
X4161Y2439
T2
X-5020Y-5808
X3236Y-8287
T3
X2571Y5482
X2878Y-1524
X6201Y6242
T4
X-6880Y3809
X-6388Y-3656
X-6224Y-7640
X-6039Y-5673
X-6016Y-202
X-4598Y-760
X-2730Y7072
X-2382Y-9011
X-1980Y-3533
X-400Y-1600
X3016Y3689
X5504Y-7943
X6800Y3300
T5
X-1500Y6555
X-500Y6555
X500Y6555
X1500Y6555
X7563Y6791
X7563Y5791
X7563Y4791
X7563Y3791
X7563Y2791
X7563Y1791
T6
X-5823Y9268
X-5823Y7268
X-3823Y9268
X-3823Y7268
X3823Y9268
X3823Y7268
X5823Y9268
X5823Y7268
T7
X-4823Y8268
X4823Y8268
T0
M30
