G04 #@! TF.GenerationSoftware,KiCad,Pcbnew,7.0.7-7.0.7~ubuntu22.04.1*
G04 #@! TF.CreationDate,2025-01-16T16:21:51-05:00*
G04 #@! TF.ProjectId,CutieCat,43757469-6543-4617-942e-6b696361645f,rev?*
G04 #@! TF.SameCoordinates,Original*
G04 #@! TF.FileFunction,Paste,Bot*
G04 #@! TF.FilePolarity,Positive*
%FSLAX46Y46*%
G04 Gerber Fmt 4.6, Leading zero omitted, Abs format (unit mm)*
G04 Created by KiCad (PCBNEW 7.0.7-7.0.7~ubuntu22.04.1) date 2025-01-16 16:21:51*
%MOMM*%
%LPD*%
G01*
G04 APERTURE LIST*
G04 Aperture macros list*
%AMRoundRect*
0 Rectangle with rounded corners*
0 $1 Rounding radius*
0 $2 $3 $4 $5 $6 $7 $8 $9 X,Y pos of 4 corners*
0 Add a 4 corners polygon primitive as box body*
4,1,4,$2,$3,$4,$5,$6,$7,$8,$9,$2,$3,0*
0 Add four circle primitives for the rounded corners*
1,1,$1+$1,$2,$3*
1,1,$1+$1,$4,$5*
1,1,$1+$1,$6,$7*
1,1,$1+$1,$8,$9*
0 Add four rect primitives between the rounded corners*
20,1,$1+$1,$2,$3,$4,$5,0*
20,1,$1+$1,$4,$5,$6,$7,0*
20,1,$1+$1,$6,$7,$8,$9,0*
20,1,$1+$1,$8,$9,$2,$3,0*%
G04 Aperture macros list end*
%ADD10RoundRect,0.150000X-0.286836X0.575196X-0.516649X0.382360X0.286836X-0.575196X0.516649X-0.382360X0*%
%ADD11RoundRect,0.250000X-0.149696X0.722905X-0.685928X0.272953X0.149696X-0.722905X0.685928X-0.272953X0*%
%ADD12RoundRect,0.150000X-0.625000X0.150000X-0.625000X-0.150000X0.625000X-0.150000X0.625000X0.150000X0*%
%ADD13RoundRect,0.250000X-0.650000X0.350000X-0.650000X-0.350000X0.650000X-0.350000X0.650000X0.350000X0*%
%ADD14RoundRect,0.500000X-1.250000X0.500000X-1.250000X-0.500000X1.250000X-0.500000X1.250000X0.500000X0*%
%ADD15RoundRect,0.375000X1.375000X-0.375000X1.375000X0.375000X-1.375000X0.375000X-1.375000X-0.375000X0*%
%ADD16RoundRect,0.333335X2.166665X-0.666665X2.166665X0.666665X-2.166665X0.666665X-2.166665X-0.666665X0*%
%ADD17R,2.000000X0.700000*%
%ADD18R,1.900000X1.600000*%
%ADD19R,3.000000X1.700000*%
%ADD20R,2.000000X2.100000*%
G04 #@! TA.AperFunction,Profile*
%ADD21C,0.200000*%
G04 #@! TD*
G04 APERTURE END LIST*
D10*
X12763491Y-21003730D03*
X11997447Y-21646517D03*
X11231403Y-22289305D03*
X10465358Y-22932093D03*
D11*
X16250151Y-23136528D03*
X11960302Y-26736139D03*
D12*
X15830000Y-15570000D03*
X15830000Y-16570000D03*
X15830000Y-17570000D03*
X15830000Y-18570000D03*
D13*
X19705000Y-14270000D03*
X19705000Y-19870000D03*
D14*
X-1880000Y-9290000D03*
X-1880000Y-11830000D03*
X-1880000Y-14370000D03*
X-1880000Y-16910000D03*
X-17120000Y-16910000D03*
X-17120000Y-14370000D03*
X-17120000Y-11830000D03*
X-17120000Y-9290000D03*
D15*
X6850000Y-24420000D03*
X6850000Y-22420000D03*
D16*
X2000000Y-26770000D03*
X2000000Y-20070000D03*
D17*
X5790000Y-7180000D03*
X5790000Y-6080000D03*
X5790000Y-4980000D03*
X5790000Y-3880000D03*
X5790000Y-2780000D03*
X5790000Y-1680000D03*
X5790000Y-580000D03*
X5790000Y520000D03*
X5790000Y1620000D03*
D18*
X6490000Y3120000D03*
D19*
X16090000Y3070000D03*
D20*
X6190000Y-12030000D03*
D19*
X16090000Y-12930000D03*
D21*
X-20500000Y18623200D02*
X-20500000Y-20623200D01*
X20500000Y-20623200D02*
X11000000Y-28594600D01*
X20500000Y18623200D02*
X20500000Y-20623200D01*
X4000000Y18623200D02*
X12250000Y30405400D01*
X11000000Y-28594600D02*
X-11000000Y-28594600D01*
X-4000000Y18623200D02*
X4000000Y18623200D01*
X-12250000Y30405400D02*
X-4000000Y18623200D01*
X-20500000Y18623200D02*
X-12250000Y30405400D01*
X-11000000Y-28594600D02*
X-20500000Y-20623200D01*
X12250000Y30405400D02*
X20500000Y18623200D01*
M02*
