M48
INCH,TZ
T1C0.0157
T2C0.0295
T3C0.0315
T4C0.0394
T5C0.0669
T6C0.1024
%
G90
G05
T1
X-7413Y3665
X-7413Y2665
X-7413Y1665
X-6760Y-3660
X-6100Y2200
X-6100Y1200
X-6100Y200
X-5100Y2200
X-5100Y1200
X-5100Y200
X-4472Y-3642
X-4472Y-4634
X-4300Y-6300
X-3472Y-3642
X-3472Y-4634
X-2472Y-3642
X-2472Y-4634
X-532Y3134
X-177Y-1654
X-146Y-2157
X35Y3134
X75Y-8965
X128Y4772
X200Y5500
X315Y-6959
X748Y-4728
X1067Y5335
X1181Y-6417
X1624Y-7254
X1820Y-5815
X1980Y-3387
X2516Y-6104
X2559Y3986
X3008Y-673
X3012Y1791
X3130Y-3130
X3323Y-7996
X3671Y3327
X4000Y-6597
X4300Y6400
X4307Y-6902
X4858Y-7657
X5000Y-600
X5000Y-1600
X5000Y-2600
X5500Y6400
X5600Y-6200
X6000Y-600
X6000Y-1600
X6000Y-2600
X6339Y1996
X7000Y-600
X7000Y-1600
X7000Y-2600
T2
X2234Y4341
T3
X6780Y5276
T4
X-6933Y4512
X-6933Y-1488
X-5933Y4512
X-5933Y-1488
X-4933Y4512
X-4933Y-1488
X-3933Y4512
X-3933Y-1488
X-2933Y4512
X-2933Y-1488
X-1933Y4512
X-1933Y-1488
X-1500Y6634
X-933Y4512
X-933Y-1488
X-500Y6634
X500Y6634
X1500Y6634
X7283Y6791
X7283Y5791
X7283Y4791
X7283Y3791
X7283Y2791
X7283Y1791
T5
X-5823Y9465
X-5823Y7465
X-3823Y9465
X-3823Y7465
X3823Y9465
X3823Y7465
X5823Y9465
X5823Y7465
T6
X-4823Y8465
X4823Y8465
T0
M30
