G04 #@! TF.GenerationSoftware,KiCad,Pcbnew,7.0.7-7.0.7~ubuntu22.04.1*
G04 #@! TF.CreationDate,2024-07-01T00:22:53-07:00*
G04 #@! TF.ProjectId,v0.0-CutieCat,76302e30-2d43-4757-9469-654361742e6b,rev?*
G04 #@! TF.SameCoordinates,Original*
G04 #@! TF.FileFunction,Soldermask,Bot*
G04 #@! TF.FilePolarity,Negative*
%FSLAX46Y46*%
G04 Gerber Fmt 4.6, Leading zero omitted, Abs format (unit mm)*
G04 Created by KiCad (PCBNEW 7.0.7-7.0.7~ubuntu22.04.1) date 2024-07-01 00:22:53*
%MOMM*%
%LPD*%
G01*
G04 APERTURE LIST*
G04 APERTURE END LIST*
G36*
X4185528Y-25721748D02*
G01*
X4245960Y-25728245D01*
X4256115Y-25732032D01*
X4276330Y-25734978D01*
X4315977Y-25754360D01*
X4350241Y-25767140D01*
X4365529Y-25778584D01*
X4389993Y-25790544D01*
X4415264Y-25815815D01*
X4437522Y-25832477D01*
X4454183Y-25854734D01*
X4479456Y-25880007D01*
X4491415Y-25904471D01*
X4502859Y-25919758D01*
X4515637Y-25954017D01*
X4535022Y-25993670D01*
X4537967Y-26013886D01*
X4541754Y-26024039D01*
X4548253Y-26084489D01*
X4550999Y-26103336D01*
X4550999Y-26110027D01*
X4551000Y-26110037D01*
X4551000Y-26873850D01*
X4551000Y-27436665D01*
X4548250Y-27455538D01*
X4541754Y-27515960D01*
X4537967Y-27526110D01*
X4535022Y-27546330D01*
X4515635Y-27585986D01*
X4502859Y-27620241D01*
X4491417Y-27635525D01*
X4479456Y-27659993D01*
X4454180Y-27685268D01*
X4437522Y-27707522D01*
X4415268Y-27724180D01*
X4389993Y-27749456D01*
X4365525Y-27761417D01*
X4350241Y-27772859D01*
X4315986Y-27785635D01*
X4276330Y-27805022D01*
X4256111Y-27807967D01*
X4245960Y-27811754D01*
X4185511Y-27818253D01*
X4166664Y-27820999D01*
X4159972Y-27820999D01*
X4159963Y-27821000D01*
X-159963Y-27821000D01*
X-159963Y-27820999D01*
X-166665Y-27821000D01*
X-185536Y-27818250D01*
X-245960Y-27811754D01*
X-256110Y-27807967D01*
X-276330Y-27805022D01*
X-315986Y-27785635D01*
X-350241Y-27772859D01*
X-365525Y-27761417D01*
X-389993Y-27749456D01*
X-415268Y-27724180D01*
X-437522Y-27707522D01*
X-454180Y-27685268D01*
X-479456Y-27659993D01*
X-491417Y-27635525D01*
X-502859Y-27620241D01*
X-515635Y-27585986D01*
X-535022Y-27546330D01*
X-537967Y-27526111D01*
X-541754Y-27515960D01*
X-548252Y-27455513D01*
X-550999Y-27436664D01*
X-550999Y-27429971D01*
X-551000Y-27429962D01*
X-551000Y-26110037D01*
X-550999Y-26110036D01*
X-551000Y-26103335D01*
X-548250Y-26084464D01*
X-541754Y-26024039D01*
X-537967Y-26013887D01*
X-535022Y-25993670D01*
X-515637Y-25954017D01*
X-502859Y-25919758D01*
X-491415Y-25904471D01*
X-479456Y-25880007D01*
X-454183Y-25854734D01*
X-437522Y-25832477D01*
X-415264Y-25815815D01*
X-389993Y-25790544D01*
X-365529Y-25778584D01*
X-350241Y-25767140D01*
X-315977Y-25754360D01*
X-276330Y-25734978D01*
X-256116Y-25732033D01*
X-245960Y-25728245D01*
X-185503Y-25721745D01*
X-166664Y-25719001D01*
X-159972Y-25719000D01*
X-159963Y-25719000D01*
X4159963Y-25719000D01*
X4166665Y-25719000D01*
X4185528Y-25721748D01*
G37*
G36*
X12741189Y-24952167D02*
G01*
X12785397Y-24973897D01*
X12818984Y-24988154D01*
X12824948Y-24993338D01*
X12840461Y-25000964D01*
X12890883Y-25048616D01*
X13726507Y-26044474D01*
X13764679Y-26102404D01*
X13769495Y-26119006D01*
X13773565Y-26125780D01*
X13781772Y-26161328D01*
X13795497Y-26208642D01*
X13785856Y-26318838D01*
X13764116Y-26363065D01*
X13749868Y-26396633D01*
X13744686Y-26402593D01*
X13737059Y-26418111D01*
X13689407Y-26468533D01*
X13153175Y-26918484D01*
X13095245Y-26956656D01*
X13078640Y-26961472D01*
X13071868Y-26965542D01*
X13036324Y-26973747D01*
X12989007Y-26987474D01*
X12878811Y-26977833D01*
X12834593Y-26956097D01*
X12801015Y-26941845D01*
X12795052Y-26936661D01*
X12779539Y-26929036D01*
X12729117Y-26881384D01*
X11893493Y-25885526D01*
X11855321Y-25827596D01*
X11850505Y-25810994D01*
X11846434Y-25804219D01*
X11838224Y-25768658D01*
X11824503Y-25721358D01*
X11834144Y-25611162D01*
X11855873Y-25566956D01*
X11870131Y-25533366D01*
X11875315Y-25527401D01*
X11882941Y-25511889D01*
X11930593Y-25461467D01*
X12413633Y-25056149D01*
X12459291Y-25017837D01*
X12459294Y-25017835D01*
X12466825Y-25011516D01*
X12524755Y-24973344D01*
X12541354Y-24968528D01*
X12548131Y-24964457D01*
X12583696Y-24956245D01*
X12630993Y-24942526D01*
X12741189Y-24952167D01*
G37*
G36*
X8248443Y-23622713D02*
G01*
X8324572Y-23631855D01*
X8336928Y-23636727D01*
X8356641Y-23639850D01*
X8397024Y-23660426D01*
X8433210Y-23674696D01*
X8449961Y-23687398D01*
X8475397Y-23700359D01*
X8501582Y-23726544D01*
X8525396Y-23744603D01*
X8543454Y-23768416D01*
X8569641Y-23794603D01*
X8582601Y-23820039D01*
X8595303Y-23836789D01*
X8609570Y-23872969D01*
X8630150Y-23913359D01*
X8633272Y-23933073D01*
X8638144Y-23945427D01*
X8647283Y-24021536D01*
X8651000Y-24045000D01*
X8651000Y-24795000D01*
X8647282Y-24818469D01*
X8638144Y-24894572D01*
X8633272Y-24906924D01*
X8630150Y-24926641D01*
X8609569Y-24967033D01*
X8595303Y-25003210D01*
X8582603Y-25019957D01*
X8569641Y-25045397D01*
X8543450Y-25071587D01*
X8525396Y-25095396D01*
X8501587Y-25113450D01*
X8475397Y-25139641D01*
X8449957Y-25152603D01*
X8433210Y-25165303D01*
X8397033Y-25179569D01*
X8356641Y-25200150D01*
X8336924Y-25203272D01*
X8324572Y-25208144D01*
X8248467Y-25217283D01*
X8225000Y-25221000D01*
X5475000Y-25221000D01*
X5451533Y-25217283D01*
X5375427Y-25208144D01*
X5363073Y-25203272D01*
X5343359Y-25200150D01*
X5302969Y-25179570D01*
X5266789Y-25165303D01*
X5250039Y-25152601D01*
X5224603Y-25139641D01*
X5198416Y-25113454D01*
X5174603Y-25095396D01*
X5156544Y-25071582D01*
X5130359Y-25045397D01*
X5117398Y-25019961D01*
X5104696Y-25003210D01*
X5090426Y-24967024D01*
X5069850Y-24926641D01*
X5066727Y-24906928D01*
X5061855Y-24894572D01*
X5052712Y-24818440D01*
X5049000Y-24795000D01*
X5049000Y-24045000D01*
X5052712Y-24021559D01*
X5061855Y-23945427D01*
X5066728Y-23933069D01*
X5069850Y-23913359D01*
X5090424Y-23872978D01*
X5104696Y-23836789D01*
X5117400Y-23820035D01*
X5130359Y-23794603D01*
X5156541Y-23768420D01*
X5174603Y-23744603D01*
X5198420Y-23726541D01*
X5224603Y-23700359D01*
X5250035Y-23687400D01*
X5266789Y-23674696D01*
X5302978Y-23660424D01*
X5343359Y-23639850D01*
X5363069Y-23636728D01*
X5375427Y-23631855D01*
X5451562Y-23622712D01*
X5475000Y-23619000D01*
X8225000Y-23619000D01*
X8248443Y-23622713D01*
G37*
G36*
X16264993Y-21995344D02*
G01*
X16309201Y-22017074D01*
X16342788Y-22031331D01*
X16348752Y-22036515D01*
X16364265Y-22044141D01*
X16414687Y-22091793D01*
X17250311Y-23087651D01*
X17288483Y-23145581D01*
X17293299Y-23162183D01*
X17297369Y-23168957D01*
X17305576Y-23204505D01*
X17319301Y-23251819D01*
X17309660Y-23362015D01*
X17287920Y-23406242D01*
X17273672Y-23439810D01*
X17268490Y-23445770D01*
X17260863Y-23461288D01*
X17213211Y-23511710D01*
X16676979Y-23961661D01*
X16619049Y-23999833D01*
X16602444Y-24004649D01*
X16595672Y-24008719D01*
X16560128Y-24016924D01*
X16512811Y-24030651D01*
X16402615Y-24021010D01*
X16358397Y-23999274D01*
X16324819Y-23985022D01*
X16318856Y-23979838D01*
X16303343Y-23972213D01*
X16252921Y-23924561D01*
X15417297Y-22928703D01*
X15379125Y-22870773D01*
X15374309Y-22854171D01*
X15370238Y-22847396D01*
X15362028Y-22811835D01*
X15348307Y-22764535D01*
X15357948Y-22654339D01*
X15379677Y-22610133D01*
X15393935Y-22576543D01*
X15399119Y-22570578D01*
X15406745Y-22555066D01*
X15454397Y-22504644D01*
X15937437Y-22099326D01*
X15983095Y-22061014D01*
X15983098Y-22061012D01*
X15990629Y-22054693D01*
X16048559Y-22016521D01*
X16065158Y-22011705D01*
X16071935Y-22007634D01*
X16107500Y-21999422D01*
X16154797Y-21985703D01*
X16264993Y-21995344D01*
G37*
G36*
X8248443Y-21622713D02*
G01*
X8324572Y-21631855D01*
X8336928Y-21636727D01*
X8356641Y-21639850D01*
X8397024Y-21660426D01*
X8433210Y-21674696D01*
X8449961Y-21687398D01*
X8475397Y-21700359D01*
X8501582Y-21726544D01*
X8525396Y-21744603D01*
X8543454Y-21768416D01*
X8569641Y-21794603D01*
X8582601Y-21820039D01*
X8595303Y-21836789D01*
X8609570Y-21872969D01*
X8630150Y-21913359D01*
X8633272Y-21933073D01*
X8638144Y-21945427D01*
X8647283Y-22021536D01*
X8651000Y-22045000D01*
X8651000Y-22795000D01*
X8647282Y-22818469D01*
X8638144Y-22894572D01*
X8633272Y-22906924D01*
X8630150Y-22926641D01*
X8609569Y-22967033D01*
X8595303Y-23003210D01*
X8582603Y-23019957D01*
X8569641Y-23045397D01*
X8543450Y-23071587D01*
X8525396Y-23095396D01*
X8501587Y-23113450D01*
X8475397Y-23139641D01*
X8449957Y-23152603D01*
X8433210Y-23165303D01*
X8397033Y-23179569D01*
X8356641Y-23200150D01*
X8336924Y-23203272D01*
X8324572Y-23208144D01*
X8248467Y-23217283D01*
X8225000Y-23221000D01*
X5475000Y-23221000D01*
X5451533Y-23217283D01*
X5375427Y-23208144D01*
X5363073Y-23203272D01*
X5343359Y-23200150D01*
X5302969Y-23179570D01*
X5266789Y-23165303D01*
X5250039Y-23152601D01*
X5224603Y-23139641D01*
X5198416Y-23113454D01*
X5174603Y-23095396D01*
X5156544Y-23071582D01*
X5130359Y-23045397D01*
X5117398Y-23019961D01*
X5104696Y-23003210D01*
X5090426Y-22967024D01*
X5069850Y-22926641D01*
X5066727Y-22906928D01*
X5061855Y-22894572D01*
X5052712Y-22818440D01*
X5049000Y-22795000D01*
X5049000Y-22045000D01*
X5052712Y-22021559D01*
X5061855Y-21945427D01*
X5066728Y-21933069D01*
X5069850Y-21913359D01*
X5090424Y-21872978D01*
X5104696Y-21836789D01*
X5117400Y-21820035D01*
X5130359Y-21794603D01*
X5156541Y-21768420D01*
X5174603Y-21744603D01*
X5198420Y-21726541D01*
X5224603Y-21700359D01*
X5250035Y-21687400D01*
X5266789Y-21674696D01*
X5302978Y-21660424D01*
X5343359Y-21639850D01*
X5363069Y-21636728D01*
X5375427Y-21631855D01*
X5451562Y-21622712D01*
X5475000Y-21619000D01*
X8225000Y-21619000D01*
X8248443Y-21622713D01*
G37*
G36*
X11070103Y-21392625D02*
G01*
X11079744Y-21393469D01*
X11090990Y-21398713D01*
X11121031Y-21407469D01*
X11136650Y-21420004D01*
X11144939Y-21423870D01*
X11169438Y-21446320D01*
X11182194Y-21456558D01*
X11985679Y-22414113D01*
X11993544Y-22428449D01*
X12011399Y-22456476D01*
X12013765Y-22465307D01*
X12023401Y-22482871D01*
X12026807Y-22513983D01*
X12030018Y-22525964D01*
X12029174Y-22535599D01*
X12031938Y-22560832D01*
X12024835Y-22585202D01*
X12023992Y-22594838D01*
X12018750Y-22606077D01*
X12009993Y-22636126D01*
X11997453Y-22651749D01*
X11993591Y-22660033D01*
X11971152Y-22684519D01*
X11960904Y-22697289D01*
X11731091Y-22890125D01*
X11716751Y-22897992D01*
X11688728Y-22915845D01*
X11679896Y-22918211D01*
X11662333Y-22927847D01*
X11631220Y-22931253D01*
X11619240Y-22934464D01*
X11609604Y-22933620D01*
X11584372Y-22936384D01*
X11560002Y-22929281D01*
X11550365Y-22928438D01*
X11539122Y-22923195D01*
X11509079Y-22914439D01*
X11493458Y-22901901D01*
X11485170Y-22898037D01*
X11460671Y-22875587D01*
X11447916Y-22865350D01*
X10644431Y-21907795D01*
X10636567Y-21893462D01*
X10618710Y-21865431D01*
X10616343Y-21856597D01*
X10606709Y-21839037D01*
X10603302Y-21807928D01*
X10600091Y-21795943D01*
X10600934Y-21786302D01*
X10598172Y-21761076D01*
X10605273Y-21736710D01*
X10606117Y-21727069D01*
X10611361Y-21715821D01*
X10620117Y-21685782D01*
X10632652Y-21670162D01*
X10636518Y-21661874D01*
X10658971Y-21637371D01*
X10669206Y-21624619D01*
X10699401Y-21599282D01*
X10892740Y-21437050D01*
X10892748Y-21437044D01*
X10899019Y-21431783D01*
X10913340Y-21423926D01*
X10941381Y-21406062D01*
X10950218Y-21403694D01*
X10967777Y-21394061D01*
X10998881Y-21390654D01*
X11010869Y-21387443D01*
X11020510Y-21388286D01*
X11045738Y-21385524D01*
X11070103Y-21392625D01*
G37*
G36*
X11836148Y-20749837D02*
G01*
X11845789Y-20750681D01*
X11857035Y-20755925D01*
X11887076Y-20764681D01*
X11902695Y-20777216D01*
X11910984Y-20781082D01*
X11935483Y-20803532D01*
X11948239Y-20813770D01*
X12751724Y-21771325D01*
X12759589Y-21785661D01*
X12777444Y-21813688D01*
X12779810Y-21822519D01*
X12789446Y-21840083D01*
X12792852Y-21871195D01*
X12796063Y-21883176D01*
X12795219Y-21892811D01*
X12797983Y-21918044D01*
X12790880Y-21942414D01*
X12790037Y-21952050D01*
X12784795Y-21963289D01*
X12776038Y-21993338D01*
X12763498Y-22008961D01*
X12759636Y-22017245D01*
X12737197Y-22041731D01*
X12726949Y-22054501D01*
X12497136Y-22247337D01*
X12482796Y-22255204D01*
X12454773Y-22273057D01*
X12445941Y-22275423D01*
X12428378Y-22285059D01*
X12397265Y-22288465D01*
X12385285Y-22291676D01*
X12375649Y-22290832D01*
X12350417Y-22293596D01*
X12326047Y-22286493D01*
X12316410Y-22285650D01*
X12305167Y-22280407D01*
X12275124Y-22271651D01*
X12259503Y-22259113D01*
X12251215Y-22255249D01*
X12226716Y-22232799D01*
X12213961Y-22222562D01*
X11410476Y-21265007D01*
X11402612Y-21250674D01*
X11384755Y-21222643D01*
X11382388Y-21213809D01*
X11372754Y-21196249D01*
X11369347Y-21165140D01*
X11366136Y-21153155D01*
X11366979Y-21143514D01*
X11364217Y-21118288D01*
X11371318Y-21093922D01*
X11372162Y-21084281D01*
X11377406Y-21073033D01*
X11386162Y-21042994D01*
X11398697Y-21027374D01*
X11402563Y-21019086D01*
X11425016Y-20994583D01*
X11435251Y-20981831D01*
X11441529Y-20976563D01*
X11658785Y-20794262D01*
X11658793Y-20794256D01*
X11665064Y-20788995D01*
X11679385Y-20781138D01*
X11707426Y-20763274D01*
X11716263Y-20760906D01*
X11733822Y-20751273D01*
X11764926Y-20747866D01*
X11776914Y-20744655D01*
X11786555Y-20745498D01*
X11811783Y-20742736D01*
X11836148Y-20749837D01*
G37*
G36*
X12602192Y-20107050D02*
G01*
X12611833Y-20107894D01*
X12623079Y-20113138D01*
X12653120Y-20121894D01*
X12668739Y-20134429D01*
X12677028Y-20138295D01*
X12701527Y-20160745D01*
X12714283Y-20170983D01*
X13517768Y-21128538D01*
X13525633Y-21142874D01*
X13543488Y-21170901D01*
X13545854Y-21179732D01*
X13555490Y-21197296D01*
X13558896Y-21228408D01*
X13562107Y-21240389D01*
X13561263Y-21250024D01*
X13564027Y-21275257D01*
X13556924Y-21299627D01*
X13556081Y-21309263D01*
X13550839Y-21320502D01*
X13542082Y-21350551D01*
X13529542Y-21366174D01*
X13525680Y-21374458D01*
X13503241Y-21398944D01*
X13492993Y-21411714D01*
X13263180Y-21604550D01*
X13248840Y-21612417D01*
X13220817Y-21630270D01*
X13211985Y-21632636D01*
X13194422Y-21642272D01*
X13163309Y-21645678D01*
X13151329Y-21648889D01*
X13141693Y-21648045D01*
X13116461Y-21650809D01*
X13092091Y-21643706D01*
X13082454Y-21642863D01*
X13071211Y-21637620D01*
X13041168Y-21628864D01*
X13025547Y-21616326D01*
X13017259Y-21612462D01*
X12992760Y-21590012D01*
X12980005Y-21579775D01*
X12176520Y-20622220D01*
X12168656Y-20607887D01*
X12150799Y-20579856D01*
X12148432Y-20571022D01*
X12138798Y-20553462D01*
X12135391Y-20522353D01*
X12132180Y-20510368D01*
X12133023Y-20500727D01*
X12130261Y-20475501D01*
X12137362Y-20451135D01*
X12138206Y-20441494D01*
X12143450Y-20430246D01*
X12152206Y-20400207D01*
X12164741Y-20384587D01*
X12168607Y-20376299D01*
X12191060Y-20351796D01*
X12201295Y-20339044D01*
X12232892Y-20312531D01*
X12424829Y-20151475D01*
X12424837Y-20151469D01*
X12431108Y-20146208D01*
X12445429Y-20138351D01*
X12473470Y-20120487D01*
X12482307Y-20118119D01*
X12499866Y-20108486D01*
X12530970Y-20105079D01*
X12542958Y-20101868D01*
X12552599Y-20102711D01*
X12577827Y-20099949D01*
X12602192Y-20107050D01*
G37*
G36*
X4185528Y-19021748D02*
G01*
X4245960Y-19028245D01*
X4256115Y-19032032D01*
X4276330Y-19034978D01*
X4315977Y-19054360D01*
X4350241Y-19067140D01*
X4365529Y-19078584D01*
X4389993Y-19090544D01*
X4415264Y-19115815D01*
X4437522Y-19132477D01*
X4454183Y-19154734D01*
X4479456Y-19180007D01*
X4491415Y-19204471D01*
X4502859Y-19219758D01*
X4515637Y-19254017D01*
X4535022Y-19293670D01*
X4537967Y-19313886D01*
X4541754Y-19324039D01*
X4548253Y-19384489D01*
X4550999Y-19403336D01*
X4550999Y-19410027D01*
X4551000Y-19410037D01*
X4551000Y-20099949D01*
X4551000Y-20736665D01*
X4548250Y-20755538D01*
X4541754Y-20815960D01*
X4537967Y-20826110D01*
X4535022Y-20846330D01*
X4515635Y-20885986D01*
X4502859Y-20920241D01*
X4491417Y-20935525D01*
X4479456Y-20959993D01*
X4454180Y-20985268D01*
X4437522Y-21007522D01*
X4415268Y-21024180D01*
X4389993Y-21049456D01*
X4365525Y-21061417D01*
X4350241Y-21072859D01*
X4315986Y-21085635D01*
X4276330Y-21105022D01*
X4256111Y-21107967D01*
X4245960Y-21111754D01*
X4185511Y-21118253D01*
X4166664Y-21120999D01*
X4159972Y-21120999D01*
X4159963Y-21121000D01*
X-159963Y-21121000D01*
X-159963Y-21120999D01*
X-166665Y-21121000D01*
X-185536Y-21118250D01*
X-245960Y-21111754D01*
X-256110Y-21107967D01*
X-276330Y-21105022D01*
X-315986Y-21085635D01*
X-350241Y-21072859D01*
X-365525Y-21061417D01*
X-389993Y-21049456D01*
X-415268Y-21024180D01*
X-437522Y-21007522D01*
X-454180Y-20985268D01*
X-479456Y-20959993D01*
X-491417Y-20935525D01*
X-502859Y-20920241D01*
X-515635Y-20885986D01*
X-535022Y-20846330D01*
X-537967Y-20826111D01*
X-541754Y-20815960D01*
X-548252Y-20755513D01*
X-550999Y-20736664D01*
X-550999Y-20729971D01*
X-551000Y-20729962D01*
X-551000Y-19410037D01*
X-550999Y-19410036D01*
X-551000Y-19403335D01*
X-548250Y-19384464D01*
X-541754Y-19324039D01*
X-537967Y-19313887D01*
X-535022Y-19293670D01*
X-515637Y-19254017D01*
X-502859Y-19219758D01*
X-491415Y-19204471D01*
X-479456Y-19180007D01*
X-454183Y-19154734D01*
X-437522Y-19132477D01*
X-415264Y-19115815D01*
X-389993Y-19090544D01*
X-365529Y-19078584D01*
X-350241Y-19067140D01*
X-315977Y-19054360D01*
X-276330Y-19034978D01*
X-256116Y-19032033D01*
X-245960Y-19028245D01*
X-185503Y-19021745D01*
X-166664Y-19019001D01*
X-159972Y-19019000D01*
X-159963Y-19019000D01*
X4159963Y-19019000D01*
X4166665Y-19019000D01*
X4185528Y-19021748D01*
G37*
G36*
X-18986086Y-19226995D02*
G01*
X-18970274Y-19233976D01*
X-18962468Y-19235213D01*
X-18929953Y-19251780D01*
X-18884894Y-19271676D01*
X-18806676Y-19349894D01*
X-18786780Y-19394953D01*
X-18770213Y-19427468D01*
X-18768976Y-19435274D01*
X-18761995Y-19451086D01*
X-18754000Y-19520000D01*
X-18754000Y-20220000D01*
X-18761995Y-20288914D01*
X-18768976Y-20304726D01*
X-18770213Y-20312531D01*
X-18786776Y-20345039D01*
X-18806676Y-20390106D01*
X-18884894Y-20468324D01*
X-18929967Y-20488226D01*
X-18962468Y-20504786D01*
X-18970270Y-20506021D01*
X-18986086Y-20513005D01*
X-19055000Y-20521000D01*
X-20355000Y-20521000D01*
X-20423914Y-20513005D01*
X-20439729Y-20506021D01*
X-20447531Y-20504786D01*
X-20480024Y-20488229D01*
X-20525106Y-20468324D01*
X-20603324Y-20390106D01*
X-20623229Y-20345024D01*
X-20639786Y-20312531D01*
X-20641021Y-20304729D01*
X-20648005Y-20288914D01*
X-20656000Y-20220000D01*
X-20656000Y-19520000D01*
X-20648005Y-19451086D01*
X-20641021Y-19435270D01*
X-20639786Y-19427468D01*
X-20623226Y-19394967D01*
X-20603324Y-19349894D01*
X-20525106Y-19271676D01*
X-20480039Y-19251776D01*
X-20447531Y-19235213D01*
X-20439726Y-19233976D01*
X-20423914Y-19226995D01*
X-20355000Y-19219000D01*
X-19055000Y-19219000D01*
X-18986086Y-19226995D01*
G37*
G36*
X20423914Y-19226995D02*
G01*
X20439726Y-19233976D01*
X20447531Y-19235213D01*
X20480039Y-19251776D01*
X20525106Y-19271676D01*
X20603324Y-19349894D01*
X20623226Y-19394967D01*
X20639786Y-19427468D01*
X20641021Y-19435270D01*
X20648005Y-19451086D01*
X20656000Y-19520000D01*
X20656000Y-20220000D01*
X20648005Y-20288914D01*
X20641021Y-20304729D01*
X20639786Y-20312531D01*
X20623229Y-20345024D01*
X20603324Y-20390106D01*
X20525106Y-20468324D01*
X20480024Y-20488229D01*
X20447531Y-20504786D01*
X20439729Y-20506021D01*
X20423914Y-20513005D01*
X20355000Y-20521000D01*
X19055000Y-20521000D01*
X18986086Y-20513005D01*
X18970270Y-20506021D01*
X18962468Y-20504786D01*
X18929967Y-20488226D01*
X18884894Y-20468324D01*
X18806676Y-20390106D01*
X18786776Y-20345039D01*
X18770213Y-20312531D01*
X18768976Y-20304726D01*
X18761995Y-20288914D01*
X18754000Y-20220000D01*
X18754000Y-19520000D01*
X18761995Y-19451086D01*
X18768976Y-19435274D01*
X18770213Y-19427468D01*
X18786780Y-19394953D01*
X18806676Y-19349894D01*
X18884894Y-19271676D01*
X18929953Y-19251780D01*
X18962468Y-19235213D01*
X18970274Y-19233976D01*
X18986086Y-19226995D01*
X19055000Y-19219000D01*
X20355000Y-19219000D01*
X20423914Y-19226995D01*
G37*
G36*
X-15188961Y-18222190D02*
G01*
X-15156012Y-18226528D01*
X-15147723Y-18230392D01*
X-15128081Y-18234300D01*
X-15102063Y-18251684D01*
X-15090819Y-18256928D01*
X-15083977Y-18263769D01*
X-15062872Y-18277872D01*
X-15048769Y-18298977D01*
X-15041928Y-18305819D01*
X-15036684Y-18317063D01*
X-15019300Y-18343081D01*
X-15015392Y-18362723D01*
X-15011528Y-18371012D01*
X-15007190Y-18403961D01*
X-15004000Y-18420000D01*
X-15004000Y-18720000D01*
X-15007190Y-18736040D01*
X-15011528Y-18768987D01*
X-15015392Y-18777274D01*
X-15019300Y-18796919D01*
X-15036686Y-18822938D01*
X-15041928Y-18834180D01*
X-15048767Y-18841019D01*
X-15062872Y-18862128D01*
X-15083980Y-18876232D01*
X-15090819Y-18883071D01*
X-15102058Y-18888312D01*
X-15128081Y-18905700D01*
X-15147727Y-18909607D01*
X-15156012Y-18913471D01*
X-15188946Y-18917806D01*
X-15205000Y-18921000D01*
X-16455000Y-18921000D01*
X-16471054Y-18917806D01*
X-16503987Y-18913471D01*
X-16512270Y-18909608D01*
X-16531919Y-18905700D01*
X-16557943Y-18888310D01*
X-16569180Y-18883071D01*
X-16576016Y-18876234D01*
X-16597128Y-18862128D01*
X-16611234Y-18841016D01*
X-16618071Y-18834180D01*
X-16623310Y-18822943D01*
X-16640700Y-18796919D01*
X-16644608Y-18777270D01*
X-16648471Y-18768987D01*
X-16652806Y-18736054D01*
X-16656000Y-18720000D01*
X-16656000Y-18420000D01*
X-16652806Y-18403946D01*
X-16648471Y-18371012D01*
X-16644607Y-18362727D01*
X-16640700Y-18343081D01*
X-16623312Y-18317058D01*
X-16618071Y-18305819D01*
X-16611232Y-18298980D01*
X-16597128Y-18277872D01*
X-16576019Y-18263767D01*
X-16569180Y-18256928D01*
X-16557938Y-18251686D01*
X-16531919Y-18234300D01*
X-16512274Y-18230392D01*
X-16503987Y-18226528D01*
X-16471040Y-18222190D01*
X-16455000Y-18219000D01*
X-15205000Y-18219000D01*
X-15188961Y-18222190D01*
G37*
G36*
X16471040Y-18222190D02*
G01*
X16503987Y-18226528D01*
X16512274Y-18230392D01*
X16531919Y-18234300D01*
X16557938Y-18251686D01*
X16569180Y-18256928D01*
X16576019Y-18263767D01*
X16597128Y-18277872D01*
X16611232Y-18298980D01*
X16618071Y-18305819D01*
X16623312Y-18317058D01*
X16640700Y-18343081D01*
X16644607Y-18362727D01*
X16648471Y-18371012D01*
X16652806Y-18403946D01*
X16656000Y-18420000D01*
X16656000Y-18720000D01*
X16652806Y-18736054D01*
X16648471Y-18768987D01*
X16644608Y-18777270D01*
X16640700Y-18796919D01*
X16623310Y-18822943D01*
X16618071Y-18834180D01*
X16611234Y-18841016D01*
X16597128Y-18862128D01*
X16576016Y-18876234D01*
X16569180Y-18883071D01*
X16557943Y-18888310D01*
X16531919Y-18905700D01*
X16512270Y-18909608D01*
X16503987Y-18913471D01*
X16471054Y-18917806D01*
X16455000Y-18921000D01*
X15205000Y-18921000D01*
X15188946Y-18917806D01*
X15156012Y-18913471D01*
X15147727Y-18909607D01*
X15128081Y-18905700D01*
X15102058Y-18888312D01*
X15090819Y-18883071D01*
X15083980Y-18876232D01*
X15062872Y-18862128D01*
X15048767Y-18841019D01*
X15041928Y-18834180D01*
X15036686Y-18822938D01*
X15019300Y-18796919D01*
X15015392Y-18777274D01*
X15011528Y-18768987D01*
X15007190Y-18736040D01*
X15004000Y-18720000D01*
X15004000Y-18420000D01*
X15007190Y-18403961D01*
X15011528Y-18371012D01*
X15015392Y-18362723D01*
X15019300Y-18343081D01*
X15036684Y-18317063D01*
X15041928Y-18305819D01*
X15048769Y-18298977D01*
X15062872Y-18277872D01*
X15083977Y-18263769D01*
X15090819Y-18256928D01*
X15102063Y-18251684D01*
X15128081Y-18234300D01*
X15147723Y-18230392D01*
X15156012Y-18226528D01*
X15188961Y-18222190D01*
X15205000Y-18219000D01*
X16455000Y-18219000D01*
X16471040Y-18222190D01*
G37*
G36*
X-11362382Y-15861115D02*
G01*
X-11282671Y-15868359D01*
X-11270507Y-15872149D01*
X-11249543Y-15874667D01*
X-11201008Y-15893806D01*
X-11154240Y-15908380D01*
X-11135831Y-15919508D01*
X-11109949Y-15929715D01*
X-11074580Y-15956535D01*
X-11040755Y-15976984D01*
X-11019228Y-15998510D01*
X-10990384Y-16020384D01*
X-10968510Y-16049228D01*
X-10946984Y-16070755D01*
X-10926535Y-16104580D01*
X-10899715Y-16139949D01*
X-10889508Y-16165831D01*
X-10878380Y-16184240D01*
X-10863806Y-16231008D01*
X-10844667Y-16279543D01*
X-10842149Y-16300507D01*
X-10838359Y-16312671D01*
X-10831115Y-16392382D01*
X-10829000Y-16410000D01*
X-10829000Y-17410000D01*
X-10831116Y-17427620D01*
X-10838359Y-17507328D01*
X-10842149Y-17519490D01*
X-10844667Y-17540457D01*
X-10863807Y-17588994D01*
X-10878380Y-17635759D01*
X-10889507Y-17654166D01*
X-10899715Y-17680051D01*
X-10926538Y-17715423D01*
X-10946984Y-17749244D01*
X-10968507Y-17770767D01*
X-10990384Y-17799616D01*
X-11019232Y-17821492D01*
X-11040755Y-17843015D01*
X-11074573Y-17863459D01*
X-11109949Y-17890285D01*
X-11135835Y-17900493D01*
X-11154240Y-17911619D01*
X-11200996Y-17926189D01*
X-11249543Y-17945333D01*
X-11270512Y-17947851D01*
X-11282671Y-17951640D01*
X-11362348Y-17958880D01*
X-11380000Y-17961000D01*
X-13880000Y-17961000D01*
X-13897654Y-17958879D01*
X-13977328Y-17951640D01*
X-13989485Y-17947851D01*
X-14010457Y-17945333D01*
X-14059007Y-17926187D01*
X-14105759Y-17911619D01*
X-14124161Y-17900494D01*
X-14150051Y-17890285D01*
X-14185430Y-17863456D01*
X-14219244Y-17843015D01*
X-14240763Y-17821495D01*
X-14269616Y-17799616D01*
X-14291495Y-17770763D01*
X-14313015Y-17749244D01*
X-14333456Y-17715430D01*
X-14360285Y-17680051D01*
X-14370494Y-17654161D01*
X-14381619Y-17635759D01*
X-14396187Y-17589007D01*
X-14415333Y-17540457D01*
X-14417851Y-17519485D01*
X-14421640Y-17507328D01*
X-14428879Y-17427654D01*
X-14431000Y-17410000D01*
X-14431000Y-16410000D01*
X-14428880Y-16392348D01*
X-14421640Y-16312671D01*
X-14417851Y-16300512D01*
X-14415333Y-16279543D01*
X-14396189Y-16230996D01*
X-14381619Y-16184240D01*
X-14370493Y-16165835D01*
X-14360285Y-16139949D01*
X-14333459Y-16104573D01*
X-14313015Y-16070755D01*
X-14291492Y-16049232D01*
X-14269616Y-16020384D01*
X-14240767Y-15998507D01*
X-14219244Y-15976984D01*
X-14185423Y-15956538D01*
X-14150051Y-15929715D01*
X-14124166Y-15919507D01*
X-14105759Y-15908380D01*
X-14058994Y-15893807D01*
X-14010457Y-15874667D01*
X-13989490Y-15872149D01*
X-13977328Y-15868359D01*
X-13897620Y-15861116D01*
X-13880000Y-15859000D01*
X-11380000Y-15859000D01*
X-11362382Y-15861115D01*
G37*
G36*
X3877620Y-15861116D02*
G01*
X3957328Y-15868359D01*
X3969490Y-15872149D01*
X3990457Y-15874667D01*
X4038994Y-15893807D01*
X4085759Y-15908380D01*
X4104166Y-15919507D01*
X4130051Y-15929715D01*
X4165423Y-15956538D01*
X4199244Y-15976984D01*
X4220767Y-15998507D01*
X4249616Y-16020384D01*
X4271492Y-16049232D01*
X4293015Y-16070755D01*
X4313459Y-16104573D01*
X4340285Y-16139949D01*
X4350493Y-16165835D01*
X4361619Y-16184240D01*
X4376189Y-16230996D01*
X4395333Y-16279543D01*
X4397851Y-16300512D01*
X4401640Y-16312671D01*
X4408880Y-16392348D01*
X4411000Y-16410000D01*
X4411000Y-17410000D01*
X4408879Y-17427654D01*
X4401640Y-17507328D01*
X4397851Y-17519485D01*
X4395333Y-17540457D01*
X4376187Y-17589007D01*
X4361619Y-17635759D01*
X4350494Y-17654161D01*
X4340285Y-17680051D01*
X4313456Y-17715430D01*
X4293015Y-17749244D01*
X4271495Y-17770763D01*
X4249616Y-17799616D01*
X4220763Y-17821495D01*
X4199244Y-17843015D01*
X4165430Y-17863456D01*
X4130051Y-17890285D01*
X4104161Y-17900494D01*
X4085759Y-17911619D01*
X4039007Y-17926187D01*
X3990457Y-17945333D01*
X3969485Y-17947851D01*
X3957328Y-17951640D01*
X3877654Y-17958879D01*
X3860000Y-17961000D01*
X1360000Y-17961000D01*
X1342348Y-17958880D01*
X1262671Y-17951640D01*
X1250512Y-17947851D01*
X1229543Y-17945333D01*
X1180996Y-17926189D01*
X1134240Y-17911619D01*
X1115835Y-17900493D01*
X1089949Y-17890285D01*
X1054573Y-17863459D01*
X1020755Y-17843015D01*
X999232Y-17821492D01*
X970384Y-17799616D01*
X948507Y-17770767D01*
X926984Y-17749244D01*
X906538Y-17715423D01*
X879715Y-17680051D01*
X869507Y-17654166D01*
X858380Y-17635759D01*
X843807Y-17588994D01*
X824667Y-17540457D01*
X822149Y-17519490D01*
X818359Y-17507328D01*
X811116Y-17427620D01*
X809000Y-17410000D01*
X809000Y-16410000D01*
X811115Y-16392382D01*
X818359Y-16312671D01*
X822149Y-16300507D01*
X824667Y-16279543D01*
X843806Y-16231008D01*
X858380Y-16184240D01*
X869508Y-16165831D01*
X879715Y-16139949D01*
X906535Y-16104580D01*
X926984Y-16070755D01*
X948510Y-16049228D01*
X970384Y-16020384D01*
X999228Y-15998510D01*
X1020755Y-15976984D01*
X1054580Y-15956535D01*
X1089949Y-15929715D01*
X1115831Y-15919508D01*
X1134240Y-15908380D01*
X1181008Y-15893806D01*
X1229543Y-15874667D01*
X1250507Y-15872149D01*
X1262671Y-15868359D01*
X1342382Y-15861115D01*
X1360000Y-15859000D01*
X3860000Y-15859000D01*
X3877620Y-15861116D01*
G37*
G36*
X-15188961Y-17222190D02*
G01*
X-15156012Y-17226528D01*
X-15147723Y-17230392D01*
X-15128081Y-17234300D01*
X-15102063Y-17251684D01*
X-15090819Y-17256928D01*
X-15083977Y-17263769D01*
X-15062872Y-17277872D01*
X-15048769Y-17298977D01*
X-15041928Y-17305819D01*
X-15036684Y-17317063D01*
X-15019300Y-17343081D01*
X-15015392Y-17362723D01*
X-15011528Y-17371012D01*
X-15007190Y-17403961D01*
X-15004000Y-17420000D01*
X-15004000Y-17720000D01*
X-15007190Y-17736040D01*
X-15011528Y-17768987D01*
X-15015392Y-17777274D01*
X-15019300Y-17796919D01*
X-15036686Y-17822938D01*
X-15041928Y-17834180D01*
X-15048767Y-17841019D01*
X-15062872Y-17862128D01*
X-15083980Y-17876232D01*
X-15090819Y-17883071D01*
X-15102058Y-17888312D01*
X-15128081Y-17905700D01*
X-15147727Y-17909607D01*
X-15156012Y-17913471D01*
X-15188946Y-17917806D01*
X-15205000Y-17921000D01*
X-16455000Y-17921000D01*
X-16471054Y-17917806D01*
X-16503987Y-17913471D01*
X-16512270Y-17909608D01*
X-16531919Y-17905700D01*
X-16557943Y-17888310D01*
X-16569180Y-17883071D01*
X-16576016Y-17876234D01*
X-16597128Y-17862128D01*
X-16611234Y-17841016D01*
X-16618071Y-17834180D01*
X-16623310Y-17822943D01*
X-16640700Y-17796919D01*
X-16644608Y-17777270D01*
X-16648471Y-17768987D01*
X-16652806Y-17736054D01*
X-16656000Y-17720000D01*
X-16656000Y-17420000D01*
X-16652806Y-17403946D01*
X-16648471Y-17371012D01*
X-16644607Y-17362727D01*
X-16640700Y-17343081D01*
X-16623312Y-17317058D01*
X-16618071Y-17305819D01*
X-16611232Y-17298980D01*
X-16597128Y-17277872D01*
X-16576019Y-17263767D01*
X-16569180Y-17256928D01*
X-16557938Y-17251686D01*
X-16531919Y-17234300D01*
X-16512274Y-17230392D01*
X-16503987Y-17226528D01*
X-16471040Y-17222190D01*
X-16455000Y-17219000D01*
X-15205000Y-17219000D01*
X-15188961Y-17222190D01*
G37*
G36*
X16471040Y-17222190D02*
G01*
X16503987Y-17226528D01*
X16512274Y-17230392D01*
X16531919Y-17234300D01*
X16557938Y-17251686D01*
X16569180Y-17256928D01*
X16576019Y-17263767D01*
X16597128Y-17277872D01*
X16611232Y-17298980D01*
X16618071Y-17305819D01*
X16623312Y-17317058D01*
X16640700Y-17343081D01*
X16644607Y-17362727D01*
X16648471Y-17371012D01*
X16652806Y-17403946D01*
X16656000Y-17420000D01*
X16656000Y-17720000D01*
X16652806Y-17736054D01*
X16648471Y-17768987D01*
X16644608Y-17777270D01*
X16640700Y-17796919D01*
X16623310Y-17822943D01*
X16618071Y-17834180D01*
X16611234Y-17841016D01*
X16597128Y-17862128D01*
X16576016Y-17876234D01*
X16569180Y-17883071D01*
X16557943Y-17888310D01*
X16531919Y-17905700D01*
X16512270Y-17909608D01*
X16503987Y-17913471D01*
X16471054Y-17917806D01*
X16455000Y-17921000D01*
X15205000Y-17921000D01*
X15188946Y-17917806D01*
X15156012Y-17913471D01*
X15147727Y-17909607D01*
X15128081Y-17905700D01*
X15102058Y-17888312D01*
X15090819Y-17883071D01*
X15083980Y-17876232D01*
X15062872Y-17862128D01*
X15048767Y-17841019D01*
X15041928Y-17834180D01*
X15036686Y-17822938D01*
X15019300Y-17796919D01*
X15015392Y-17777274D01*
X15011528Y-17768987D01*
X15007190Y-17736040D01*
X15004000Y-17720000D01*
X15004000Y-17420000D01*
X15007190Y-17403961D01*
X15011528Y-17371012D01*
X15015392Y-17362723D01*
X15019300Y-17343081D01*
X15036684Y-17317063D01*
X15041928Y-17305819D01*
X15048769Y-17298977D01*
X15062872Y-17277872D01*
X15083977Y-17263769D01*
X15090819Y-17256928D01*
X15102063Y-17251684D01*
X15128081Y-17234300D01*
X15147723Y-17230392D01*
X15156012Y-17226528D01*
X15188961Y-17222190D01*
X15205000Y-17219000D01*
X16455000Y-17219000D01*
X16471040Y-17222190D01*
G37*
G36*
X-15188961Y-16222190D02*
G01*
X-15156012Y-16226528D01*
X-15147723Y-16230392D01*
X-15128081Y-16234300D01*
X-15102063Y-16251684D01*
X-15090819Y-16256928D01*
X-15083977Y-16263769D01*
X-15062872Y-16277872D01*
X-15048769Y-16298977D01*
X-15041928Y-16305819D01*
X-15036684Y-16317063D01*
X-15019300Y-16343081D01*
X-15015392Y-16362723D01*
X-15011528Y-16371012D01*
X-15007190Y-16403961D01*
X-15004000Y-16420000D01*
X-15004000Y-16720000D01*
X-15007190Y-16736040D01*
X-15011528Y-16768987D01*
X-15015392Y-16777274D01*
X-15019300Y-16796919D01*
X-15036686Y-16822938D01*
X-15041928Y-16834180D01*
X-15048767Y-16841019D01*
X-15062872Y-16862128D01*
X-15083980Y-16876232D01*
X-15090819Y-16883071D01*
X-15102058Y-16888312D01*
X-15128081Y-16905700D01*
X-15147727Y-16909607D01*
X-15156012Y-16913471D01*
X-15188946Y-16917806D01*
X-15205000Y-16921000D01*
X-16455000Y-16921000D01*
X-16471054Y-16917806D01*
X-16503987Y-16913471D01*
X-16512270Y-16909608D01*
X-16531919Y-16905700D01*
X-16557943Y-16888310D01*
X-16569180Y-16883071D01*
X-16576016Y-16876234D01*
X-16597128Y-16862128D01*
X-16611234Y-16841016D01*
X-16618071Y-16834180D01*
X-16623310Y-16822943D01*
X-16640700Y-16796919D01*
X-16644608Y-16777270D01*
X-16648471Y-16768987D01*
X-16652806Y-16736054D01*
X-16656000Y-16720000D01*
X-16656000Y-16420000D01*
X-16652806Y-16403946D01*
X-16648471Y-16371012D01*
X-16644607Y-16362727D01*
X-16640700Y-16343081D01*
X-16623312Y-16317058D01*
X-16618071Y-16305819D01*
X-16611232Y-16298980D01*
X-16597128Y-16277872D01*
X-16576019Y-16263767D01*
X-16569180Y-16256928D01*
X-16557938Y-16251686D01*
X-16531919Y-16234300D01*
X-16512274Y-16230392D01*
X-16503987Y-16226528D01*
X-16471040Y-16222190D01*
X-16455000Y-16219000D01*
X-15205000Y-16219000D01*
X-15188961Y-16222190D01*
G37*
G36*
X16471040Y-16222190D02*
G01*
X16503987Y-16226528D01*
X16512274Y-16230392D01*
X16531919Y-16234300D01*
X16557938Y-16251686D01*
X16569180Y-16256928D01*
X16576019Y-16263767D01*
X16597128Y-16277872D01*
X16611232Y-16298980D01*
X16618071Y-16305819D01*
X16623312Y-16317058D01*
X16640700Y-16343081D01*
X16644607Y-16362727D01*
X16648471Y-16371012D01*
X16652806Y-16403946D01*
X16656000Y-16420000D01*
X16656000Y-16720000D01*
X16652806Y-16736054D01*
X16648471Y-16768987D01*
X16644608Y-16777270D01*
X16640700Y-16796919D01*
X16623310Y-16822943D01*
X16618071Y-16834180D01*
X16611234Y-16841016D01*
X16597128Y-16862128D01*
X16576016Y-16876234D01*
X16569180Y-16883071D01*
X16557943Y-16888310D01*
X16531919Y-16905700D01*
X16512270Y-16909608D01*
X16503987Y-16913471D01*
X16471054Y-16917806D01*
X16455000Y-16921000D01*
X15205000Y-16921000D01*
X15188946Y-16917806D01*
X15156012Y-16913471D01*
X15147727Y-16909607D01*
X15128081Y-16905700D01*
X15102058Y-16888312D01*
X15090819Y-16883071D01*
X15083980Y-16876232D01*
X15062872Y-16862128D01*
X15048767Y-16841019D01*
X15041928Y-16834180D01*
X15036686Y-16822938D01*
X15019300Y-16796919D01*
X15015392Y-16777274D01*
X15011528Y-16768987D01*
X15007190Y-16736040D01*
X15004000Y-16720000D01*
X15004000Y-16420000D01*
X15007190Y-16403961D01*
X15011528Y-16371012D01*
X15015392Y-16362723D01*
X15019300Y-16343081D01*
X15036684Y-16317063D01*
X15041928Y-16305819D01*
X15048769Y-16298977D01*
X15062872Y-16277872D01*
X15083977Y-16263769D01*
X15090819Y-16256928D01*
X15102063Y-16251684D01*
X15128081Y-16234300D01*
X15147723Y-16230392D01*
X15156012Y-16226528D01*
X15188961Y-16222190D01*
X15205000Y-16219000D01*
X16455000Y-16219000D01*
X16471040Y-16222190D01*
G37*
G36*
X-15188961Y-15222190D02*
G01*
X-15156012Y-15226528D01*
X-15147723Y-15230392D01*
X-15128081Y-15234300D01*
X-15102063Y-15251684D01*
X-15090819Y-15256928D01*
X-15083977Y-15263769D01*
X-15062872Y-15277872D01*
X-15048769Y-15298977D01*
X-15041928Y-15305819D01*
X-15036684Y-15317063D01*
X-15019300Y-15343081D01*
X-15015392Y-15362723D01*
X-15011528Y-15371012D01*
X-15007190Y-15403961D01*
X-15004000Y-15420000D01*
X-15004000Y-15720000D01*
X-15007190Y-15736040D01*
X-15011528Y-15768987D01*
X-15015392Y-15777274D01*
X-15019300Y-15796919D01*
X-15036686Y-15822938D01*
X-15041928Y-15834180D01*
X-15048767Y-15841019D01*
X-15062872Y-15862128D01*
X-15083980Y-15876232D01*
X-15090819Y-15883071D01*
X-15102058Y-15888312D01*
X-15128081Y-15905700D01*
X-15147727Y-15909607D01*
X-15156012Y-15913471D01*
X-15188946Y-15917806D01*
X-15205000Y-15921000D01*
X-16455000Y-15921000D01*
X-16471054Y-15917806D01*
X-16503987Y-15913471D01*
X-16512270Y-15909608D01*
X-16531919Y-15905700D01*
X-16557943Y-15888310D01*
X-16569180Y-15883071D01*
X-16576016Y-15876234D01*
X-16597128Y-15862128D01*
X-16611234Y-15841016D01*
X-16618071Y-15834180D01*
X-16623310Y-15822943D01*
X-16640700Y-15796919D01*
X-16644608Y-15777270D01*
X-16648471Y-15768987D01*
X-16652806Y-15736054D01*
X-16656000Y-15720000D01*
X-16656000Y-15420000D01*
X-16652806Y-15403946D01*
X-16648471Y-15371012D01*
X-16644607Y-15362727D01*
X-16640700Y-15343081D01*
X-16623312Y-15317058D01*
X-16618071Y-15305819D01*
X-16611232Y-15298980D01*
X-16597128Y-15277872D01*
X-16576019Y-15263767D01*
X-16569180Y-15256928D01*
X-16557938Y-15251686D01*
X-16531919Y-15234300D01*
X-16512274Y-15230392D01*
X-16503987Y-15226528D01*
X-16471040Y-15222190D01*
X-16455000Y-15219000D01*
X-15205000Y-15219000D01*
X-15188961Y-15222190D01*
G37*
G36*
X16471040Y-15222190D02*
G01*
X16503987Y-15226528D01*
X16512274Y-15230392D01*
X16531919Y-15234300D01*
X16557938Y-15251686D01*
X16569180Y-15256928D01*
X16576019Y-15263767D01*
X16597128Y-15277872D01*
X16611232Y-15298980D01*
X16618071Y-15305819D01*
X16623312Y-15317058D01*
X16640700Y-15343081D01*
X16644607Y-15362727D01*
X16648471Y-15371012D01*
X16652806Y-15403946D01*
X16656000Y-15420000D01*
X16656000Y-15720000D01*
X16652806Y-15736054D01*
X16648471Y-15768987D01*
X16644608Y-15777270D01*
X16640700Y-15796919D01*
X16623310Y-15822943D01*
X16618071Y-15834180D01*
X16611234Y-15841016D01*
X16597128Y-15862128D01*
X16576016Y-15876234D01*
X16569180Y-15883071D01*
X16557943Y-15888310D01*
X16531919Y-15905700D01*
X16512270Y-15909608D01*
X16503987Y-15913471D01*
X16471054Y-15917806D01*
X16455000Y-15921000D01*
X15205000Y-15921000D01*
X15188946Y-15917806D01*
X15156012Y-15913471D01*
X15147727Y-15909607D01*
X15128081Y-15905700D01*
X15102058Y-15888312D01*
X15090819Y-15883071D01*
X15083980Y-15876232D01*
X15062872Y-15862128D01*
X15048767Y-15841019D01*
X15041928Y-15834180D01*
X15036686Y-15822938D01*
X15019300Y-15796919D01*
X15015392Y-15777274D01*
X15011528Y-15768987D01*
X15007190Y-15736040D01*
X15004000Y-15720000D01*
X15004000Y-15420000D01*
X15007190Y-15403961D01*
X15011528Y-15371012D01*
X15015392Y-15362723D01*
X15019300Y-15343081D01*
X15036684Y-15317063D01*
X15041928Y-15305819D01*
X15048769Y-15298977D01*
X15062872Y-15277872D01*
X15083977Y-15263769D01*
X15090819Y-15256928D01*
X15102063Y-15251684D01*
X15128081Y-15234300D01*
X15147723Y-15230392D01*
X15156012Y-15226528D01*
X15188961Y-15222190D01*
X15205000Y-15219000D01*
X16455000Y-15219000D01*
X16471040Y-15222190D01*
G37*
G36*
X-11362382Y-13321115D02*
G01*
X-11282671Y-13328359D01*
X-11270507Y-13332149D01*
X-11249543Y-13334667D01*
X-11201008Y-13353806D01*
X-11154240Y-13368380D01*
X-11135831Y-13379508D01*
X-11109949Y-13389715D01*
X-11074580Y-13416535D01*
X-11040755Y-13436984D01*
X-11019228Y-13458510D01*
X-10990384Y-13480384D01*
X-10968510Y-13509228D01*
X-10946984Y-13530755D01*
X-10926535Y-13564580D01*
X-10899715Y-13599949D01*
X-10889508Y-13625831D01*
X-10878380Y-13644240D01*
X-10863806Y-13691008D01*
X-10844667Y-13739543D01*
X-10842149Y-13760507D01*
X-10838359Y-13772671D01*
X-10831115Y-13852382D01*
X-10829000Y-13870000D01*
X-10829000Y-14870000D01*
X-10831116Y-14887620D01*
X-10838359Y-14967328D01*
X-10842149Y-14979490D01*
X-10844667Y-15000457D01*
X-10863807Y-15048994D01*
X-10878380Y-15095759D01*
X-10889507Y-15114166D01*
X-10899715Y-15140051D01*
X-10926538Y-15175423D01*
X-10946984Y-15209244D01*
X-10968507Y-15230767D01*
X-10990384Y-15259616D01*
X-11019232Y-15281492D01*
X-11040755Y-15303015D01*
X-11074573Y-15323459D01*
X-11109949Y-15350285D01*
X-11135835Y-15360493D01*
X-11154240Y-15371619D01*
X-11200996Y-15386189D01*
X-11249543Y-15405333D01*
X-11270512Y-15407851D01*
X-11282671Y-15411640D01*
X-11362348Y-15418880D01*
X-11380000Y-15421000D01*
X-13880000Y-15421000D01*
X-13897654Y-15418879D01*
X-13977328Y-15411640D01*
X-13989485Y-15407851D01*
X-14010457Y-15405333D01*
X-14059007Y-15386187D01*
X-14105759Y-15371619D01*
X-14124161Y-15360494D01*
X-14150051Y-15350285D01*
X-14185430Y-15323456D01*
X-14219244Y-15303015D01*
X-14240763Y-15281495D01*
X-14269616Y-15259616D01*
X-14291495Y-15230763D01*
X-14313015Y-15209244D01*
X-14333456Y-15175430D01*
X-14360285Y-15140051D01*
X-14370494Y-15114161D01*
X-14381619Y-15095759D01*
X-14396187Y-15049007D01*
X-14415333Y-15000457D01*
X-14417851Y-14979485D01*
X-14421640Y-14967328D01*
X-14428879Y-14887654D01*
X-14431000Y-14870000D01*
X-14431000Y-13870000D01*
X-14428880Y-13852348D01*
X-14421640Y-13772671D01*
X-14417851Y-13760512D01*
X-14415333Y-13739543D01*
X-14396189Y-13690996D01*
X-14381619Y-13644240D01*
X-14370493Y-13625835D01*
X-14360285Y-13599949D01*
X-14333459Y-13564573D01*
X-14313015Y-13530755D01*
X-14291492Y-13509232D01*
X-14269616Y-13480384D01*
X-14240767Y-13458507D01*
X-14219244Y-13436984D01*
X-14185423Y-13416538D01*
X-14150051Y-13389715D01*
X-14124166Y-13379507D01*
X-14105759Y-13368380D01*
X-14058994Y-13353807D01*
X-14010457Y-13334667D01*
X-13989490Y-13332149D01*
X-13977328Y-13328359D01*
X-13897620Y-13321116D01*
X-13880000Y-13319000D01*
X-11380000Y-13319000D01*
X-11362382Y-13321115D01*
G37*
G36*
X3877620Y-13321116D02*
G01*
X3957328Y-13328359D01*
X3969490Y-13332149D01*
X3990457Y-13334667D01*
X4038994Y-13353807D01*
X4085759Y-13368380D01*
X4104166Y-13379507D01*
X4130051Y-13389715D01*
X4165423Y-13416538D01*
X4199244Y-13436984D01*
X4220767Y-13458507D01*
X4249616Y-13480384D01*
X4271492Y-13509232D01*
X4293015Y-13530755D01*
X4313459Y-13564573D01*
X4340285Y-13599949D01*
X4350493Y-13625835D01*
X4361619Y-13644240D01*
X4376189Y-13690996D01*
X4395333Y-13739543D01*
X4397851Y-13760512D01*
X4401640Y-13772671D01*
X4408880Y-13852348D01*
X4411000Y-13870000D01*
X4411000Y-14870000D01*
X4408879Y-14887654D01*
X4401640Y-14967328D01*
X4397851Y-14979485D01*
X4395333Y-15000457D01*
X4376187Y-15049007D01*
X4361619Y-15095759D01*
X4350494Y-15114161D01*
X4340285Y-15140051D01*
X4313456Y-15175430D01*
X4293015Y-15209244D01*
X4271495Y-15230763D01*
X4249616Y-15259616D01*
X4220763Y-15281495D01*
X4199244Y-15303015D01*
X4165430Y-15323456D01*
X4130051Y-15350285D01*
X4104161Y-15360494D01*
X4085759Y-15371619D01*
X4039007Y-15386187D01*
X3990457Y-15405333D01*
X3969485Y-15407851D01*
X3957328Y-15411640D01*
X3877654Y-15418879D01*
X3860000Y-15421000D01*
X1360000Y-15421000D01*
X1342348Y-15418880D01*
X1262671Y-15411640D01*
X1250512Y-15407851D01*
X1229543Y-15405333D01*
X1180996Y-15386189D01*
X1134240Y-15371619D01*
X1115835Y-15360493D01*
X1089949Y-15350285D01*
X1054573Y-15323459D01*
X1020755Y-15303015D01*
X999232Y-15281492D01*
X970384Y-15259616D01*
X948507Y-15230767D01*
X926984Y-15209244D01*
X906538Y-15175423D01*
X879715Y-15140051D01*
X869507Y-15114166D01*
X858380Y-15095759D01*
X843807Y-15048994D01*
X824667Y-15000457D01*
X822149Y-14979490D01*
X818359Y-14967328D01*
X811116Y-14887620D01*
X809000Y-14870000D01*
X809000Y-13870000D01*
X811115Y-13852382D01*
X818359Y-13772671D01*
X822149Y-13760507D01*
X824667Y-13739543D01*
X843806Y-13691008D01*
X858380Y-13644240D01*
X869508Y-13625831D01*
X879715Y-13599949D01*
X906535Y-13564580D01*
X926984Y-13530755D01*
X948510Y-13509228D01*
X970384Y-13480384D01*
X999228Y-13458510D01*
X1020755Y-13436984D01*
X1054580Y-13416535D01*
X1089949Y-13389715D01*
X1115831Y-13379508D01*
X1134240Y-13368380D01*
X1181008Y-13353806D01*
X1229543Y-13334667D01*
X1250507Y-13332149D01*
X1262671Y-13328359D01*
X1342382Y-13321115D01*
X1360000Y-13319000D01*
X3860000Y-13319000D01*
X3877620Y-13321116D01*
G37*
G36*
X-18986086Y-13626995D02*
G01*
X-18970274Y-13633976D01*
X-18962468Y-13635213D01*
X-18929953Y-13651780D01*
X-18884894Y-13671676D01*
X-18806676Y-13749894D01*
X-18786780Y-13794953D01*
X-18770213Y-13827468D01*
X-18768976Y-13835274D01*
X-18761995Y-13851086D01*
X-18754000Y-13920000D01*
X-18754000Y-14620000D01*
X-18761995Y-14688914D01*
X-18768976Y-14704726D01*
X-18770213Y-14712531D01*
X-18786776Y-14745039D01*
X-18806676Y-14790106D01*
X-18884894Y-14868324D01*
X-18929967Y-14888226D01*
X-18962468Y-14904786D01*
X-18970270Y-14906021D01*
X-18986086Y-14913005D01*
X-19055000Y-14921000D01*
X-20355000Y-14921000D01*
X-20423914Y-14913005D01*
X-20439729Y-14906021D01*
X-20447531Y-14904786D01*
X-20480024Y-14888229D01*
X-20525106Y-14868324D01*
X-20603324Y-14790106D01*
X-20623229Y-14745024D01*
X-20639786Y-14712531D01*
X-20641021Y-14704729D01*
X-20648005Y-14688914D01*
X-20656000Y-14620000D01*
X-20656000Y-13920000D01*
X-20648005Y-13851086D01*
X-20641021Y-13835270D01*
X-20639786Y-13827468D01*
X-20623226Y-13794967D01*
X-20603324Y-13749894D01*
X-20525106Y-13671676D01*
X-20480039Y-13651776D01*
X-20447531Y-13635213D01*
X-20439726Y-13633976D01*
X-20423914Y-13626995D01*
X-20355000Y-13619000D01*
X-19055000Y-13619000D01*
X-18986086Y-13626995D01*
G37*
G36*
X20423914Y-13626995D02*
G01*
X20439726Y-13633976D01*
X20447531Y-13635213D01*
X20480039Y-13651776D01*
X20525106Y-13671676D01*
X20603324Y-13749894D01*
X20623226Y-13794967D01*
X20639786Y-13827468D01*
X20641021Y-13835270D01*
X20648005Y-13851086D01*
X20656000Y-13920000D01*
X20656000Y-14620000D01*
X20648005Y-14688914D01*
X20641021Y-14704729D01*
X20639786Y-14712531D01*
X20623229Y-14745024D01*
X20603324Y-14790106D01*
X20525106Y-14868324D01*
X20480024Y-14888229D01*
X20447531Y-14904786D01*
X20439729Y-14906021D01*
X20423914Y-14913005D01*
X20355000Y-14921000D01*
X19055000Y-14921000D01*
X18986086Y-14913005D01*
X18970270Y-14906021D01*
X18962468Y-14904786D01*
X18929967Y-14888226D01*
X18884894Y-14868324D01*
X18806676Y-14790106D01*
X18786776Y-14745039D01*
X18770213Y-14712531D01*
X18768976Y-14704726D01*
X18761995Y-14688914D01*
X18754000Y-14620000D01*
X18754000Y-13920000D01*
X18761995Y-13851086D01*
X18768976Y-13835274D01*
X18770213Y-13827468D01*
X18786780Y-13794953D01*
X18806676Y-13749894D01*
X18884894Y-13671676D01*
X18929953Y-13651780D01*
X18962468Y-13635213D01*
X18970274Y-13633976D01*
X18986086Y-13626995D01*
X19055000Y-13619000D01*
X20355000Y-13619000D01*
X20423914Y-13626995D01*
G37*
G36*
X17609517Y-12032882D02*
G01*
X17626062Y-12043938D01*
X17637118Y-12060483D01*
X17641000Y-12080000D01*
X17641000Y-13780000D01*
X17637118Y-13799517D01*
X17626062Y-13816062D01*
X17609517Y-13827118D01*
X17590000Y-13831000D01*
X14590000Y-13831000D01*
X14570483Y-13827118D01*
X14553938Y-13816062D01*
X14542882Y-13799517D01*
X14539000Y-13780000D01*
X14539000Y-12080000D01*
X14542882Y-12060483D01*
X14553938Y-12043938D01*
X14570483Y-12032882D01*
X14590000Y-12029000D01*
X17590000Y-12029000D01*
X17609517Y-12032882D01*
G37*
G36*
X-18981086Y-11906995D02*
G01*
X-18965274Y-11913976D01*
X-18957468Y-11915213D01*
X-18924953Y-11931780D01*
X-18879894Y-11951676D01*
X-18801676Y-12029894D01*
X-18781780Y-12074953D01*
X-18765213Y-12107468D01*
X-18763976Y-12115274D01*
X-18756995Y-12131086D01*
X-18749000Y-12200000D01*
X-18749000Y-12900000D01*
X-18756995Y-12968914D01*
X-18763976Y-12984726D01*
X-18765213Y-12992531D01*
X-18781776Y-13025039D01*
X-18801676Y-13070106D01*
X-18879894Y-13148324D01*
X-18924967Y-13168226D01*
X-18957468Y-13184786D01*
X-18965270Y-13186021D01*
X-18981086Y-13193005D01*
X-19050000Y-13201000D01*
X-20350000Y-13201000D01*
X-20418914Y-13193005D01*
X-20434729Y-13186021D01*
X-20442531Y-13184786D01*
X-20475024Y-13168229D01*
X-20520106Y-13148324D01*
X-20598324Y-13070106D01*
X-20618229Y-13025024D01*
X-20634786Y-12992531D01*
X-20636021Y-12984729D01*
X-20643005Y-12968914D01*
X-20651000Y-12900000D01*
X-20651000Y-12200000D01*
X-20643005Y-12131086D01*
X-20636021Y-12115270D01*
X-20634786Y-12107468D01*
X-20618226Y-12074967D01*
X-20598324Y-12029894D01*
X-20520106Y-11951676D01*
X-20475039Y-11931776D01*
X-20442531Y-11915213D01*
X-20434726Y-11913976D01*
X-20418914Y-11906995D01*
X-20350000Y-11899000D01*
X-19050000Y-11899000D01*
X-18981086Y-11906995D01*
G37*
G36*
X7209517Y-10932882D02*
G01*
X7226062Y-10943938D01*
X7237118Y-10960483D01*
X7241000Y-10980000D01*
X7241000Y-13080000D01*
X7237118Y-13099517D01*
X7226062Y-13116062D01*
X7209517Y-13127118D01*
X7190000Y-13131000D01*
X5190000Y-13131000D01*
X5170483Y-13127118D01*
X5153938Y-13116062D01*
X5142882Y-13099517D01*
X5139000Y-13080000D01*
X5139000Y-10980000D01*
X5142882Y-10960483D01*
X5153938Y-10943938D01*
X5170483Y-10932882D01*
X5190000Y-10929000D01*
X7190000Y-10929000D01*
X7209517Y-10932882D01*
G37*
G36*
X-11362382Y-10781115D02*
G01*
X-11282671Y-10788359D01*
X-11270507Y-10792149D01*
X-11249543Y-10794667D01*
X-11201008Y-10813806D01*
X-11154240Y-10828380D01*
X-11135831Y-10839508D01*
X-11109949Y-10849715D01*
X-11074580Y-10876535D01*
X-11040755Y-10896984D01*
X-11019228Y-10918510D01*
X-10990384Y-10940384D01*
X-10968510Y-10969228D01*
X-10946984Y-10990755D01*
X-10926535Y-11024580D01*
X-10899715Y-11059949D01*
X-10889508Y-11085831D01*
X-10878380Y-11104240D01*
X-10863806Y-11151008D01*
X-10844667Y-11199543D01*
X-10842149Y-11220507D01*
X-10838359Y-11232671D01*
X-10831115Y-11312382D01*
X-10829000Y-11330000D01*
X-10829000Y-12330000D01*
X-10831116Y-12347620D01*
X-10838359Y-12427328D01*
X-10842149Y-12439490D01*
X-10844667Y-12460457D01*
X-10863807Y-12508994D01*
X-10878380Y-12555759D01*
X-10889507Y-12574166D01*
X-10899715Y-12600051D01*
X-10926538Y-12635423D01*
X-10946984Y-12669244D01*
X-10968507Y-12690767D01*
X-10990384Y-12719616D01*
X-11019232Y-12741492D01*
X-11040755Y-12763015D01*
X-11074573Y-12783459D01*
X-11109949Y-12810285D01*
X-11135835Y-12820493D01*
X-11154240Y-12831619D01*
X-11200996Y-12846189D01*
X-11249543Y-12865333D01*
X-11270512Y-12867851D01*
X-11282671Y-12871640D01*
X-11362348Y-12878880D01*
X-11380000Y-12881000D01*
X-13880000Y-12881000D01*
X-13897654Y-12878879D01*
X-13977328Y-12871640D01*
X-13989485Y-12867851D01*
X-14010457Y-12865333D01*
X-14059007Y-12846187D01*
X-14105759Y-12831619D01*
X-14124161Y-12820494D01*
X-14150051Y-12810285D01*
X-14185430Y-12783456D01*
X-14219244Y-12763015D01*
X-14240763Y-12741495D01*
X-14269616Y-12719616D01*
X-14291495Y-12690763D01*
X-14313015Y-12669244D01*
X-14333456Y-12635430D01*
X-14360285Y-12600051D01*
X-14370494Y-12574161D01*
X-14381619Y-12555759D01*
X-14396187Y-12509007D01*
X-14415333Y-12460457D01*
X-14417851Y-12439485D01*
X-14421640Y-12427328D01*
X-14428879Y-12347654D01*
X-14431000Y-12330000D01*
X-14431000Y-11330000D01*
X-14428880Y-11312348D01*
X-14421640Y-11232671D01*
X-14417851Y-11220512D01*
X-14415333Y-11199543D01*
X-14396189Y-11150996D01*
X-14381619Y-11104240D01*
X-14370493Y-11085835D01*
X-14360285Y-11059949D01*
X-14333459Y-11024573D01*
X-14313015Y-10990755D01*
X-14291492Y-10969232D01*
X-14269616Y-10940384D01*
X-14240767Y-10918507D01*
X-14219244Y-10896984D01*
X-14185423Y-10876538D01*
X-14150051Y-10849715D01*
X-14124166Y-10839507D01*
X-14105759Y-10828380D01*
X-14058994Y-10813807D01*
X-14010457Y-10794667D01*
X-13989490Y-10792149D01*
X-13977328Y-10788359D01*
X-13897620Y-10781116D01*
X-13880000Y-10779000D01*
X-11380000Y-10779000D01*
X-11362382Y-10781115D01*
G37*
G36*
X3877620Y-10781116D02*
G01*
X3957328Y-10788359D01*
X3969490Y-10792149D01*
X3990457Y-10794667D01*
X4038994Y-10813807D01*
X4085759Y-10828380D01*
X4104166Y-10839507D01*
X4130051Y-10849715D01*
X4165423Y-10876538D01*
X4199244Y-10896984D01*
X4220767Y-10918507D01*
X4249616Y-10940384D01*
X4271492Y-10969232D01*
X4293015Y-10990755D01*
X4313459Y-11024573D01*
X4340285Y-11059949D01*
X4350493Y-11085835D01*
X4361619Y-11104240D01*
X4376189Y-11150996D01*
X4395333Y-11199543D01*
X4397851Y-11220512D01*
X4401640Y-11232671D01*
X4408880Y-11312348D01*
X4411000Y-11330000D01*
X4411000Y-12330000D01*
X4408879Y-12347654D01*
X4401640Y-12427328D01*
X4397851Y-12439485D01*
X4395333Y-12460457D01*
X4376187Y-12509007D01*
X4361619Y-12555759D01*
X4350494Y-12574161D01*
X4340285Y-12600051D01*
X4313456Y-12635430D01*
X4293015Y-12669244D01*
X4271495Y-12690763D01*
X4249616Y-12719616D01*
X4220763Y-12741495D01*
X4199244Y-12763015D01*
X4165430Y-12783456D01*
X4130051Y-12810285D01*
X4104161Y-12820494D01*
X4085759Y-12831619D01*
X4039007Y-12846187D01*
X3990457Y-12865333D01*
X3969485Y-12867851D01*
X3957328Y-12871640D01*
X3877654Y-12878879D01*
X3860000Y-12881000D01*
X1360000Y-12881000D01*
X1342348Y-12878880D01*
X1262671Y-12871640D01*
X1250512Y-12867851D01*
X1229543Y-12865333D01*
X1180996Y-12846189D01*
X1134240Y-12831619D01*
X1115835Y-12820493D01*
X1089949Y-12810285D01*
X1054573Y-12783459D01*
X1020755Y-12763015D01*
X999232Y-12741492D01*
X970384Y-12719616D01*
X948507Y-12690767D01*
X926984Y-12669244D01*
X906538Y-12635423D01*
X879715Y-12600051D01*
X869507Y-12574166D01*
X858380Y-12555759D01*
X843807Y-12508994D01*
X824667Y-12460457D01*
X822149Y-12439490D01*
X818359Y-12427328D01*
X811116Y-12347620D01*
X809000Y-12330000D01*
X809000Y-11330000D01*
X811115Y-11312382D01*
X818359Y-11232671D01*
X822149Y-11220507D01*
X824667Y-11199543D01*
X843806Y-11151008D01*
X858380Y-11104240D01*
X869508Y-11085831D01*
X879715Y-11059949D01*
X906535Y-11024580D01*
X926984Y-10990755D01*
X948510Y-10969228D01*
X970384Y-10940384D01*
X999228Y-10918510D01*
X1020755Y-10896984D01*
X1054580Y-10876535D01*
X1089949Y-10849715D01*
X1115831Y-10839508D01*
X1134240Y-10828380D01*
X1181008Y-10813806D01*
X1229543Y-10794667D01*
X1250507Y-10792149D01*
X1262671Y-10788359D01*
X1342382Y-10781115D01*
X1360000Y-10779000D01*
X3860000Y-10779000D01*
X3877620Y-10781116D01*
G37*
G36*
X-16533961Y-10902190D02*
G01*
X-16501012Y-10906528D01*
X-16492723Y-10910392D01*
X-16473081Y-10914300D01*
X-16447063Y-10931684D01*
X-16435819Y-10936928D01*
X-16428977Y-10943769D01*
X-16407872Y-10957872D01*
X-16393769Y-10978977D01*
X-16386928Y-10985819D01*
X-16381684Y-10997063D01*
X-16364300Y-11023081D01*
X-16360392Y-11042723D01*
X-16356528Y-11051012D01*
X-16352190Y-11083961D01*
X-16349000Y-11100000D01*
X-16349000Y-11400000D01*
X-16352190Y-11416040D01*
X-16356528Y-11448987D01*
X-16360392Y-11457274D01*
X-16364300Y-11476919D01*
X-16381686Y-11502938D01*
X-16386928Y-11514180D01*
X-16393767Y-11521019D01*
X-16407872Y-11542128D01*
X-16428980Y-11556232D01*
X-16435819Y-11563071D01*
X-16447058Y-11568312D01*
X-16473081Y-11585700D01*
X-16492727Y-11589607D01*
X-16501012Y-11593471D01*
X-16533946Y-11597806D01*
X-16550000Y-11601000D01*
X-17800000Y-11601000D01*
X-17816054Y-11597806D01*
X-17848987Y-11593471D01*
X-17857270Y-11589608D01*
X-17876919Y-11585700D01*
X-17902943Y-11568310D01*
X-17914180Y-11563071D01*
X-17921016Y-11556234D01*
X-17942128Y-11542128D01*
X-17956234Y-11521016D01*
X-17963071Y-11514180D01*
X-17968310Y-11502943D01*
X-17985700Y-11476919D01*
X-17989608Y-11457270D01*
X-17993471Y-11448987D01*
X-17997806Y-11416054D01*
X-18001000Y-11400000D01*
X-18001000Y-11100000D01*
X-17997806Y-11083946D01*
X-17993471Y-11051012D01*
X-17989607Y-11042727D01*
X-17985700Y-11023081D01*
X-17968312Y-10997058D01*
X-17963071Y-10985819D01*
X-17956232Y-10978980D01*
X-17942128Y-10957872D01*
X-17921019Y-10943767D01*
X-17914180Y-10936928D01*
X-17902938Y-10931686D01*
X-17876919Y-10914300D01*
X-17857274Y-10910392D01*
X-17848987Y-10906528D01*
X-17816040Y-10902190D01*
X-17800000Y-10899000D01*
X-16550000Y-10899000D01*
X-16533961Y-10902190D01*
G37*
G36*
X-16533961Y-9902190D02*
G01*
X-16501012Y-9906528D01*
X-16492723Y-9910392D01*
X-16473081Y-9914300D01*
X-16447063Y-9931684D01*
X-16435819Y-9936928D01*
X-16428977Y-9943769D01*
X-16407872Y-9957872D01*
X-16393769Y-9978977D01*
X-16386928Y-9985819D01*
X-16381684Y-9997063D01*
X-16364300Y-10023081D01*
X-16360392Y-10042723D01*
X-16356528Y-10051012D01*
X-16352190Y-10083961D01*
X-16349000Y-10100000D01*
X-16349000Y-10400000D01*
X-16352190Y-10416040D01*
X-16356528Y-10448987D01*
X-16360392Y-10457274D01*
X-16364300Y-10476919D01*
X-16381686Y-10502938D01*
X-16386928Y-10514180D01*
X-16393767Y-10521019D01*
X-16407872Y-10542128D01*
X-16428980Y-10556232D01*
X-16435819Y-10563071D01*
X-16447058Y-10568312D01*
X-16473081Y-10585700D01*
X-16492727Y-10589607D01*
X-16501012Y-10593471D01*
X-16533946Y-10597806D01*
X-16550000Y-10601000D01*
X-17800000Y-10601000D01*
X-17816054Y-10597806D01*
X-17848987Y-10593471D01*
X-17857270Y-10589608D01*
X-17876919Y-10585700D01*
X-17902943Y-10568310D01*
X-17914180Y-10563071D01*
X-17921016Y-10556234D01*
X-17942128Y-10542128D01*
X-17956234Y-10521016D01*
X-17963071Y-10514180D01*
X-17968310Y-10502943D01*
X-17985700Y-10476919D01*
X-17989608Y-10457270D01*
X-17993471Y-10448987D01*
X-17997806Y-10416054D01*
X-18001000Y-10400000D01*
X-18001000Y-10100000D01*
X-17997806Y-10083946D01*
X-17993471Y-10051012D01*
X-17989607Y-10042727D01*
X-17985700Y-10023081D01*
X-17968312Y-9997058D01*
X-17963071Y-9985819D01*
X-17956232Y-9978980D01*
X-17942128Y-9957872D01*
X-17921019Y-9943767D01*
X-17914180Y-9936928D01*
X-17902938Y-9931686D01*
X-17876919Y-9914300D01*
X-17857274Y-9910392D01*
X-17848987Y-9906528D01*
X-17816040Y-9902190D01*
X-17800000Y-9899000D01*
X-16550000Y-9899000D01*
X-16533961Y-9902190D01*
G37*
G36*
X-11362382Y-8241115D02*
G01*
X-11282671Y-8248359D01*
X-11270507Y-8252149D01*
X-11249543Y-8254667D01*
X-11201008Y-8273806D01*
X-11154240Y-8288380D01*
X-11135831Y-8299508D01*
X-11109949Y-8309715D01*
X-11074580Y-8336535D01*
X-11040755Y-8356984D01*
X-11019228Y-8378510D01*
X-10990384Y-8400384D01*
X-10968510Y-8429228D01*
X-10946984Y-8450755D01*
X-10926535Y-8484580D01*
X-10899715Y-8519949D01*
X-10889508Y-8545831D01*
X-10878380Y-8564240D01*
X-10863806Y-8611008D01*
X-10844667Y-8659543D01*
X-10842149Y-8680507D01*
X-10838359Y-8692671D01*
X-10831115Y-8772382D01*
X-10829000Y-8790000D01*
X-10829000Y-9790000D01*
X-10831116Y-9807620D01*
X-10838359Y-9887328D01*
X-10842149Y-9899490D01*
X-10844667Y-9920457D01*
X-10863807Y-9968994D01*
X-10878380Y-10015759D01*
X-10889507Y-10034166D01*
X-10899715Y-10060051D01*
X-10926538Y-10095423D01*
X-10946984Y-10129244D01*
X-10968507Y-10150767D01*
X-10990384Y-10179616D01*
X-11019232Y-10201492D01*
X-11040755Y-10223015D01*
X-11074573Y-10243459D01*
X-11109949Y-10270285D01*
X-11135835Y-10280493D01*
X-11154240Y-10291619D01*
X-11200996Y-10306189D01*
X-11249543Y-10325333D01*
X-11270512Y-10327851D01*
X-11282671Y-10331640D01*
X-11362348Y-10338880D01*
X-11380000Y-10341000D01*
X-13880000Y-10341000D01*
X-13897654Y-10338879D01*
X-13977328Y-10331640D01*
X-13989485Y-10327851D01*
X-14010457Y-10325333D01*
X-14059007Y-10306187D01*
X-14105759Y-10291619D01*
X-14124161Y-10280494D01*
X-14150051Y-10270285D01*
X-14185430Y-10243456D01*
X-14219244Y-10223015D01*
X-14240763Y-10201495D01*
X-14269616Y-10179616D01*
X-14291495Y-10150763D01*
X-14313015Y-10129244D01*
X-14333456Y-10095430D01*
X-14360285Y-10060051D01*
X-14370494Y-10034161D01*
X-14381619Y-10015759D01*
X-14396187Y-9969007D01*
X-14415333Y-9920457D01*
X-14417851Y-9899485D01*
X-14421640Y-9887328D01*
X-14428879Y-9807654D01*
X-14431000Y-9790000D01*
X-14431000Y-8790000D01*
X-14428880Y-8772348D01*
X-14421640Y-8692671D01*
X-14417851Y-8680512D01*
X-14415333Y-8659543D01*
X-14396189Y-8610996D01*
X-14381619Y-8564240D01*
X-14370493Y-8545835D01*
X-14360285Y-8519949D01*
X-14333459Y-8484573D01*
X-14313015Y-8450755D01*
X-14291492Y-8429232D01*
X-14269616Y-8400384D01*
X-14240767Y-8378507D01*
X-14219244Y-8356984D01*
X-14185423Y-8336538D01*
X-14150051Y-8309715D01*
X-14124166Y-8299507D01*
X-14105759Y-8288380D01*
X-14058994Y-8273807D01*
X-14010457Y-8254667D01*
X-13989490Y-8252149D01*
X-13977328Y-8248359D01*
X-13897620Y-8241116D01*
X-13880000Y-8239000D01*
X-11380000Y-8239000D01*
X-11362382Y-8241115D01*
G37*
G36*
X3877620Y-8241116D02*
G01*
X3957328Y-8248359D01*
X3969490Y-8252149D01*
X3990457Y-8254667D01*
X4038994Y-8273807D01*
X4085759Y-8288380D01*
X4104166Y-8299507D01*
X4130051Y-8309715D01*
X4165423Y-8336538D01*
X4199244Y-8356984D01*
X4220767Y-8378507D01*
X4249616Y-8400384D01*
X4271492Y-8429232D01*
X4293015Y-8450755D01*
X4313459Y-8484573D01*
X4340285Y-8519949D01*
X4350493Y-8545835D01*
X4361619Y-8564240D01*
X4376189Y-8610996D01*
X4395333Y-8659543D01*
X4397851Y-8680512D01*
X4401640Y-8692671D01*
X4408880Y-8772348D01*
X4411000Y-8790000D01*
X4411000Y-9790000D01*
X4408879Y-9807654D01*
X4401640Y-9887328D01*
X4397851Y-9899485D01*
X4395333Y-9920457D01*
X4376187Y-9969007D01*
X4361619Y-10015759D01*
X4350494Y-10034161D01*
X4340285Y-10060051D01*
X4313456Y-10095430D01*
X4293015Y-10129244D01*
X4271495Y-10150763D01*
X4249616Y-10179616D01*
X4220763Y-10201495D01*
X4199244Y-10223015D01*
X4165430Y-10243456D01*
X4130051Y-10270285D01*
X4104161Y-10280494D01*
X4085759Y-10291619D01*
X4039007Y-10306187D01*
X3990457Y-10325333D01*
X3969485Y-10327851D01*
X3957328Y-10331640D01*
X3877654Y-10338879D01*
X3860000Y-10341000D01*
X1360000Y-10341000D01*
X1342348Y-10338880D01*
X1262671Y-10331640D01*
X1250512Y-10327851D01*
X1229543Y-10325333D01*
X1180996Y-10306189D01*
X1134240Y-10291619D01*
X1115835Y-10280493D01*
X1089949Y-10270285D01*
X1054573Y-10243459D01*
X1020755Y-10223015D01*
X999232Y-10201492D01*
X970384Y-10179616D01*
X948507Y-10150767D01*
X926984Y-10129244D01*
X906538Y-10095423D01*
X879715Y-10060051D01*
X869507Y-10034166D01*
X858380Y-10015759D01*
X843807Y-9968994D01*
X824667Y-9920457D01*
X822149Y-9899490D01*
X818359Y-9887328D01*
X811116Y-9807620D01*
X809000Y-9790000D01*
X809000Y-8790000D01*
X811115Y-8772382D01*
X818359Y-8692671D01*
X822149Y-8680507D01*
X824667Y-8659543D01*
X843806Y-8611008D01*
X858380Y-8564240D01*
X869508Y-8545831D01*
X879715Y-8519949D01*
X906535Y-8484580D01*
X926984Y-8450755D01*
X948510Y-8429228D01*
X970384Y-8400384D01*
X999228Y-8378510D01*
X1020755Y-8356984D01*
X1054580Y-8336535D01*
X1089949Y-8309715D01*
X1115831Y-8299508D01*
X1134240Y-8288380D01*
X1181008Y-8273806D01*
X1229543Y-8254667D01*
X1250507Y-8252149D01*
X1262671Y-8248359D01*
X1342382Y-8241115D01*
X1360000Y-8239000D01*
X3860000Y-8239000D01*
X3877620Y-8241116D01*
G37*
G36*
X-16533961Y-8902190D02*
G01*
X-16501012Y-8906528D01*
X-16492723Y-8910392D01*
X-16473081Y-8914300D01*
X-16447063Y-8931684D01*
X-16435819Y-8936928D01*
X-16428977Y-8943769D01*
X-16407872Y-8957872D01*
X-16393769Y-8978977D01*
X-16386928Y-8985819D01*
X-16381684Y-8997063D01*
X-16364300Y-9023081D01*
X-16360392Y-9042723D01*
X-16356528Y-9051012D01*
X-16352190Y-9083961D01*
X-16349000Y-9100000D01*
X-16349000Y-9400000D01*
X-16352190Y-9416040D01*
X-16356528Y-9448987D01*
X-16360392Y-9457274D01*
X-16364300Y-9476919D01*
X-16381686Y-9502938D01*
X-16386928Y-9514180D01*
X-16393767Y-9521019D01*
X-16407872Y-9542128D01*
X-16428980Y-9556232D01*
X-16435819Y-9563071D01*
X-16447058Y-9568312D01*
X-16473081Y-9585700D01*
X-16492727Y-9589607D01*
X-16501012Y-9593471D01*
X-16533946Y-9597806D01*
X-16550000Y-9601000D01*
X-17800000Y-9601000D01*
X-17816054Y-9597806D01*
X-17848987Y-9593471D01*
X-17857270Y-9589608D01*
X-17876919Y-9585700D01*
X-17902943Y-9568310D01*
X-17914180Y-9563071D01*
X-17921016Y-9556234D01*
X-17942128Y-9542128D01*
X-17956234Y-9521016D01*
X-17963071Y-9514180D01*
X-17968310Y-9502943D01*
X-17985700Y-9476919D01*
X-17989608Y-9457270D01*
X-17993471Y-9448987D01*
X-17997806Y-9416054D01*
X-18001000Y-9400000D01*
X-18001000Y-9100000D01*
X-17997806Y-9083946D01*
X-17993471Y-9051012D01*
X-17989607Y-9042727D01*
X-17985700Y-9023081D01*
X-17968312Y-8997058D01*
X-17963071Y-8985819D01*
X-17956232Y-8978980D01*
X-17942128Y-8957872D01*
X-17921019Y-8943767D01*
X-17914180Y-8936928D01*
X-17902938Y-8931686D01*
X-17876919Y-8914300D01*
X-17857274Y-8910392D01*
X-17848987Y-8906528D01*
X-17816040Y-8902190D01*
X-17800000Y-8899000D01*
X-16550000Y-8899000D01*
X-16533961Y-8902190D01*
G37*
G36*
X-18981086Y-7306995D02*
G01*
X-18965274Y-7313976D01*
X-18957468Y-7315213D01*
X-18924953Y-7331780D01*
X-18879894Y-7351676D01*
X-18801676Y-7429894D01*
X-18781780Y-7474953D01*
X-18765213Y-7507468D01*
X-18763976Y-7515274D01*
X-18756995Y-7531086D01*
X-18749000Y-7600000D01*
X-18749000Y-8300000D01*
X-18756995Y-8368914D01*
X-18763976Y-8384726D01*
X-18765213Y-8392531D01*
X-18781776Y-8425039D01*
X-18801676Y-8470106D01*
X-18879894Y-8548324D01*
X-18924967Y-8568226D01*
X-18957468Y-8584786D01*
X-18965270Y-8586021D01*
X-18981086Y-8593005D01*
X-19050000Y-8601000D01*
X-20350000Y-8601000D01*
X-20418914Y-8593005D01*
X-20434729Y-8586021D01*
X-20442531Y-8584786D01*
X-20475024Y-8568229D01*
X-20520106Y-8548324D01*
X-20598324Y-8470106D01*
X-20618229Y-8425024D01*
X-20634786Y-8392531D01*
X-20636021Y-8384729D01*
X-20643005Y-8368914D01*
X-20651000Y-8300000D01*
X-20651000Y-7600000D01*
X-20643005Y-7531086D01*
X-20636021Y-7515270D01*
X-20634786Y-7507468D01*
X-20618226Y-7474967D01*
X-20598324Y-7429894D01*
X-20520106Y-7351676D01*
X-20475039Y-7331776D01*
X-20442531Y-7315213D01*
X-20434726Y-7313976D01*
X-20418914Y-7306995D01*
X-20350000Y-7299000D01*
X-19050000Y-7299000D01*
X-18981086Y-7306995D01*
G37*
G36*
X16527439Y-7433929D02*
G01*
X16556305Y-7433929D01*
X16589403Y-7442086D01*
X16632609Y-7447775D01*
X16662182Y-7460024D01*
X16685063Y-7465664D01*
X16719752Y-7483870D01*
X16765500Y-7502820D01*
X16786374Y-7518837D01*
X16802483Y-7527292D01*
X16835420Y-7556471D01*
X16879616Y-7590384D01*
X16892174Y-7606751D01*
X16901740Y-7615225D01*
X16929166Y-7654960D01*
X16967180Y-7704500D01*
X16972910Y-7718334D01*
X16977073Y-7724365D01*
X16995132Y-7771984D01*
X17022225Y-7837391D01*
X17023440Y-7846625D01*
X17024097Y-7848356D01*
X17029179Y-7890212D01*
X17041000Y-7980000D01*
X17029178Y-8069795D01*
X17024097Y-8111643D01*
X17023440Y-8113372D01*
X17022225Y-8122609D01*
X16995128Y-8188026D01*
X16977073Y-8235634D01*
X16972911Y-8241663D01*
X16967180Y-8255500D01*
X16929160Y-8305048D01*
X16901740Y-8344774D01*
X16892177Y-8353245D01*
X16879616Y-8369616D01*
X16835411Y-8403534D01*
X16802483Y-8432707D01*
X16786378Y-8441159D01*
X16765500Y-8457180D01*
X16719743Y-8476132D01*
X16685063Y-8494335D01*
X16662187Y-8499973D01*
X16632609Y-8512225D01*
X16589401Y-8517913D01*
X16556305Y-8526071D01*
X16527439Y-8526071D01*
X16490000Y-8531000D01*
X16452561Y-8526071D01*
X16423695Y-8526071D01*
X16390597Y-8517913D01*
X16347391Y-8512225D01*
X16317814Y-8499973D01*
X16294936Y-8494335D01*
X16260251Y-8476130D01*
X16214500Y-8457180D01*
X16193623Y-8441161D01*
X16177516Y-8432707D01*
X16144580Y-8403529D01*
X16100384Y-8369616D01*
X16087824Y-8353248D01*
X16078259Y-8344774D01*
X16050830Y-8305035D01*
X16012820Y-8255500D01*
X16007090Y-8241666D01*
X16002926Y-8235634D01*
X15984859Y-8187998D01*
X15957775Y-8122609D01*
X15956559Y-8113376D01*
X15955902Y-8111643D01*
X15950809Y-8069697D01*
X15939000Y-7980000D01*
X15950807Y-7890310D01*
X15955902Y-7848356D01*
X15956559Y-7846621D01*
X15957775Y-7837391D01*
X15984855Y-7772012D01*
X16002926Y-7724365D01*
X16007091Y-7718330D01*
X16012820Y-7704500D01*
X16050823Y-7654973D01*
X16078259Y-7615225D01*
X16087827Y-7606748D01*
X16100384Y-7590384D01*
X16144572Y-7556477D01*
X16177516Y-7527292D01*
X16193627Y-7518835D01*
X16214500Y-7502820D01*
X16260242Y-7483872D01*
X16294936Y-7465664D01*
X16317818Y-7460024D01*
X16347391Y-7447775D01*
X16390595Y-7442086D01*
X16423695Y-7433929D01*
X16452561Y-7433929D01*
X16490000Y-7429000D01*
X16527439Y-7433929D01*
G37*
G36*
X6809517Y-6782882D02*
G01*
X6826062Y-6793938D01*
X6837118Y-6810483D01*
X6841000Y-6830000D01*
X6841000Y-7530000D01*
X6837118Y-7549517D01*
X6826062Y-7566062D01*
X6809517Y-7577118D01*
X6790000Y-7581000D01*
X4790000Y-7581000D01*
X4770483Y-7577118D01*
X4753938Y-7566062D01*
X4742882Y-7549517D01*
X4739000Y-7530000D01*
X4739000Y-6830000D01*
X4742882Y-6810483D01*
X4753938Y-6793938D01*
X4770483Y-6782882D01*
X4790000Y-6779000D01*
X6790000Y-6779000D01*
X6809517Y-6782882D01*
G37*
G36*
X-17769062Y-3164017D02*
G01*
X-17723077Y-3164017D01*
X-17671860Y-3173590D01*
X-17614960Y-3179195D01*
X-17571739Y-3192305D01*
X-17532525Y-3199636D01*
X-17478209Y-3220677D01*
X-17417800Y-3239003D01*
X-17383282Y-3257452D01*
X-17351767Y-3269662D01*
X-17297015Y-3303563D01*
X-17236096Y-3336125D01*
X-17210496Y-3357134D01*
X-17186951Y-3371713D01*
X-17134777Y-3419275D01*
X-17076831Y-3466831D01*
X-17059660Y-3487753D01*
X-17043698Y-3502305D01*
X-16997357Y-3563668D01*
X-16946125Y-3626096D01*
X-16936218Y-3644629D01*
X-16926877Y-3657000D01*
X-16889710Y-3731641D01*
X-16849003Y-3807800D01*
X-16844661Y-3822112D01*
X-16840471Y-3830528D01*
X-16815716Y-3917529D01*
X-16789195Y-4004960D01*
X-16788323Y-4013805D01*
X-16787422Y-4016975D01*
X-16778051Y-4118104D01*
X-16769000Y-4210000D01*
X-16769000Y-5710000D01*
X-16778052Y-5801911D01*
X-16787422Y-5903024D01*
X-16788323Y-5906192D01*
X-16789195Y-5915040D01*
X-16815721Y-6002485D01*
X-16840471Y-6089471D01*
X-16844660Y-6097884D01*
X-16849003Y-6112200D01*
X-16889717Y-6188372D01*
X-16926877Y-6262999D01*
X-16936216Y-6275366D01*
X-16946125Y-6293904D01*
X-16997367Y-6356342D01*
X-17043698Y-6417694D01*
X-17059656Y-6432242D01*
X-17076831Y-6453169D01*
X-17134788Y-6500733D01*
X-17186951Y-6548286D01*
X-17210491Y-6562861D01*
X-17236096Y-6583875D01*
X-17297027Y-6616443D01*
X-17351767Y-6650337D01*
X-17383275Y-6662543D01*
X-17417800Y-6680997D01*
X-17478221Y-6699325D01*
X-17532525Y-6720363D01*
X-17571732Y-6727692D01*
X-17614960Y-6740805D01*
X-17671863Y-6746409D01*
X-17723077Y-6755983D01*
X-17769062Y-6755983D01*
X-17820000Y-6761000D01*
X-17870938Y-6755983D01*
X-17916923Y-6755983D01*
X-17968136Y-6746409D01*
X-18025040Y-6740805D01*
X-18068268Y-6727691D01*
X-18107474Y-6720363D01*
X-18161773Y-6699327D01*
X-18222200Y-6680997D01*
X-18256726Y-6662542D01*
X-18288232Y-6650337D01*
X-18342965Y-6616447D01*
X-18403904Y-6583875D01*
X-18429511Y-6562859D01*
X-18453048Y-6548286D01*
X-18505201Y-6500741D01*
X-18563169Y-6453169D01*
X-18580345Y-6432238D01*
X-18596301Y-6417694D01*
X-18642620Y-6356357D01*
X-18693875Y-6293904D01*
X-18703785Y-6275362D01*
X-18713122Y-6262999D01*
X-18750267Y-6188399D01*
X-18790997Y-6112200D01*
X-18795341Y-6097879D01*
X-18799528Y-6089471D01*
X-18824262Y-6002538D01*
X-18850805Y-5915040D01*
X-18851676Y-5906187D01*
X-18852577Y-5903024D01*
X-18861939Y-5801996D01*
X-18871000Y-5710000D01*
X-18871000Y-4210000D01*
X-18861940Y-4118019D01*
X-18852577Y-4016975D01*
X-18851676Y-4013811D01*
X-18850805Y-4004960D01*
X-18824267Y-3917476D01*
X-18799528Y-3830528D01*
X-18795340Y-3822117D01*
X-18790997Y-3807800D01*
X-18750274Y-3731613D01*
X-18713122Y-3657000D01*
X-18703783Y-3644634D01*
X-18693875Y-3626096D01*
X-18642629Y-3563653D01*
X-18596301Y-3502305D01*
X-18580342Y-3487757D01*
X-18563169Y-3466831D01*
X-18505212Y-3419267D01*
X-18453048Y-3371713D01*
X-18429506Y-3357136D01*
X-18403904Y-3336125D01*
X-18342977Y-3303559D01*
X-18288232Y-3269662D01*
X-18256720Y-3257454D01*
X-18222200Y-3239003D01*
X-18161785Y-3220676D01*
X-18107474Y-3199636D01*
X-18068261Y-3192306D01*
X-18025040Y-3179195D01*
X-17968139Y-3173590D01*
X-17916923Y-3164017D01*
X-17870938Y-3164017D01*
X-17820000Y-3159000D01*
X-17769062Y-3164017D01*
G37*
G36*
X-15229062Y-3164017D02*
G01*
X-15183077Y-3164017D01*
X-15131860Y-3173590D01*
X-15074960Y-3179195D01*
X-15031739Y-3192305D01*
X-14992525Y-3199636D01*
X-14938209Y-3220677D01*
X-14877800Y-3239003D01*
X-14843282Y-3257452D01*
X-14811767Y-3269662D01*
X-14757015Y-3303563D01*
X-14696096Y-3336125D01*
X-14670496Y-3357134D01*
X-14646951Y-3371713D01*
X-14594777Y-3419275D01*
X-14536831Y-3466831D01*
X-14519660Y-3487753D01*
X-14503698Y-3502305D01*
X-14457357Y-3563668D01*
X-14406125Y-3626096D01*
X-14396218Y-3644629D01*
X-14386877Y-3657000D01*
X-14349710Y-3731641D01*
X-14309003Y-3807800D01*
X-14304661Y-3822112D01*
X-14300471Y-3830528D01*
X-14275716Y-3917529D01*
X-14249195Y-4004960D01*
X-14248323Y-4013805D01*
X-14247422Y-4016975D01*
X-14238051Y-4118104D01*
X-14229000Y-4210000D01*
X-14229000Y-5710000D01*
X-14238052Y-5801911D01*
X-14247422Y-5903024D01*
X-14248323Y-5906192D01*
X-14249195Y-5915040D01*
X-14275721Y-6002485D01*
X-14300471Y-6089471D01*
X-14304660Y-6097884D01*
X-14309003Y-6112200D01*
X-14349717Y-6188372D01*
X-14386877Y-6262999D01*
X-14396216Y-6275366D01*
X-14406125Y-6293904D01*
X-14457367Y-6356342D01*
X-14503698Y-6417694D01*
X-14519656Y-6432242D01*
X-14536831Y-6453169D01*
X-14594788Y-6500733D01*
X-14646951Y-6548286D01*
X-14670491Y-6562861D01*
X-14696096Y-6583875D01*
X-14757027Y-6616443D01*
X-14811767Y-6650337D01*
X-14843275Y-6662543D01*
X-14877800Y-6680997D01*
X-14938221Y-6699325D01*
X-14992525Y-6720363D01*
X-15031732Y-6727692D01*
X-15074960Y-6740805D01*
X-15131863Y-6746409D01*
X-15183077Y-6755983D01*
X-15229062Y-6755983D01*
X-15280000Y-6761000D01*
X-15330938Y-6755983D01*
X-15376923Y-6755983D01*
X-15428136Y-6746409D01*
X-15485040Y-6740805D01*
X-15528268Y-6727691D01*
X-15567474Y-6720363D01*
X-15621773Y-6699327D01*
X-15682200Y-6680997D01*
X-15716726Y-6662542D01*
X-15748232Y-6650337D01*
X-15802965Y-6616447D01*
X-15863904Y-6583875D01*
X-15889511Y-6562859D01*
X-15913048Y-6548286D01*
X-15965201Y-6500741D01*
X-16023169Y-6453169D01*
X-16040345Y-6432238D01*
X-16056301Y-6417694D01*
X-16102620Y-6356357D01*
X-16153875Y-6293904D01*
X-16163785Y-6275362D01*
X-16173122Y-6262999D01*
X-16210267Y-6188399D01*
X-16250997Y-6112200D01*
X-16255341Y-6097879D01*
X-16259528Y-6089471D01*
X-16284262Y-6002538D01*
X-16310805Y-5915040D01*
X-16311676Y-5906187D01*
X-16312577Y-5903024D01*
X-16321939Y-5801996D01*
X-16331000Y-5710000D01*
X-16331000Y-4210000D01*
X-16321940Y-4118019D01*
X-16312577Y-4016975D01*
X-16311676Y-4013811D01*
X-16310805Y-4004960D01*
X-16284267Y-3917476D01*
X-16259528Y-3830528D01*
X-16255340Y-3822117D01*
X-16250997Y-3807800D01*
X-16210274Y-3731613D01*
X-16173122Y-3657000D01*
X-16163783Y-3644634D01*
X-16153875Y-3626096D01*
X-16102629Y-3563653D01*
X-16056301Y-3502305D01*
X-16040342Y-3487757D01*
X-16023169Y-3466831D01*
X-15965212Y-3419267D01*
X-15913048Y-3371713D01*
X-15889506Y-3357136D01*
X-15863904Y-3336125D01*
X-15802977Y-3303559D01*
X-15748232Y-3269662D01*
X-15716720Y-3257454D01*
X-15682200Y-3239003D01*
X-15621785Y-3220676D01*
X-15567474Y-3199636D01*
X-15528261Y-3192306D01*
X-15485040Y-3179195D01*
X-15428139Y-3173590D01*
X-15376923Y-3164017D01*
X-15330938Y-3164017D01*
X-15280000Y-3159000D01*
X-15229062Y-3164017D01*
G37*
G36*
X-12689062Y-3164017D02*
G01*
X-12643077Y-3164017D01*
X-12591860Y-3173590D01*
X-12534960Y-3179195D01*
X-12491739Y-3192305D01*
X-12452525Y-3199636D01*
X-12398209Y-3220677D01*
X-12337800Y-3239003D01*
X-12303282Y-3257452D01*
X-12271767Y-3269662D01*
X-12217015Y-3303563D01*
X-12156096Y-3336125D01*
X-12130496Y-3357134D01*
X-12106951Y-3371713D01*
X-12054777Y-3419275D01*
X-11996831Y-3466831D01*
X-11979660Y-3487753D01*
X-11963698Y-3502305D01*
X-11917357Y-3563668D01*
X-11866125Y-3626096D01*
X-11856218Y-3644629D01*
X-11846877Y-3657000D01*
X-11809710Y-3731641D01*
X-11769003Y-3807800D01*
X-11764661Y-3822112D01*
X-11760471Y-3830528D01*
X-11735716Y-3917529D01*
X-11709195Y-4004960D01*
X-11708323Y-4013805D01*
X-11707422Y-4016975D01*
X-11698051Y-4118104D01*
X-11689000Y-4210000D01*
X-11689000Y-5710000D01*
X-11698052Y-5801911D01*
X-11707422Y-5903024D01*
X-11708323Y-5906192D01*
X-11709195Y-5915040D01*
X-11735721Y-6002485D01*
X-11760471Y-6089471D01*
X-11764660Y-6097884D01*
X-11769003Y-6112200D01*
X-11809717Y-6188372D01*
X-11846877Y-6262999D01*
X-11856216Y-6275366D01*
X-11866125Y-6293904D01*
X-11917367Y-6356342D01*
X-11963698Y-6417694D01*
X-11979656Y-6432242D01*
X-11996831Y-6453169D01*
X-12054788Y-6500733D01*
X-12106951Y-6548286D01*
X-12130491Y-6562861D01*
X-12156096Y-6583875D01*
X-12217027Y-6616443D01*
X-12271767Y-6650337D01*
X-12303275Y-6662543D01*
X-12337800Y-6680997D01*
X-12398221Y-6699325D01*
X-12452525Y-6720363D01*
X-12491732Y-6727692D01*
X-12534960Y-6740805D01*
X-12591863Y-6746409D01*
X-12643077Y-6755983D01*
X-12689062Y-6755983D01*
X-12740000Y-6761000D01*
X-12790938Y-6755983D01*
X-12836923Y-6755983D01*
X-12888136Y-6746409D01*
X-12945040Y-6740805D01*
X-12988268Y-6727691D01*
X-13027474Y-6720363D01*
X-13081773Y-6699327D01*
X-13142200Y-6680997D01*
X-13176726Y-6662542D01*
X-13208232Y-6650337D01*
X-13262965Y-6616447D01*
X-13323904Y-6583875D01*
X-13349511Y-6562859D01*
X-13373048Y-6548286D01*
X-13425201Y-6500741D01*
X-13483169Y-6453169D01*
X-13500345Y-6432238D01*
X-13516301Y-6417694D01*
X-13562620Y-6356357D01*
X-13613875Y-6293904D01*
X-13623785Y-6275362D01*
X-13633122Y-6262999D01*
X-13670267Y-6188399D01*
X-13710997Y-6112200D01*
X-13715341Y-6097879D01*
X-13719528Y-6089471D01*
X-13744262Y-6002538D01*
X-13770805Y-5915040D01*
X-13771676Y-5906187D01*
X-13772577Y-5903024D01*
X-13781939Y-5801996D01*
X-13791000Y-5710000D01*
X-13791000Y-4210000D01*
X-13781940Y-4118019D01*
X-13772577Y-4016975D01*
X-13771676Y-4013811D01*
X-13770805Y-4004960D01*
X-13744267Y-3917476D01*
X-13719528Y-3830528D01*
X-13715340Y-3822117D01*
X-13710997Y-3807800D01*
X-13670274Y-3731613D01*
X-13633122Y-3657000D01*
X-13623783Y-3644634D01*
X-13613875Y-3626096D01*
X-13562629Y-3563653D01*
X-13516301Y-3502305D01*
X-13500342Y-3487757D01*
X-13483169Y-3466831D01*
X-13425212Y-3419267D01*
X-13373048Y-3371713D01*
X-13349506Y-3357136D01*
X-13323904Y-3336125D01*
X-13262977Y-3303559D01*
X-13208232Y-3269662D01*
X-13176720Y-3257454D01*
X-13142200Y-3239003D01*
X-13081785Y-3220676D01*
X-13027474Y-3199636D01*
X-12988261Y-3192306D01*
X-12945040Y-3179195D01*
X-12888139Y-3173590D01*
X-12836923Y-3164017D01*
X-12790938Y-3164017D01*
X-12740000Y-3159000D01*
X-12689062Y-3164017D01*
G37*
G36*
X-10149062Y-3164017D02*
G01*
X-10103077Y-3164017D01*
X-10051860Y-3173590D01*
X-9994960Y-3179195D01*
X-9951739Y-3192305D01*
X-9912525Y-3199636D01*
X-9858209Y-3220677D01*
X-9797800Y-3239003D01*
X-9763282Y-3257452D01*
X-9731767Y-3269662D01*
X-9677015Y-3303563D01*
X-9616096Y-3336125D01*
X-9590496Y-3357134D01*
X-9566951Y-3371713D01*
X-9514777Y-3419275D01*
X-9456831Y-3466831D01*
X-9439660Y-3487753D01*
X-9423698Y-3502305D01*
X-9377357Y-3563668D01*
X-9326125Y-3626096D01*
X-9316218Y-3644629D01*
X-9306877Y-3657000D01*
X-9269710Y-3731641D01*
X-9229003Y-3807800D01*
X-9224661Y-3822112D01*
X-9220471Y-3830528D01*
X-9195716Y-3917529D01*
X-9169195Y-4004960D01*
X-9168323Y-4013805D01*
X-9167422Y-4016975D01*
X-9158051Y-4118104D01*
X-9149000Y-4210000D01*
X-9149000Y-5710000D01*
X-9158052Y-5801911D01*
X-9167422Y-5903024D01*
X-9168323Y-5906192D01*
X-9169195Y-5915040D01*
X-9195721Y-6002485D01*
X-9220471Y-6089471D01*
X-9224660Y-6097884D01*
X-9229003Y-6112200D01*
X-9269717Y-6188372D01*
X-9306877Y-6262999D01*
X-9316216Y-6275366D01*
X-9326125Y-6293904D01*
X-9377367Y-6356342D01*
X-9423698Y-6417694D01*
X-9439656Y-6432242D01*
X-9456831Y-6453169D01*
X-9514788Y-6500733D01*
X-9566951Y-6548286D01*
X-9590491Y-6562861D01*
X-9616096Y-6583875D01*
X-9677027Y-6616443D01*
X-9731767Y-6650337D01*
X-9763275Y-6662543D01*
X-9797800Y-6680997D01*
X-9858221Y-6699325D01*
X-9912525Y-6720363D01*
X-9951732Y-6727692D01*
X-9994960Y-6740805D01*
X-10051863Y-6746409D01*
X-10103077Y-6755983D01*
X-10149062Y-6755983D01*
X-10200000Y-6761000D01*
X-10250938Y-6755983D01*
X-10296923Y-6755983D01*
X-10348136Y-6746409D01*
X-10405040Y-6740805D01*
X-10448268Y-6727691D01*
X-10487474Y-6720363D01*
X-10541773Y-6699327D01*
X-10602200Y-6680997D01*
X-10636726Y-6662542D01*
X-10668232Y-6650337D01*
X-10722965Y-6616447D01*
X-10783904Y-6583875D01*
X-10809511Y-6562859D01*
X-10833048Y-6548286D01*
X-10885201Y-6500741D01*
X-10943169Y-6453169D01*
X-10960345Y-6432238D01*
X-10976301Y-6417694D01*
X-11022620Y-6356357D01*
X-11073875Y-6293904D01*
X-11083785Y-6275362D01*
X-11093122Y-6262999D01*
X-11130267Y-6188399D01*
X-11170997Y-6112200D01*
X-11175341Y-6097879D01*
X-11179528Y-6089471D01*
X-11204262Y-6002538D01*
X-11230805Y-5915040D01*
X-11231676Y-5906187D01*
X-11232577Y-5903024D01*
X-11241939Y-5801996D01*
X-11251000Y-5710000D01*
X-11251000Y-4210000D01*
X-11241940Y-4118019D01*
X-11232577Y-4016975D01*
X-11231676Y-4013811D01*
X-11230805Y-4004960D01*
X-11204267Y-3917476D01*
X-11179528Y-3830528D01*
X-11175340Y-3822117D01*
X-11170997Y-3807800D01*
X-11130274Y-3731613D01*
X-11093122Y-3657000D01*
X-11083783Y-3644634D01*
X-11073875Y-3626096D01*
X-11022629Y-3563653D01*
X-10976301Y-3502305D01*
X-10960342Y-3487757D01*
X-10943169Y-3466831D01*
X-10885212Y-3419267D01*
X-10833048Y-3371713D01*
X-10809506Y-3357136D01*
X-10783904Y-3336125D01*
X-10722977Y-3303559D01*
X-10668232Y-3269662D01*
X-10636720Y-3257454D01*
X-10602200Y-3239003D01*
X-10541785Y-3220676D01*
X-10487474Y-3199636D01*
X-10448261Y-3192306D01*
X-10405040Y-3179195D01*
X-10348139Y-3173590D01*
X-10296923Y-3164017D01*
X-10250938Y-3164017D01*
X-10200000Y-3159000D01*
X-10149062Y-3164017D01*
G37*
G36*
X-7609062Y-3164017D02*
G01*
X-7563077Y-3164017D01*
X-7511860Y-3173590D01*
X-7454960Y-3179195D01*
X-7411739Y-3192305D01*
X-7372525Y-3199636D01*
X-7318209Y-3220677D01*
X-7257800Y-3239003D01*
X-7223282Y-3257452D01*
X-7191767Y-3269662D01*
X-7137015Y-3303563D01*
X-7076096Y-3336125D01*
X-7050496Y-3357134D01*
X-7026951Y-3371713D01*
X-6974777Y-3419275D01*
X-6916831Y-3466831D01*
X-6899660Y-3487753D01*
X-6883698Y-3502305D01*
X-6837357Y-3563668D01*
X-6786125Y-3626096D01*
X-6776218Y-3644629D01*
X-6766877Y-3657000D01*
X-6729710Y-3731641D01*
X-6689003Y-3807800D01*
X-6684661Y-3822112D01*
X-6680471Y-3830528D01*
X-6655716Y-3917529D01*
X-6629195Y-4004960D01*
X-6628323Y-4013805D01*
X-6627422Y-4016975D01*
X-6618051Y-4118104D01*
X-6609000Y-4210000D01*
X-6609000Y-5710000D01*
X-6618052Y-5801911D01*
X-6627422Y-5903024D01*
X-6628323Y-5906192D01*
X-6629195Y-5915040D01*
X-6655721Y-6002485D01*
X-6680471Y-6089471D01*
X-6684660Y-6097884D01*
X-6689003Y-6112200D01*
X-6729717Y-6188372D01*
X-6766877Y-6262999D01*
X-6776216Y-6275366D01*
X-6786125Y-6293904D01*
X-6837367Y-6356342D01*
X-6883698Y-6417694D01*
X-6899656Y-6432242D01*
X-6916831Y-6453169D01*
X-6974788Y-6500733D01*
X-7026951Y-6548286D01*
X-7050491Y-6562861D01*
X-7076096Y-6583875D01*
X-7137027Y-6616443D01*
X-7191767Y-6650337D01*
X-7223275Y-6662543D01*
X-7257800Y-6680997D01*
X-7318221Y-6699325D01*
X-7372525Y-6720363D01*
X-7411732Y-6727692D01*
X-7454960Y-6740805D01*
X-7511863Y-6746409D01*
X-7563077Y-6755983D01*
X-7609062Y-6755983D01*
X-7660000Y-6761000D01*
X-7710938Y-6755983D01*
X-7756923Y-6755983D01*
X-7808136Y-6746409D01*
X-7865040Y-6740805D01*
X-7908268Y-6727691D01*
X-7947474Y-6720363D01*
X-8001773Y-6699327D01*
X-8062200Y-6680997D01*
X-8096726Y-6662542D01*
X-8128232Y-6650337D01*
X-8182965Y-6616447D01*
X-8243904Y-6583875D01*
X-8269511Y-6562859D01*
X-8293048Y-6548286D01*
X-8345201Y-6500741D01*
X-8403169Y-6453169D01*
X-8420345Y-6432238D01*
X-8436301Y-6417694D01*
X-8482620Y-6356357D01*
X-8533875Y-6293904D01*
X-8543785Y-6275362D01*
X-8553122Y-6262999D01*
X-8590267Y-6188399D01*
X-8630997Y-6112200D01*
X-8635341Y-6097879D01*
X-8639528Y-6089471D01*
X-8664262Y-6002538D01*
X-8690805Y-5915040D01*
X-8691676Y-5906187D01*
X-8692577Y-5903024D01*
X-8701939Y-5801996D01*
X-8711000Y-5710000D01*
X-8711000Y-4210000D01*
X-8701940Y-4118019D01*
X-8692577Y-4016975D01*
X-8691676Y-4013811D01*
X-8690805Y-4004960D01*
X-8664267Y-3917476D01*
X-8639528Y-3830528D01*
X-8635340Y-3822117D01*
X-8630997Y-3807800D01*
X-8590274Y-3731613D01*
X-8553122Y-3657000D01*
X-8543783Y-3644634D01*
X-8533875Y-3626096D01*
X-8482629Y-3563653D01*
X-8436301Y-3502305D01*
X-8420342Y-3487757D01*
X-8403169Y-3466831D01*
X-8345212Y-3419267D01*
X-8293048Y-3371713D01*
X-8269506Y-3357136D01*
X-8243904Y-3336125D01*
X-8182977Y-3303559D01*
X-8128232Y-3269662D01*
X-8096720Y-3257454D01*
X-8062200Y-3239003D01*
X-8001785Y-3220676D01*
X-7947474Y-3199636D01*
X-7908261Y-3192306D01*
X-7865040Y-3179195D01*
X-7808139Y-3173590D01*
X-7756923Y-3164017D01*
X-7710938Y-3164017D01*
X-7660000Y-3159000D01*
X-7609062Y-3164017D01*
G37*
G36*
X-5069062Y-3164017D02*
G01*
X-5023077Y-3164017D01*
X-4971860Y-3173590D01*
X-4914960Y-3179195D01*
X-4871739Y-3192305D01*
X-4832525Y-3199636D01*
X-4778209Y-3220677D01*
X-4717800Y-3239003D01*
X-4683282Y-3257452D01*
X-4651767Y-3269662D01*
X-4597015Y-3303563D01*
X-4536096Y-3336125D01*
X-4510496Y-3357134D01*
X-4486951Y-3371713D01*
X-4434777Y-3419275D01*
X-4376831Y-3466831D01*
X-4359660Y-3487753D01*
X-4343698Y-3502305D01*
X-4297357Y-3563668D01*
X-4246125Y-3626096D01*
X-4236218Y-3644629D01*
X-4226877Y-3657000D01*
X-4189710Y-3731641D01*
X-4149003Y-3807800D01*
X-4144661Y-3822112D01*
X-4140471Y-3830528D01*
X-4115716Y-3917529D01*
X-4089195Y-4004960D01*
X-4088323Y-4013805D01*
X-4087422Y-4016975D01*
X-4078051Y-4118104D01*
X-4069000Y-4210000D01*
X-4069000Y-5710000D01*
X-4078052Y-5801911D01*
X-4087422Y-5903024D01*
X-4088323Y-5906192D01*
X-4089195Y-5915040D01*
X-4115721Y-6002485D01*
X-4140471Y-6089471D01*
X-4144660Y-6097884D01*
X-4149003Y-6112200D01*
X-4189717Y-6188372D01*
X-4226877Y-6262999D01*
X-4236216Y-6275366D01*
X-4246125Y-6293904D01*
X-4297367Y-6356342D01*
X-4343698Y-6417694D01*
X-4359656Y-6432242D01*
X-4376831Y-6453169D01*
X-4434788Y-6500733D01*
X-4486951Y-6548286D01*
X-4510491Y-6562861D01*
X-4536096Y-6583875D01*
X-4597027Y-6616443D01*
X-4651767Y-6650337D01*
X-4683275Y-6662543D01*
X-4717800Y-6680997D01*
X-4778221Y-6699325D01*
X-4832525Y-6720363D01*
X-4871732Y-6727692D01*
X-4914960Y-6740805D01*
X-4971863Y-6746409D01*
X-5023077Y-6755983D01*
X-5069062Y-6755983D01*
X-5120000Y-6761000D01*
X-5170938Y-6755983D01*
X-5216923Y-6755983D01*
X-5268136Y-6746409D01*
X-5325040Y-6740805D01*
X-5368268Y-6727691D01*
X-5407474Y-6720363D01*
X-5461773Y-6699327D01*
X-5522200Y-6680997D01*
X-5556726Y-6662542D01*
X-5588232Y-6650337D01*
X-5642965Y-6616447D01*
X-5703904Y-6583875D01*
X-5729511Y-6562859D01*
X-5753048Y-6548286D01*
X-5805201Y-6500741D01*
X-5863169Y-6453169D01*
X-5880345Y-6432238D01*
X-5896301Y-6417694D01*
X-5942620Y-6356357D01*
X-5993875Y-6293904D01*
X-6003785Y-6275362D01*
X-6013122Y-6262999D01*
X-6050267Y-6188399D01*
X-6090997Y-6112200D01*
X-6095341Y-6097879D01*
X-6099528Y-6089471D01*
X-6124262Y-6002538D01*
X-6150805Y-5915040D01*
X-6151676Y-5906187D01*
X-6152577Y-5903024D01*
X-6161939Y-5801996D01*
X-6171000Y-5710000D01*
X-6171000Y-4210000D01*
X-6161940Y-4118019D01*
X-6152577Y-4016975D01*
X-6151676Y-4013811D01*
X-6150805Y-4004960D01*
X-6124267Y-3917476D01*
X-6099528Y-3830528D01*
X-6095340Y-3822117D01*
X-6090997Y-3807800D01*
X-6050274Y-3731613D01*
X-6013122Y-3657000D01*
X-6003783Y-3644634D01*
X-5993875Y-3626096D01*
X-5942629Y-3563653D01*
X-5896301Y-3502305D01*
X-5880342Y-3487757D01*
X-5863169Y-3466831D01*
X-5805212Y-3419267D01*
X-5753048Y-3371713D01*
X-5729506Y-3357136D01*
X-5703904Y-3336125D01*
X-5642977Y-3303559D01*
X-5588232Y-3269662D01*
X-5556720Y-3257454D01*
X-5522200Y-3239003D01*
X-5461785Y-3220676D01*
X-5407474Y-3199636D01*
X-5368261Y-3192306D01*
X-5325040Y-3179195D01*
X-5268139Y-3173590D01*
X-5216923Y-3164017D01*
X-5170938Y-3164017D01*
X-5120000Y-3159000D01*
X-5069062Y-3164017D01*
G37*
G36*
X-2529062Y-3164017D02*
G01*
X-2483077Y-3164017D01*
X-2431860Y-3173590D01*
X-2374960Y-3179195D01*
X-2331739Y-3192305D01*
X-2292525Y-3199636D01*
X-2238209Y-3220677D01*
X-2177800Y-3239003D01*
X-2143282Y-3257452D01*
X-2111767Y-3269662D01*
X-2057015Y-3303563D01*
X-1996096Y-3336125D01*
X-1970496Y-3357134D01*
X-1946951Y-3371713D01*
X-1894777Y-3419275D01*
X-1836831Y-3466831D01*
X-1819660Y-3487753D01*
X-1803698Y-3502305D01*
X-1757357Y-3563668D01*
X-1706125Y-3626096D01*
X-1696218Y-3644629D01*
X-1686877Y-3657000D01*
X-1649710Y-3731641D01*
X-1609003Y-3807800D01*
X-1604661Y-3822112D01*
X-1600471Y-3830528D01*
X-1575716Y-3917529D01*
X-1549195Y-4004960D01*
X-1548323Y-4013805D01*
X-1547422Y-4016975D01*
X-1538051Y-4118104D01*
X-1529000Y-4210000D01*
X-1529000Y-5710000D01*
X-1538052Y-5801911D01*
X-1547422Y-5903024D01*
X-1548323Y-5906192D01*
X-1549195Y-5915040D01*
X-1575721Y-6002485D01*
X-1600471Y-6089471D01*
X-1604660Y-6097884D01*
X-1609003Y-6112200D01*
X-1649717Y-6188372D01*
X-1686877Y-6262999D01*
X-1696216Y-6275366D01*
X-1706125Y-6293904D01*
X-1757367Y-6356342D01*
X-1803698Y-6417694D01*
X-1819656Y-6432242D01*
X-1836831Y-6453169D01*
X-1894788Y-6500733D01*
X-1946951Y-6548286D01*
X-1970491Y-6562861D01*
X-1996096Y-6583875D01*
X-2057027Y-6616443D01*
X-2111767Y-6650337D01*
X-2143275Y-6662543D01*
X-2177800Y-6680997D01*
X-2238221Y-6699325D01*
X-2292525Y-6720363D01*
X-2331732Y-6727692D01*
X-2374960Y-6740805D01*
X-2431863Y-6746409D01*
X-2483077Y-6755983D01*
X-2529062Y-6755983D01*
X-2580000Y-6761000D01*
X-2630938Y-6755983D01*
X-2676923Y-6755983D01*
X-2728136Y-6746409D01*
X-2785040Y-6740805D01*
X-2828268Y-6727691D01*
X-2867474Y-6720363D01*
X-2921773Y-6699327D01*
X-2982200Y-6680997D01*
X-3016726Y-6662542D01*
X-3048232Y-6650337D01*
X-3102965Y-6616447D01*
X-3163904Y-6583875D01*
X-3189511Y-6562859D01*
X-3213048Y-6548286D01*
X-3265201Y-6500741D01*
X-3323169Y-6453169D01*
X-3340345Y-6432238D01*
X-3356301Y-6417694D01*
X-3402620Y-6356357D01*
X-3453875Y-6293904D01*
X-3463785Y-6275362D01*
X-3473122Y-6262999D01*
X-3510267Y-6188399D01*
X-3550997Y-6112200D01*
X-3555341Y-6097879D01*
X-3559528Y-6089471D01*
X-3584262Y-6002538D01*
X-3610805Y-5915040D01*
X-3611676Y-5906187D01*
X-3612577Y-5903024D01*
X-3621939Y-5801996D01*
X-3631000Y-5710000D01*
X-3631000Y-4210000D01*
X-3621940Y-4118019D01*
X-3612577Y-4016975D01*
X-3611676Y-4013811D01*
X-3610805Y-4004960D01*
X-3584267Y-3917476D01*
X-3559528Y-3830528D01*
X-3555340Y-3822117D01*
X-3550997Y-3807800D01*
X-3510274Y-3731613D01*
X-3473122Y-3657000D01*
X-3463783Y-3644634D01*
X-3453875Y-3626096D01*
X-3402629Y-3563653D01*
X-3356301Y-3502305D01*
X-3340342Y-3487757D01*
X-3323169Y-3466831D01*
X-3265212Y-3419267D01*
X-3213048Y-3371713D01*
X-3189506Y-3357136D01*
X-3163904Y-3336125D01*
X-3102977Y-3303559D01*
X-3048232Y-3269662D01*
X-3016720Y-3257454D01*
X-2982200Y-3239003D01*
X-2921785Y-3220676D01*
X-2867474Y-3199636D01*
X-2828261Y-3192306D01*
X-2785040Y-3179195D01*
X-2728139Y-3173590D01*
X-2676923Y-3164017D01*
X-2630938Y-3164017D01*
X-2580000Y-3159000D01*
X-2529062Y-3164017D01*
G37*
G36*
X6809517Y-5682882D02*
G01*
X6826062Y-5693938D01*
X6837118Y-5710483D01*
X6841000Y-5730000D01*
X6841000Y-6430000D01*
X6837118Y-6449517D01*
X6826062Y-6466062D01*
X6809517Y-6477118D01*
X6790000Y-6481000D01*
X4790000Y-6481000D01*
X4770483Y-6477118D01*
X4753938Y-6466062D01*
X4742882Y-6449517D01*
X4739000Y-6430000D01*
X4739000Y-5730000D01*
X4742882Y-5710483D01*
X4753938Y-5693938D01*
X4770483Y-5682882D01*
X4790000Y-5679000D01*
X6790000Y-5679000D01*
X6809517Y-5682882D01*
G37*
G36*
X6809517Y-4582882D02*
G01*
X6826062Y-4593938D01*
X6837118Y-4610483D01*
X6841000Y-4630000D01*
X6841000Y-5330000D01*
X6837118Y-5349517D01*
X6826062Y-5366062D01*
X6809517Y-5377118D01*
X6790000Y-5381000D01*
X4790000Y-5381000D01*
X4770483Y-5377118D01*
X4753938Y-5366062D01*
X4742882Y-5349517D01*
X4739000Y-5330000D01*
X4739000Y-4630000D01*
X4742882Y-4610483D01*
X4753938Y-4593938D01*
X4770483Y-4582882D01*
X4790000Y-4579000D01*
X6790000Y-4579000D01*
X6809517Y-4582882D01*
G37*
G36*
X6809517Y-3482882D02*
G01*
X6826062Y-3493938D01*
X6837118Y-3510483D01*
X6841000Y-3530000D01*
X6841000Y-4230000D01*
X6837118Y-4249517D01*
X6826062Y-4266062D01*
X6809517Y-4277118D01*
X6790000Y-4281000D01*
X4790000Y-4281000D01*
X4770483Y-4277118D01*
X4753938Y-4266062D01*
X4742882Y-4249517D01*
X4739000Y-4230000D01*
X4739000Y-3530000D01*
X4742882Y-3510483D01*
X4753938Y-3493938D01*
X4770483Y-3482882D01*
X4790000Y-3479000D01*
X6790000Y-3479000D01*
X6809517Y-3482882D01*
G37*
G36*
X6809517Y-2382882D02*
G01*
X6826062Y-2393938D01*
X6837118Y-2410483D01*
X6841000Y-2430000D01*
X6841000Y-3130000D01*
X6837118Y-3149517D01*
X6826062Y-3166062D01*
X6809517Y-3177118D01*
X6790000Y-3181000D01*
X4790000Y-3181000D01*
X4770483Y-3177118D01*
X4753938Y-3166062D01*
X4742882Y-3149517D01*
X4739000Y-3130000D01*
X4739000Y-2430000D01*
X4742882Y-2410483D01*
X4753938Y-2393938D01*
X4770483Y-2382882D01*
X4790000Y-2379000D01*
X6790000Y-2379000D01*
X6809517Y-2382882D01*
G37*
G36*
X6809517Y-1282882D02*
G01*
X6826062Y-1293938D01*
X6837118Y-1310483D01*
X6841000Y-1330000D01*
X6841000Y-2030000D01*
X6837118Y-2049517D01*
X6826062Y-2066062D01*
X6809517Y-2077118D01*
X6790000Y-2081000D01*
X4790000Y-2081000D01*
X4770483Y-2077118D01*
X4753938Y-2066062D01*
X4742882Y-2049517D01*
X4739000Y-2030000D01*
X4739000Y-1330000D01*
X4742882Y-1310483D01*
X4753938Y-1293938D01*
X4770483Y-1282882D01*
X4790000Y-1279000D01*
X6790000Y-1279000D01*
X6809517Y-1282882D01*
G37*
G36*
X6809517Y-182882D02*
G01*
X6826062Y-193938D01*
X6837118Y-210483D01*
X6841000Y-230000D01*
X6841000Y-930000D01*
X6837118Y-949517D01*
X6826062Y-966062D01*
X6809517Y-977118D01*
X6790000Y-981000D01*
X4790000Y-981000D01*
X4770483Y-977118D01*
X4753938Y-966062D01*
X4742882Y-949517D01*
X4739000Y-930000D01*
X4739000Y-230000D01*
X4742882Y-210483D01*
X4753938Y-193938D01*
X4770483Y-182882D01*
X4790000Y-179000D01*
X6790000Y-179000D01*
X6809517Y-182882D01*
G37*
G36*
X16527439Y546071D02*
G01*
X16556305Y546071D01*
X16589401Y537913D01*
X16632609Y532225D01*
X16662187Y519973D01*
X16685063Y514335D01*
X16719743Y496132D01*
X16765500Y477180D01*
X16786378Y461159D01*
X16802483Y452707D01*
X16835411Y423534D01*
X16879616Y389616D01*
X16892177Y373245D01*
X16901740Y364774D01*
X16929160Y325048D01*
X16967180Y275500D01*
X16972911Y261663D01*
X16977073Y255634D01*
X16995128Y208026D01*
X17022225Y142609D01*
X17023440Y133372D01*
X17024097Y131643D01*
X17029178Y89795D01*
X17041000Y0D01*
X17029178Y-89795D01*
X17024097Y-131643D01*
X17023440Y-133372D01*
X17022225Y-142609D01*
X16995128Y-208026D01*
X16977073Y-255634D01*
X16972911Y-261663D01*
X16967180Y-275500D01*
X16929160Y-325048D01*
X16901740Y-364774D01*
X16892177Y-373245D01*
X16879616Y-389616D01*
X16835411Y-423534D01*
X16802483Y-452707D01*
X16786378Y-461159D01*
X16765500Y-477180D01*
X16719743Y-496132D01*
X16685063Y-514335D01*
X16662187Y-519973D01*
X16632609Y-532225D01*
X16589401Y-537913D01*
X16556305Y-546071D01*
X16527439Y-546071D01*
X16490000Y-551000D01*
X16452561Y-546071D01*
X16423695Y-546071D01*
X16390597Y-537913D01*
X16347391Y-532225D01*
X16317814Y-519973D01*
X16294936Y-514335D01*
X16260251Y-496130D01*
X16214500Y-477180D01*
X16193623Y-461161D01*
X16177516Y-452707D01*
X16144580Y-423529D01*
X16100384Y-389616D01*
X16087824Y-373248D01*
X16078259Y-364774D01*
X16050830Y-325035D01*
X16012820Y-275500D01*
X16007090Y-261666D01*
X16002926Y-255634D01*
X15984859Y-207998D01*
X15957775Y-142609D01*
X15956559Y-133376D01*
X15955902Y-131643D01*
X15950809Y-89697D01*
X15939000Y0D01*
X15950809Y89697D01*
X15955902Y131643D01*
X15956559Y133376D01*
X15957775Y142609D01*
X15984859Y207998D01*
X16002926Y255634D01*
X16007090Y261666D01*
X16012820Y275500D01*
X16050830Y325035D01*
X16078259Y364774D01*
X16087824Y373248D01*
X16100384Y389616D01*
X16144580Y423529D01*
X16177516Y452707D01*
X16193623Y461161D01*
X16214500Y477180D01*
X16260251Y496130D01*
X16294936Y514335D01*
X16317814Y519973D01*
X16347391Y532225D01*
X16390597Y537913D01*
X16423695Y546071D01*
X16452561Y546071D01*
X16490000Y551000D01*
X16527439Y546071D01*
G37*
G36*
X2057258Y2410481D02*
G01*
X2198124Y2390227D01*
X2212052Y2386137D01*
X2276779Y2356577D01*
X2333374Y2330732D01*
X2333375Y2330731D01*
X2341506Y2327018D01*
X2353718Y2319170D01*
X2461273Y2225973D01*
X2470779Y2215003D01*
X2547720Y2095281D01*
X2553750Y2082076D01*
X2593845Y1945525D01*
X2595911Y1931157D01*
X2595911Y1881323D01*
X2597118Y1879517D01*
X2601000Y1860000D01*
X2601000Y1360000D01*
X2597118Y1340483D01*
X2586062Y1323938D01*
X2569517Y1312882D01*
X2563360Y1311657D01*
X2511213Y1276813D01*
X2511213Y1143187D01*
X2563359Y1108342D01*
X2569517Y1107118D01*
X2586062Y1096062D01*
X2597118Y1079517D01*
X2601000Y1060000D01*
X2601000Y560000D01*
X2597118Y540483D01*
X2595911Y538676D01*
X2595911Y488843D01*
X2593845Y474475D01*
X2591326Y465897D01*
X2591326Y465895D01*
X2572111Y400458D01*
X2553750Y337924D01*
X2547720Y324719D01*
X2470779Y204997D01*
X2461273Y194027D01*
X2454517Y188173D01*
X2360471Y106681D01*
X2360468Y106679D01*
X2353718Y100830D01*
X2341506Y92982D01*
X2333380Y89271D01*
X2333374Y89267D01*
X2220184Y37576D01*
X2220179Y37574D01*
X2212052Y33863D01*
X2198124Y29773D01*
X2057258Y9519D01*
X2050000Y9000D01*
X2045539Y9000D01*
X1554461Y9000D01*
X1550000Y9000D01*
X1542742Y9519D01*
X1401876Y29773D01*
X1387948Y33863D01*
X1379822Y37573D01*
X1379815Y37576D01*
X1266625Y89267D01*
X1266615Y89273D01*
X1258494Y92982D01*
X1246282Y100830D01*
X1239534Y106677D01*
X1239528Y106681D01*
X1145482Y188173D01*
X1145479Y188176D01*
X1138727Y194027D01*
X1129221Y204997D01*
X1124391Y212512D01*
X1124388Y212516D01*
X1057111Y317201D01*
X1057109Y317203D01*
X1052280Y324719D01*
X1046250Y337924D01*
X1043734Y346492D01*
X1043732Y346497D01*
X1008673Y465895D01*
X1008671Y465903D01*
X1006155Y474475D01*
X1004089Y488843D01*
X1004089Y538676D01*
X1002882Y540483D01*
X999000Y560000D01*
X999000Y1060000D01*
X1002882Y1079517D01*
X1013938Y1096062D01*
X1030483Y1107118D01*
X1036638Y1108342D01*
X1088786Y1143188D01*
X1088786Y1276812D01*
X1036636Y1311657D01*
X1030483Y1312882D01*
X1013938Y1323938D01*
X1002882Y1340483D01*
X999000Y1360000D01*
X999000Y1860000D01*
X1002882Y1879517D01*
X1004089Y1881323D01*
X1004089Y1931157D01*
X1006155Y1945525D01*
X1008672Y1954097D01*
X1008673Y1954104D01*
X1043732Y2073502D01*
X1043733Y2073504D01*
X1046250Y2082076D01*
X1052280Y2095281D01*
X1081569Y2140856D01*
X1124388Y2207483D01*
X1129221Y2215003D01*
X1138727Y2225973D01*
X1225796Y2301419D01*
X1239528Y2313318D01*
X1239529Y2313319D01*
X1246282Y2319170D01*
X1258494Y2327018D01*
X1266621Y2330729D01*
X1266625Y2330732D01*
X1379815Y2382423D01*
X1379816Y2382423D01*
X1387948Y2386137D01*
X1401876Y2390227D01*
X1542742Y2410481D01*
X1550000Y2411000D01*
X2050000Y2411000D01*
X2057258Y2410481D01*
G37*
G36*
X6809517Y917118D02*
G01*
X6826062Y906062D01*
X6837118Y889517D01*
X6841000Y870000D01*
X6841000Y170000D01*
X6837118Y150483D01*
X6826062Y133938D01*
X6809517Y122882D01*
X6790000Y119000D01*
X6777686Y119000D01*
X4802310Y119000D01*
X4790000Y119000D01*
X4770483Y122882D01*
X4753938Y133938D01*
X4742882Y150483D01*
X4739000Y170000D01*
X4739000Y870000D01*
X4742882Y889517D01*
X4753938Y906062D01*
X4770483Y917118D01*
X4790000Y921000D01*
X6790000Y921000D01*
X6809517Y917118D01*
G37*
G36*
X7459517Y3967118D02*
G01*
X7476062Y3956062D01*
X7487118Y3939517D01*
X7491000Y3920000D01*
X7491000Y2320000D01*
X7487118Y2300483D01*
X7476062Y2283938D01*
X7459517Y2272882D01*
X7440000Y2269000D01*
X7427686Y2269000D01*
X6686748Y2269000D01*
X6664540Y2043504D01*
X6777681Y2021000D01*
X6790000Y2021000D01*
X6809517Y2017118D01*
X6826062Y2006062D01*
X6837118Y1989517D01*
X6841000Y1970000D01*
X6841000Y1270000D01*
X6837118Y1250483D01*
X6826062Y1233938D01*
X6809517Y1222882D01*
X6790000Y1219000D01*
X6777686Y1219000D01*
X4802310Y1219000D01*
X4790000Y1219000D01*
X4770483Y1222882D01*
X4753938Y1233938D01*
X4742882Y1250483D01*
X4739000Y1270000D01*
X4739000Y1970000D01*
X4742882Y1989517D01*
X4753938Y2006062D01*
X4770483Y2017118D01*
X4790000Y2021000D01*
X5643250Y2021000D01*
X5665460Y2246492D01*
X5552308Y2269000D01*
X5540000Y2269000D01*
X5520483Y2272882D01*
X5503938Y2283938D01*
X5492882Y2300483D01*
X5489000Y2320000D01*
X5489000Y3920000D01*
X5492882Y3939517D01*
X5503938Y3956062D01*
X5520483Y3967118D01*
X5540000Y3971000D01*
X7440000Y3971000D01*
X7459517Y3967118D01*
G37*
G36*
X17609517Y3967118D02*
G01*
X17626062Y3956062D01*
X17637118Y3939517D01*
X17641000Y3920000D01*
X17641000Y2220000D01*
X17637118Y2200483D01*
X17626062Y2183938D01*
X17609517Y2172882D01*
X17590000Y2169000D01*
X17577686Y2169000D01*
X14602310Y2169000D01*
X14590000Y2169000D01*
X14570483Y2172882D01*
X14553938Y2183938D01*
X14542882Y2200483D01*
X14539000Y2220000D01*
X14539000Y3920000D01*
X14542882Y3939517D01*
X14553938Y3956062D01*
X14570483Y3967118D01*
X14590000Y3971000D01*
X17590000Y3971000D01*
X17609517Y3967118D01*
G37*
G36*
X19253972Y5446064D02*
G01*
X19304180Y5446064D01*
X19347533Y5436849D01*
X19385659Y5433094D01*
X19433555Y5418564D01*
X19488424Y5406902D01*
X19523537Y5391268D01*
X19554566Y5381856D01*
X19603873Y5355500D01*
X19660500Y5330289D01*
X19686827Y5311161D01*
X19710232Y5298651D01*
X19757977Y5259467D01*
X19812887Y5219573D01*
X19830714Y5199773D01*
X19846675Y5186675D01*
X19889563Y5134415D01*
X19938924Y5079595D01*
X19949294Y5061633D01*
X19958651Y5050232D01*
X19993266Y4985470D01*
X20033104Y4916470D01*
X20037686Y4902366D01*
X20041856Y4894566D01*
X20064848Y4818771D01*
X20091311Y4737328D01*
X20092242Y4728466D01*
X20093094Y4725659D01*
X20101383Y4641494D01*
X20111000Y4550000D01*
X20101384Y4458513D01*
X20093094Y4374340D01*
X20092242Y4371532D01*
X20091311Y4362672D01*
X20064852Y4281242D01*
X20041856Y4205433D01*
X20037685Y4197630D01*
X20033104Y4183530D01*
X19993273Y4114542D01*
X19958651Y4049767D01*
X19949292Y4038363D01*
X19938924Y4020405D01*
X19889572Y3965594D01*
X19846675Y3913324D01*
X19830711Y3900223D01*
X19812887Y3880427D01*
X19757988Y3840540D01*
X19710232Y3801348D01*
X19686822Y3788835D01*
X19660500Y3769711D01*
X19603884Y3744504D01*
X19554566Y3718143D01*
X19523530Y3708728D01*
X19488424Y3693098D01*
X19433566Y3681437D01*
X19385659Y3666905D01*
X19347524Y3663149D01*
X19304180Y3653936D01*
X19253983Y3653936D01*
X19210000Y3649604D01*
X19166016Y3653936D01*
X19115820Y3653936D01*
X19072476Y3663148D01*
X19034340Y3666905D01*
X18986430Y3681438D01*
X18931576Y3693098D01*
X18896471Y3708727D01*
X18865433Y3718143D01*
X18816109Y3744506D01*
X18759500Y3769711D01*
X18733180Y3788833D01*
X18709767Y3801348D01*
X18662002Y3840546D01*
X18607113Y3880427D01*
X18589291Y3900219D01*
X18573324Y3913324D01*
X18530416Y3965607D01*
X18481076Y4020405D01*
X18470710Y4038359D01*
X18461348Y4049767D01*
X18426712Y4114565D01*
X18386896Y4183530D01*
X18382315Y4197626D01*
X18378143Y4205433D01*
X18355132Y4281288D01*
X18328689Y4362672D01*
X18327758Y4371527D01*
X18326905Y4374340D01*
X18318599Y4458664D01*
X18309000Y4550000D01*
X18318600Y4641342D01*
X18326905Y4725659D01*
X18327758Y4728471D01*
X18328689Y4737328D01*
X18355136Y4818725D01*
X18378143Y4894566D01*
X18382315Y4902371D01*
X18386896Y4916470D01*
X18426719Y4985447D01*
X18461348Y5050232D01*
X18470708Y5061637D01*
X18481076Y5079595D01*
X18530425Y5134402D01*
X18573324Y5186675D01*
X18589287Y5199776D01*
X18607113Y5219573D01*
X18662013Y5259460D01*
X18709767Y5298651D01*
X18733175Y5311163D01*
X18759500Y5330289D01*
X18816120Y5355498D01*
X18865433Y5381856D01*
X18896464Y5391269D01*
X18931576Y5406902D01*
X18986441Y5418563D01*
X19034340Y5433094D01*
X19072467Y5436849D01*
X19115820Y5446064D01*
X19166026Y5446064D01*
X19209999Y5450395D01*
X19253972Y5446064D01*
G37*
G36*
X3977654Y6978879D02*
G01*
X4057328Y6971640D01*
X4069485Y6967851D01*
X4090457Y6965333D01*
X4139007Y6946187D01*
X4185759Y6931619D01*
X4204161Y6920494D01*
X4230051Y6910285D01*
X4265430Y6883456D01*
X4299244Y6863015D01*
X4320763Y6841495D01*
X4349616Y6819616D01*
X4371495Y6790763D01*
X4393015Y6769244D01*
X4413456Y6735430D01*
X4440285Y6700051D01*
X4450494Y6674161D01*
X4461619Y6655759D01*
X4476187Y6609007D01*
X4495333Y6560457D01*
X4497851Y6539485D01*
X4501640Y6527328D01*
X4508879Y6447654D01*
X4511000Y6430000D01*
X4511000Y5430000D01*
X4508880Y5412348D01*
X4501640Y5332671D01*
X4497851Y5320512D01*
X4495333Y5299543D01*
X4476189Y5250996D01*
X4461619Y5204240D01*
X4450493Y5185835D01*
X4440285Y5159949D01*
X4413459Y5124573D01*
X4393015Y5090755D01*
X4371492Y5069232D01*
X4349616Y5040384D01*
X4320767Y5018507D01*
X4299244Y4996984D01*
X4265423Y4976538D01*
X4230051Y4949715D01*
X4204166Y4939507D01*
X4185759Y4928380D01*
X4138994Y4913807D01*
X4090457Y4894667D01*
X4069490Y4892149D01*
X4057328Y4888359D01*
X3977620Y4881116D01*
X3960000Y4879000D01*
X3954333Y4879000D01*
X1465666Y4879000D01*
X1460000Y4879000D01*
X1442382Y4881115D01*
X1362671Y4888359D01*
X1350507Y4892149D01*
X1329543Y4894667D01*
X1281008Y4913806D01*
X1234240Y4928380D01*
X1215831Y4939508D01*
X1189949Y4949715D01*
X1154580Y4976535D01*
X1120755Y4996984D01*
X1099228Y5018510D01*
X1070384Y5040384D01*
X1048510Y5069228D01*
X1026984Y5090755D01*
X1006535Y5124580D01*
X979715Y5159949D01*
X969508Y5185831D01*
X958380Y5204240D01*
X943806Y5251008D01*
X924667Y5299543D01*
X922149Y5320507D01*
X918359Y5332671D01*
X911115Y5412382D01*
X909000Y5430000D01*
X909000Y6430000D01*
X911116Y6447620D01*
X918359Y6527328D01*
X922149Y6539490D01*
X924667Y6560457D01*
X943807Y6608994D01*
X958380Y6655759D01*
X969507Y6674166D01*
X979715Y6700051D01*
X1006538Y6735423D01*
X1026984Y6769244D01*
X1048507Y6790767D01*
X1070384Y6819616D01*
X1099232Y6841492D01*
X1120755Y6863015D01*
X1154573Y6883459D01*
X1189949Y6910285D01*
X1215835Y6920493D01*
X1234240Y6931619D01*
X1280996Y6946189D01*
X1329543Y6965333D01*
X1350512Y6967851D01*
X1362671Y6971640D01*
X1442348Y6978880D01*
X1460000Y6981000D01*
X3960000Y6981000D01*
X3977654Y6978879D01*
G37*
G36*
X14137654Y6978879D02*
G01*
X14217328Y6971640D01*
X14229485Y6967851D01*
X14250457Y6965333D01*
X14299007Y6946187D01*
X14345759Y6931619D01*
X14364161Y6920494D01*
X14390051Y6910285D01*
X14425430Y6883456D01*
X14459244Y6863015D01*
X14480763Y6841495D01*
X14509616Y6819616D01*
X14531495Y6790763D01*
X14553015Y6769244D01*
X14573456Y6735430D01*
X14600285Y6700051D01*
X14610494Y6674161D01*
X14621619Y6655759D01*
X14636187Y6609007D01*
X14655333Y6560457D01*
X14657851Y6539485D01*
X14661640Y6527328D01*
X14668879Y6447654D01*
X14671000Y6430000D01*
X14671000Y5430000D01*
X14668880Y5412348D01*
X14661640Y5332671D01*
X14657851Y5320512D01*
X14655333Y5299543D01*
X14636189Y5250996D01*
X14621619Y5204240D01*
X14610493Y5185835D01*
X14600285Y5159949D01*
X14573459Y5124573D01*
X14553015Y5090755D01*
X14531492Y5069232D01*
X14509616Y5040384D01*
X14480767Y5018507D01*
X14459244Y4996984D01*
X14425423Y4976538D01*
X14390051Y4949715D01*
X14364166Y4939507D01*
X14345759Y4928380D01*
X14298994Y4913807D01*
X14250457Y4894667D01*
X14229490Y4892149D01*
X14217328Y4888359D01*
X14137620Y4881116D01*
X14120000Y4879000D01*
X14114333Y4879000D01*
X11625666Y4879000D01*
X11620000Y4879000D01*
X11602382Y4881115D01*
X11522671Y4888359D01*
X11510507Y4892149D01*
X11489543Y4894667D01*
X11441008Y4913806D01*
X11394240Y4928380D01*
X11375831Y4939508D01*
X11349949Y4949715D01*
X11314580Y4976535D01*
X11280755Y4996984D01*
X11259228Y5018510D01*
X11230384Y5040384D01*
X11208510Y5069228D01*
X11186984Y5090755D01*
X11166535Y5124580D01*
X11139715Y5159949D01*
X11129508Y5185831D01*
X11118380Y5204240D01*
X11103806Y5251008D01*
X11084667Y5299543D01*
X11082149Y5320507D01*
X11078359Y5332671D01*
X11071115Y5412382D01*
X11069000Y5430000D01*
X11069000Y6430000D01*
X11071116Y6447620D01*
X11078359Y6527328D01*
X11082149Y6539490D01*
X11084667Y6560457D01*
X11103807Y6608994D01*
X11118380Y6655759D01*
X11129507Y6674166D01*
X11139715Y6700051D01*
X11166538Y6735423D01*
X11186984Y6769244D01*
X11208507Y6790767D01*
X11230384Y6819616D01*
X11259232Y6841492D01*
X11280755Y6863015D01*
X11314573Y6883459D01*
X11349949Y6910285D01*
X11375835Y6920493D01*
X11394240Y6931619D01*
X11440996Y6946189D01*
X11489543Y6965333D01*
X11510512Y6967851D01*
X11522671Y6971640D01*
X11602348Y6978880D01*
X11620000Y6981000D01*
X14120000Y6981000D01*
X14137654Y6978879D01*
G37*
G36*
X19253972Y7986064D02*
G01*
X19304180Y7986064D01*
X19347533Y7976849D01*
X19385659Y7973094D01*
X19433555Y7958564D01*
X19488424Y7946902D01*
X19523537Y7931268D01*
X19554566Y7921856D01*
X19603873Y7895500D01*
X19660500Y7870289D01*
X19686827Y7851161D01*
X19710232Y7838651D01*
X19757977Y7799467D01*
X19812887Y7759573D01*
X19830714Y7739773D01*
X19846675Y7726675D01*
X19889563Y7674415D01*
X19938924Y7619595D01*
X19949294Y7601633D01*
X19958651Y7590232D01*
X19993266Y7525470D01*
X20033104Y7456470D01*
X20037686Y7442366D01*
X20041856Y7434566D01*
X20064848Y7358771D01*
X20091311Y7277328D01*
X20092242Y7268466D01*
X20093094Y7265659D01*
X20101383Y7181494D01*
X20111000Y7090000D01*
X20101384Y6998513D01*
X20093094Y6914340D01*
X20092242Y6911532D01*
X20091311Y6902672D01*
X20064852Y6821242D01*
X20041856Y6745433D01*
X20037685Y6737630D01*
X20033104Y6723530D01*
X19993273Y6654542D01*
X19958651Y6589767D01*
X19949292Y6578363D01*
X19938924Y6560405D01*
X19889572Y6505594D01*
X19846675Y6453324D01*
X19830711Y6440223D01*
X19812887Y6420427D01*
X19757988Y6380540D01*
X19710232Y6341348D01*
X19686822Y6328835D01*
X19660500Y6309711D01*
X19603884Y6284504D01*
X19554566Y6258143D01*
X19523530Y6248728D01*
X19488424Y6233098D01*
X19433566Y6221437D01*
X19385659Y6206905D01*
X19347524Y6203149D01*
X19304180Y6193936D01*
X19253983Y6193936D01*
X19210000Y6189604D01*
X19166016Y6193936D01*
X19115820Y6193936D01*
X19072476Y6203148D01*
X19034340Y6206905D01*
X18986430Y6221438D01*
X18931576Y6233098D01*
X18896471Y6248727D01*
X18865433Y6258143D01*
X18816109Y6284506D01*
X18759500Y6309711D01*
X18733180Y6328833D01*
X18709767Y6341348D01*
X18662002Y6380546D01*
X18607113Y6420427D01*
X18589291Y6440219D01*
X18573324Y6453324D01*
X18530416Y6505607D01*
X18481076Y6560405D01*
X18470710Y6578359D01*
X18461348Y6589767D01*
X18426712Y6654565D01*
X18386896Y6723530D01*
X18382315Y6737626D01*
X18378143Y6745433D01*
X18355132Y6821288D01*
X18328689Y6902672D01*
X18327758Y6911527D01*
X18326905Y6914340D01*
X18318599Y6998664D01*
X18309000Y7090000D01*
X18318600Y7181342D01*
X18326905Y7265659D01*
X18327758Y7268471D01*
X18328689Y7277328D01*
X18355136Y7358725D01*
X18378143Y7434566D01*
X18382315Y7442371D01*
X18386896Y7456470D01*
X18426719Y7525447D01*
X18461348Y7590232D01*
X18470708Y7601637D01*
X18481076Y7619595D01*
X18530425Y7674402D01*
X18573324Y7726675D01*
X18589287Y7739776D01*
X18607113Y7759573D01*
X18662013Y7799460D01*
X18709767Y7838651D01*
X18733175Y7851163D01*
X18759500Y7870289D01*
X18816120Y7895498D01*
X18865433Y7921856D01*
X18896464Y7931269D01*
X18931576Y7946902D01*
X18986441Y7958563D01*
X19034340Y7973094D01*
X19072467Y7976849D01*
X19115820Y7986064D01*
X19166026Y7986064D01*
X19209999Y7990395D01*
X19253972Y7986064D01*
G37*
G36*
X3977654Y9518879D02*
G01*
X4057328Y9511640D01*
X4069485Y9507851D01*
X4090457Y9505333D01*
X4139007Y9486187D01*
X4185759Y9471619D01*
X4204161Y9460494D01*
X4230051Y9450285D01*
X4265430Y9423456D01*
X4299244Y9403015D01*
X4320763Y9381495D01*
X4349616Y9359616D01*
X4371495Y9330763D01*
X4393015Y9309244D01*
X4413456Y9275430D01*
X4440285Y9240051D01*
X4450494Y9214161D01*
X4461619Y9195759D01*
X4476187Y9149007D01*
X4495333Y9100457D01*
X4497851Y9079485D01*
X4501640Y9067328D01*
X4508879Y8987654D01*
X4511000Y8970000D01*
X4511000Y7970000D01*
X4508880Y7952348D01*
X4501640Y7872671D01*
X4497851Y7860512D01*
X4495333Y7839543D01*
X4476189Y7790996D01*
X4461619Y7744240D01*
X4450493Y7725835D01*
X4440285Y7699949D01*
X4413459Y7664573D01*
X4393015Y7630755D01*
X4371492Y7609232D01*
X4349616Y7580384D01*
X4320767Y7558507D01*
X4299244Y7536984D01*
X4265423Y7516538D01*
X4230051Y7489715D01*
X4204166Y7479507D01*
X4185759Y7468380D01*
X4138994Y7453807D01*
X4090457Y7434667D01*
X4069490Y7432149D01*
X4057328Y7428359D01*
X3977620Y7421116D01*
X3960000Y7419000D01*
X3954333Y7419000D01*
X1465666Y7419000D01*
X1460000Y7419000D01*
X1442382Y7421115D01*
X1362671Y7428359D01*
X1350507Y7432149D01*
X1329543Y7434667D01*
X1281008Y7453806D01*
X1234240Y7468380D01*
X1215831Y7479508D01*
X1189949Y7489715D01*
X1154580Y7516535D01*
X1120755Y7536984D01*
X1099228Y7558510D01*
X1070384Y7580384D01*
X1048510Y7609228D01*
X1026984Y7630755D01*
X1006535Y7664580D01*
X979715Y7699949D01*
X969508Y7725831D01*
X958380Y7744240D01*
X943806Y7791008D01*
X924667Y7839543D01*
X922149Y7860507D01*
X918359Y7872671D01*
X911115Y7952382D01*
X909000Y7970000D01*
X909000Y8970000D01*
X911116Y8987620D01*
X918359Y9067328D01*
X922149Y9079490D01*
X924667Y9100457D01*
X943807Y9148994D01*
X958380Y9195759D01*
X969507Y9214166D01*
X979715Y9240051D01*
X1006538Y9275423D01*
X1026984Y9309244D01*
X1048507Y9330767D01*
X1070384Y9359616D01*
X1099232Y9381492D01*
X1120755Y9403015D01*
X1154573Y9423459D01*
X1189949Y9450285D01*
X1215835Y9460493D01*
X1234240Y9471619D01*
X1280996Y9486189D01*
X1329543Y9505333D01*
X1350512Y9507851D01*
X1362671Y9511640D01*
X1442348Y9518880D01*
X1460000Y9521000D01*
X3960000Y9521000D01*
X3977654Y9518879D01*
G37*
G36*
X14137654Y9518879D02*
G01*
X14217328Y9511640D01*
X14229485Y9507851D01*
X14250457Y9505333D01*
X14299007Y9486187D01*
X14345759Y9471619D01*
X14364161Y9460494D01*
X14390051Y9450285D01*
X14425430Y9423456D01*
X14459244Y9403015D01*
X14480763Y9381495D01*
X14509616Y9359616D01*
X14531495Y9330763D01*
X14553015Y9309244D01*
X14573456Y9275430D01*
X14600285Y9240051D01*
X14610494Y9214161D01*
X14621619Y9195759D01*
X14636187Y9149007D01*
X14655333Y9100457D01*
X14657851Y9079485D01*
X14661640Y9067328D01*
X14668879Y8987654D01*
X14671000Y8970000D01*
X14671000Y7970000D01*
X14668880Y7952348D01*
X14661640Y7872671D01*
X14657851Y7860512D01*
X14655333Y7839543D01*
X14636189Y7790996D01*
X14621619Y7744240D01*
X14610493Y7725835D01*
X14600285Y7699949D01*
X14573459Y7664573D01*
X14553015Y7630755D01*
X14531492Y7609232D01*
X14509616Y7580384D01*
X14480767Y7558507D01*
X14459244Y7536984D01*
X14425423Y7516538D01*
X14390051Y7489715D01*
X14364166Y7479507D01*
X14345759Y7468380D01*
X14298994Y7453807D01*
X14250457Y7434667D01*
X14229490Y7432149D01*
X14217328Y7428359D01*
X14137620Y7421116D01*
X14120000Y7419000D01*
X14114333Y7419000D01*
X11625666Y7419000D01*
X11620000Y7419000D01*
X11602382Y7421115D01*
X11522671Y7428359D01*
X11510507Y7432149D01*
X11489543Y7434667D01*
X11441008Y7453806D01*
X11394240Y7468380D01*
X11375831Y7479508D01*
X11349949Y7489715D01*
X11314580Y7516535D01*
X11280755Y7536984D01*
X11259228Y7558510D01*
X11230384Y7580384D01*
X11208510Y7609228D01*
X11186984Y7630755D01*
X11166535Y7664580D01*
X11139715Y7699949D01*
X11129508Y7725831D01*
X11118380Y7744240D01*
X11103806Y7791008D01*
X11084667Y7839543D01*
X11082149Y7860507D01*
X11078359Y7872671D01*
X11071115Y7952382D01*
X11069000Y7970000D01*
X11069000Y8970000D01*
X11071116Y8987620D01*
X11078359Y9067328D01*
X11082149Y9079490D01*
X11084667Y9100457D01*
X11103807Y9148994D01*
X11118380Y9195759D01*
X11129507Y9214166D01*
X11139715Y9240051D01*
X11166538Y9275423D01*
X11186984Y9309244D01*
X11208507Y9330767D01*
X11230384Y9359616D01*
X11259232Y9381492D01*
X11280755Y9403015D01*
X11314573Y9423459D01*
X11349949Y9450285D01*
X11375835Y9460493D01*
X11394240Y9471619D01*
X11440996Y9486189D01*
X11489543Y9505333D01*
X11510512Y9507851D01*
X11522671Y9511640D01*
X11602348Y9518880D01*
X11620000Y9521000D01*
X14120000Y9521000D01*
X14137654Y9518879D01*
G37*
G36*
X19253973Y10526064D02*
G01*
X19304180Y10526064D01*
X19347532Y10516849D01*
X19385659Y10513094D01*
X19433555Y10498564D01*
X19488424Y10486902D01*
X19523537Y10471268D01*
X19554566Y10461856D01*
X19603873Y10435500D01*
X19660500Y10410289D01*
X19686827Y10391161D01*
X19710232Y10378651D01*
X19757977Y10339467D01*
X19812887Y10299573D01*
X19830714Y10279773D01*
X19846675Y10266675D01*
X19889563Y10214415D01*
X19938924Y10159595D01*
X19949294Y10141633D01*
X19958651Y10130232D01*
X19993266Y10065470D01*
X20033104Y9996470D01*
X20037686Y9982366D01*
X20041856Y9974566D01*
X20064848Y9898771D01*
X20091311Y9817328D01*
X20092242Y9808466D01*
X20093094Y9805659D01*
X20101383Y9721494D01*
X20111000Y9630000D01*
X20101384Y9538513D01*
X20093094Y9454340D01*
X20092242Y9451532D01*
X20091311Y9442672D01*
X20064852Y9361242D01*
X20041856Y9285433D01*
X20037685Y9277630D01*
X20033104Y9263530D01*
X19993273Y9194542D01*
X19958651Y9129767D01*
X19949292Y9118363D01*
X19938924Y9100405D01*
X19889572Y9045594D01*
X19846675Y8993324D01*
X19830711Y8980223D01*
X19812887Y8960427D01*
X19757988Y8920540D01*
X19710232Y8881348D01*
X19686822Y8868835D01*
X19660500Y8849711D01*
X19603884Y8824504D01*
X19554566Y8798143D01*
X19523530Y8788728D01*
X19488424Y8773098D01*
X19433566Y8761437D01*
X19385659Y8746905D01*
X19347524Y8743149D01*
X19304180Y8733936D01*
X19253983Y8733936D01*
X19210000Y8729604D01*
X19166016Y8733936D01*
X19115820Y8733936D01*
X19072476Y8743148D01*
X19034340Y8746905D01*
X18986430Y8761438D01*
X18931576Y8773098D01*
X18896471Y8788727D01*
X18865433Y8798143D01*
X18816109Y8824506D01*
X18759500Y8849711D01*
X18733180Y8868833D01*
X18709767Y8881348D01*
X18662002Y8920546D01*
X18607113Y8960427D01*
X18589291Y8980219D01*
X18573324Y8993324D01*
X18530416Y9045607D01*
X18481076Y9100405D01*
X18470710Y9118359D01*
X18461348Y9129767D01*
X18426712Y9194565D01*
X18386896Y9263530D01*
X18382315Y9277626D01*
X18378143Y9285433D01*
X18355132Y9361288D01*
X18328689Y9442672D01*
X18327758Y9451527D01*
X18326905Y9454340D01*
X18318599Y9538664D01*
X18309000Y9630000D01*
X18318600Y9721342D01*
X18326905Y9805659D01*
X18327758Y9808471D01*
X18328689Y9817328D01*
X18355136Y9898725D01*
X18378143Y9974566D01*
X18382315Y9982371D01*
X18386896Y9996470D01*
X18426719Y10065447D01*
X18461348Y10130232D01*
X18470708Y10141637D01*
X18481076Y10159595D01*
X18530425Y10214402D01*
X18573324Y10266675D01*
X18589287Y10279776D01*
X18607113Y10299573D01*
X18662013Y10339460D01*
X18709767Y10378651D01*
X18733175Y10391163D01*
X18759500Y10410289D01*
X18816120Y10435498D01*
X18865433Y10461856D01*
X18896464Y10471269D01*
X18931576Y10486902D01*
X18986441Y10498563D01*
X19034340Y10513094D01*
X19072467Y10516849D01*
X19115820Y10526064D01*
X19166027Y10526064D01*
X19210000Y10530395D01*
X19253973Y10526064D01*
G37*
G36*
X3977654Y12058879D02*
G01*
X4057328Y12051640D01*
X4069485Y12047851D01*
X4090457Y12045333D01*
X4139007Y12026187D01*
X4185759Y12011619D01*
X4204161Y12000494D01*
X4230051Y11990285D01*
X4265430Y11963456D01*
X4299244Y11943015D01*
X4320763Y11921495D01*
X4349616Y11899616D01*
X4371495Y11870763D01*
X4393015Y11849244D01*
X4413456Y11815430D01*
X4440285Y11780051D01*
X4450494Y11754161D01*
X4461619Y11735759D01*
X4476187Y11689007D01*
X4495333Y11640457D01*
X4497851Y11619485D01*
X4501640Y11607328D01*
X4508879Y11527654D01*
X4511000Y11510000D01*
X4511000Y10510000D01*
X4508880Y10492348D01*
X4501640Y10412671D01*
X4497851Y10400512D01*
X4495333Y10379543D01*
X4476189Y10330996D01*
X4461619Y10284240D01*
X4450493Y10265835D01*
X4440285Y10239949D01*
X4413459Y10204573D01*
X4393015Y10170755D01*
X4371492Y10149232D01*
X4349616Y10120384D01*
X4320767Y10098507D01*
X4299244Y10076984D01*
X4265423Y10056538D01*
X4230051Y10029715D01*
X4204166Y10019507D01*
X4185759Y10008380D01*
X4138994Y9993807D01*
X4090457Y9974667D01*
X4069490Y9972149D01*
X4057328Y9968359D01*
X3977620Y9961116D01*
X3960000Y9959000D01*
X3954333Y9959000D01*
X1465666Y9959000D01*
X1460000Y9959000D01*
X1442382Y9961115D01*
X1362671Y9968359D01*
X1350507Y9972149D01*
X1329543Y9974667D01*
X1281008Y9993806D01*
X1234240Y10008380D01*
X1215831Y10019508D01*
X1189949Y10029715D01*
X1154580Y10056535D01*
X1120755Y10076984D01*
X1099228Y10098510D01*
X1070384Y10120384D01*
X1048510Y10149228D01*
X1026984Y10170755D01*
X1006535Y10204580D01*
X979715Y10239949D01*
X969508Y10265831D01*
X958380Y10284240D01*
X943806Y10331008D01*
X924667Y10379543D01*
X922149Y10400507D01*
X918359Y10412671D01*
X911115Y10492382D01*
X909000Y10510000D01*
X909000Y11510000D01*
X911116Y11527620D01*
X918359Y11607328D01*
X922149Y11619490D01*
X924667Y11640457D01*
X943807Y11688994D01*
X958380Y11735759D01*
X969507Y11754166D01*
X979715Y11780051D01*
X1006538Y11815423D01*
X1026984Y11849244D01*
X1048507Y11870767D01*
X1070384Y11899616D01*
X1099232Y11921492D01*
X1120755Y11943015D01*
X1154573Y11963459D01*
X1189949Y11990285D01*
X1215835Y12000493D01*
X1234240Y12011619D01*
X1280996Y12026189D01*
X1329543Y12045333D01*
X1350512Y12047851D01*
X1362671Y12051640D01*
X1442348Y12058880D01*
X1460000Y12061000D01*
X3960000Y12061000D01*
X3977654Y12058879D01*
G37*
G36*
X14137654Y12058879D02*
G01*
X14217328Y12051640D01*
X14229485Y12047851D01*
X14250457Y12045333D01*
X14299007Y12026187D01*
X14345759Y12011619D01*
X14364161Y12000494D01*
X14390051Y11990285D01*
X14425430Y11963456D01*
X14459244Y11943015D01*
X14480763Y11921495D01*
X14509616Y11899616D01*
X14531495Y11870763D01*
X14553015Y11849244D01*
X14573456Y11815430D01*
X14600285Y11780051D01*
X14610494Y11754161D01*
X14621619Y11735759D01*
X14636187Y11689007D01*
X14655333Y11640457D01*
X14657851Y11619485D01*
X14661640Y11607328D01*
X14668879Y11527654D01*
X14671000Y11510000D01*
X14671000Y10510000D01*
X14668880Y10492348D01*
X14661640Y10412671D01*
X14657851Y10400512D01*
X14655333Y10379543D01*
X14636189Y10330996D01*
X14621619Y10284240D01*
X14610493Y10265835D01*
X14600285Y10239949D01*
X14573459Y10204573D01*
X14553015Y10170755D01*
X14531492Y10149232D01*
X14509616Y10120384D01*
X14480767Y10098507D01*
X14459244Y10076984D01*
X14425423Y10056538D01*
X14390051Y10029715D01*
X14364166Y10019507D01*
X14345759Y10008380D01*
X14298994Y9993807D01*
X14250457Y9974667D01*
X14229490Y9972149D01*
X14217328Y9968359D01*
X14137620Y9961116D01*
X14120000Y9959000D01*
X14114333Y9959000D01*
X11625666Y9959000D01*
X11620000Y9959000D01*
X11602382Y9961115D01*
X11522671Y9968359D01*
X11510507Y9972149D01*
X11489543Y9974667D01*
X11441008Y9993806D01*
X11394240Y10008380D01*
X11375831Y10019508D01*
X11349949Y10029715D01*
X11314580Y10056535D01*
X11280755Y10076984D01*
X11259228Y10098510D01*
X11230384Y10120384D01*
X11208510Y10149228D01*
X11186984Y10170755D01*
X11166535Y10204580D01*
X11139715Y10239949D01*
X11129508Y10265831D01*
X11118380Y10284240D01*
X11103806Y10331008D01*
X11084667Y10379543D01*
X11082149Y10400507D01*
X11078359Y10412671D01*
X11071115Y10492382D01*
X11069000Y10510000D01*
X11069000Y11510000D01*
X11071116Y11527620D01*
X11078359Y11607328D01*
X11082149Y11619490D01*
X11084667Y11640457D01*
X11103807Y11688994D01*
X11118380Y11735759D01*
X11129507Y11754166D01*
X11139715Y11780051D01*
X11166538Y11815423D01*
X11186984Y11849244D01*
X11208507Y11870767D01*
X11230384Y11899616D01*
X11259232Y11921492D01*
X11280755Y11943015D01*
X11314573Y11963459D01*
X11349949Y11990285D01*
X11375835Y12000493D01*
X11394240Y12011619D01*
X11440996Y12026189D01*
X11489543Y12045333D01*
X11510512Y12047851D01*
X11522671Y12051640D01*
X11602348Y12058880D01*
X11620000Y12061000D01*
X14120000Y12061000D01*
X14137654Y12058879D01*
G37*
G36*
X-17769062Y14615983D02*
G01*
X-17723077Y14615983D01*
X-17671863Y14606409D01*
X-17614960Y14600805D01*
X-17571732Y14587692D01*
X-17532525Y14580363D01*
X-17478221Y14559325D01*
X-17417800Y14540997D01*
X-17383275Y14522543D01*
X-17351767Y14510337D01*
X-17297027Y14476443D01*
X-17236096Y14443875D01*
X-17210491Y14422861D01*
X-17186951Y14408286D01*
X-17134788Y14360733D01*
X-17076831Y14313169D01*
X-17059656Y14292242D01*
X-17043698Y14277694D01*
X-16997367Y14216342D01*
X-16946125Y14153904D01*
X-16936216Y14135366D01*
X-16926877Y14122999D01*
X-16889717Y14048372D01*
X-16849003Y13972200D01*
X-16844660Y13957884D01*
X-16840471Y13949471D01*
X-16815721Y13862485D01*
X-16789195Y13775040D01*
X-16788323Y13766192D01*
X-16787422Y13763024D01*
X-16778052Y13661911D01*
X-16769000Y13570000D01*
X-16769000Y12070000D01*
X-16778051Y11978104D01*
X-16787422Y11876975D01*
X-16788323Y11873805D01*
X-16789195Y11864960D01*
X-16815716Y11777529D01*
X-16840471Y11690528D01*
X-16844661Y11682112D01*
X-16849003Y11667800D01*
X-16889710Y11591641D01*
X-16926877Y11517000D01*
X-16936218Y11504629D01*
X-16946125Y11486096D01*
X-16997357Y11423668D01*
X-17043698Y11362305D01*
X-17059660Y11347753D01*
X-17076831Y11326831D01*
X-17134777Y11279275D01*
X-17186951Y11231713D01*
X-17210496Y11217134D01*
X-17236096Y11196125D01*
X-17297015Y11163563D01*
X-17351767Y11129662D01*
X-17383282Y11117452D01*
X-17417800Y11099003D01*
X-17478209Y11080677D01*
X-17532525Y11059636D01*
X-17571739Y11052305D01*
X-17614960Y11039195D01*
X-17671860Y11033590D01*
X-17723077Y11024017D01*
X-17769062Y11024017D01*
X-17820000Y11019000D01*
X-17870938Y11024017D01*
X-17916923Y11024017D01*
X-17968139Y11033590D01*
X-18025040Y11039195D01*
X-18068261Y11052306D01*
X-18107474Y11059636D01*
X-18161785Y11080676D01*
X-18222200Y11099003D01*
X-18256720Y11117454D01*
X-18288232Y11129662D01*
X-18342977Y11163559D01*
X-18403904Y11196125D01*
X-18429506Y11217136D01*
X-18453048Y11231713D01*
X-18505212Y11279267D01*
X-18563169Y11326831D01*
X-18580342Y11347757D01*
X-18596301Y11362305D01*
X-18642629Y11423653D01*
X-18693875Y11486096D01*
X-18703783Y11504634D01*
X-18713122Y11517000D01*
X-18750274Y11591613D01*
X-18790997Y11667800D01*
X-18795340Y11682117D01*
X-18799528Y11690528D01*
X-18824267Y11777476D01*
X-18850805Y11864960D01*
X-18851676Y11873811D01*
X-18852577Y11876975D01*
X-18861940Y11978019D01*
X-18871000Y12070000D01*
X-18871000Y13570000D01*
X-18861939Y13661996D01*
X-18852577Y13763024D01*
X-18851676Y13766187D01*
X-18850805Y13775040D01*
X-18824262Y13862538D01*
X-18799528Y13949471D01*
X-18795341Y13957879D01*
X-18790997Y13972200D01*
X-18750267Y14048399D01*
X-18713122Y14122999D01*
X-18703785Y14135362D01*
X-18693875Y14153904D01*
X-18642620Y14216357D01*
X-18596301Y14277694D01*
X-18580345Y14292238D01*
X-18563169Y14313169D01*
X-18505201Y14360741D01*
X-18453048Y14408286D01*
X-18429511Y14422859D01*
X-18403904Y14443875D01*
X-18342965Y14476447D01*
X-18288232Y14510337D01*
X-18256726Y14522542D01*
X-18222200Y14540997D01*
X-18161773Y14559327D01*
X-18107474Y14580363D01*
X-18068268Y14587691D01*
X-18025040Y14600805D01*
X-17968136Y14606409D01*
X-17916923Y14615983D01*
X-17870938Y14615983D01*
X-17820000Y14621000D01*
X-17769062Y14615983D01*
G37*
G36*
X-15229062Y14615983D02*
G01*
X-15183077Y14615983D01*
X-15131863Y14606409D01*
X-15074960Y14600805D01*
X-15031732Y14587692D01*
X-14992525Y14580363D01*
X-14938221Y14559325D01*
X-14877800Y14540997D01*
X-14843275Y14522543D01*
X-14811767Y14510337D01*
X-14757027Y14476443D01*
X-14696096Y14443875D01*
X-14670491Y14422861D01*
X-14646951Y14408286D01*
X-14594788Y14360733D01*
X-14536831Y14313169D01*
X-14519656Y14292242D01*
X-14503698Y14277694D01*
X-14457367Y14216342D01*
X-14406125Y14153904D01*
X-14396216Y14135366D01*
X-14386877Y14122999D01*
X-14349717Y14048372D01*
X-14309003Y13972200D01*
X-14304660Y13957884D01*
X-14300471Y13949471D01*
X-14275721Y13862485D01*
X-14249195Y13775040D01*
X-14248323Y13766192D01*
X-14247422Y13763024D01*
X-14238052Y13661911D01*
X-14229000Y13570000D01*
X-14229000Y12070000D01*
X-14238051Y11978104D01*
X-14247422Y11876975D01*
X-14248323Y11873805D01*
X-14249195Y11864960D01*
X-14275716Y11777529D01*
X-14300471Y11690528D01*
X-14304661Y11682112D01*
X-14309003Y11667800D01*
X-14349710Y11591641D01*
X-14386877Y11517000D01*
X-14396218Y11504629D01*
X-14406125Y11486096D01*
X-14457357Y11423668D01*
X-14503698Y11362305D01*
X-14519660Y11347753D01*
X-14536831Y11326831D01*
X-14594777Y11279275D01*
X-14646951Y11231713D01*
X-14670496Y11217134D01*
X-14696096Y11196125D01*
X-14757015Y11163563D01*
X-14811767Y11129662D01*
X-14843282Y11117452D01*
X-14877800Y11099003D01*
X-14938209Y11080677D01*
X-14992525Y11059636D01*
X-15031739Y11052305D01*
X-15074960Y11039195D01*
X-15131860Y11033590D01*
X-15183077Y11024017D01*
X-15229062Y11024017D01*
X-15280000Y11019000D01*
X-15330938Y11024017D01*
X-15376923Y11024017D01*
X-15428139Y11033590D01*
X-15485040Y11039195D01*
X-15528261Y11052306D01*
X-15567474Y11059636D01*
X-15621785Y11080676D01*
X-15682200Y11099003D01*
X-15716720Y11117454D01*
X-15748232Y11129662D01*
X-15802977Y11163559D01*
X-15863904Y11196125D01*
X-15889506Y11217136D01*
X-15913048Y11231713D01*
X-15965212Y11279267D01*
X-16023169Y11326831D01*
X-16040342Y11347757D01*
X-16056301Y11362305D01*
X-16102629Y11423653D01*
X-16153875Y11486096D01*
X-16163783Y11504634D01*
X-16173122Y11517000D01*
X-16210274Y11591613D01*
X-16250997Y11667800D01*
X-16255340Y11682117D01*
X-16259528Y11690528D01*
X-16284267Y11777476D01*
X-16310805Y11864960D01*
X-16311676Y11873811D01*
X-16312577Y11876975D01*
X-16321940Y11978019D01*
X-16331000Y12070000D01*
X-16331000Y13570000D01*
X-16321939Y13661996D01*
X-16312577Y13763024D01*
X-16311676Y13766187D01*
X-16310805Y13775040D01*
X-16284262Y13862538D01*
X-16259528Y13949471D01*
X-16255341Y13957879D01*
X-16250997Y13972200D01*
X-16210267Y14048399D01*
X-16173122Y14122999D01*
X-16163785Y14135362D01*
X-16153875Y14153904D01*
X-16102620Y14216357D01*
X-16056301Y14277694D01*
X-16040345Y14292238D01*
X-16023169Y14313169D01*
X-15965201Y14360741D01*
X-15913048Y14408286D01*
X-15889511Y14422859D01*
X-15863904Y14443875D01*
X-15802965Y14476447D01*
X-15748232Y14510337D01*
X-15716726Y14522542D01*
X-15682200Y14540997D01*
X-15621773Y14559327D01*
X-15567474Y14580363D01*
X-15528268Y14587691D01*
X-15485040Y14600805D01*
X-15428136Y14606409D01*
X-15376923Y14615983D01*
X-15330938Y14615983D01*
X-15280000Y14621000D01*
X-15229062Y14615983D01*
G37*
G36*
X-12689062Y14615983D02*
G01*
X-12643077Y14615983D01*
X-12591863Y14606409D01*
X-12534960Y14600805D01*
X-12491732Y14587692D01*
X-12452525Y14580363D01*
X-12398221Y14559325D01*
X-12337800Y14540997D01*
X-12303275Y14522543D01*
X-12271767Y14510337D01*
X-12217027Y14476443D01*
X-12156096Y14443875D01*
X-12130491Y14422861D01*
X-12106951Y14408286D01*
X-12054788Y14360733D01*
X-11996831Y14313169D01*
X-11979656Y14292242D01*
X-11963698Y14277694D01*
X-11917367Y14216342D01*
X-11866125Y14153904D01*
X-11856216Y14135366D01*
X-11846877Y14122999D01*
X-11809717Y14048372D01*
X-11769003Y13972200D01*
X-11764660Y13957884D01*
X-11760471Y13949471D01*
X-11735721Y13862485D01*
X-11709195Y13775040D01*
X-11708323Y13766192D01*
X-11707422Y13763024D01*
X-11698052Y13661911D01*
X-11689000Y13570000D01*
X-11689000Y12070000D01*
X-11698051Y11978104D01*
X-11707422Y11876975D01*
X-11708323Y11873805D01*
X-11709195Y11864960D01*
X-11735716Y11777529D01*
X-11760471Y11690528D01*
X-11764661Y11682112D01*
X-11769003Y11667800D01*
X-11809710Y11591641D01*
X-11846877Y11517000D01*
X-11856218Y11504629D01*
X-11866125Y11486096D01*
X-11917357Y11423668D01*
X-11963698Y11362305D01*
X-11979660Y11347753D01*
X-11996831Y11326831D01*
X-12054777Y11279275D01*
X-12106951Y11231713D01*
X-12130496Y11217134D01*
X-12156096Y11196125D01*
X-12217015Y11163563D01*
X-12271767Y11129662D01*
X-12303282Y11117452D01*
X-12337800Y11099003D01*
X-12398209Y11080677D01*
X-12452525Y11059636D01*
X-12491739Y11052305D01*
X-12534960Y11039195D01*
X-12591860Y11033590D01*
X-12643077Y11024017D01*
X-12689062Y11024017D01*
X-12740000Y11019000D01*
X-12790938Y11024017D01*
X-12836923Y11024017D01*
X-12888139Y11033590D01*
X-12945040Y11039195D01*
X-12988261Y11052306D01*
X-13027474Y11059636D01*
X-13081785Y11080676D01*
X-13142200Y11099003D01*
X-13176720Y11117454D01*
X-13208232Y11129662D01*
X-13262977Y11163559D01*
X-13323904Y11196125D01*
X-13349506Y11217136D01*
X-13373048Y11231713D01*
X-13425212Y11279267D01*
X-13483169Y11326831D01*
X-13500342Y11347757D01*
X-13516301Y11362305D01*
X-13562629Y11423653D01*
X-13613875Y11486096D01*
X-13623783Y11504634D01*
X-13633122Y11517000D01*
X-13670274Y11591613D01*
X-13710997Y11667800D01*
X-13715340Y11682117D01*
X-13719528Y11690528D01*
X-13744267Y11777476D01*
X-13770805Y11864960D01*
X-13771676Y11873811D01*
X-13772577Y11876975D01*
X-13781940Y11978019D01*
X-13791000Y12070000D01*
X-13791000Y13570000D01*
X-13781939Y13661996D01*
X-13772577Y13763024D01*
X-13771676Y13766187D01*
X-13770805Y13775040D01*
X-13744262Y13862538D01*
X-13719528Y13949471D01*
X-13715341Y13957879D01*
X-13710997Y13972200D01*
X-13670267Y14048399D01*
X-13633122Y14122999D01*
X-13623785Y14135362D01*
X-13613875Y14153904D01*
X-13562620Y14216357D01*
X-13516301Y14277694D01*
X-13500345Y14292238D01*
X-13483169Y14313169D01*
X-13425201Y14360741D01*
X-13373048Y14408286D01*
X-13349511Y14422859D01*
X-13323904Y14443875D01*
X-13262965Y14476447D01*
X-13208232Y14510337D01*
X-13176726Y14522542D01*
X-13142200Y14540997D01*
X-13081773Y14559327D01*
X-13027474Y14580363D01*
X-12988268Y14587691D01*
X-12945040Y14600805D01*
X-12888136Y14606409D01*
X-12836923Y14615983D01*
X-12790938Y14615983D01*
X-12740000Y14621000D01*
X-12689062Y14615983D01*
G37*
G36*
X-10149062Y14615983D02*
G01*
X-10103077Y14615983D01*
X-10051863Y14606409D01*
X-9994960Y14600805D01*
X-9951732Y14587692D01*
X-9912525Y14580363D01*
X-9858221Y14559325D01*
X-9797800Y14540997D01*
X-9763275Y14522543D01*
X-9731767Y14510337D01*
X-9677027Y14476443D01*
X-9616096Y14443875D01*
X-9590491Y14422861D01*
X-9566951Y14408286D01*
X-9514788Y14360733D01*
X-9456831Y14313169D01*
X-9439656Y14292242D01*
X-9423698Y14277694D01*
X-9377367Y14216342D01*
X-9326125Y14153904D01*
X-9316216Y14135366D01*
X-9306877Y14122999D01*
X-9269717Y14048372D01*
X-9229003Y13972200D01*
X-9224660Y13957884D01*
X-9220471Y13949471D01*
X-9195721Y13862485D01*
X-9169195Y13775040D01*
X-9168323Y13766192D01*
X-9167422Y13763024D01*
X-9158052Y13661911D01*
X-9149000Y13570000D01*
X-9149000Y12070000D01*
X-9158051Y11978104D01*
X-9167422Y11876975D01*
X-9168323Y11873805D01*
X-9169195Y11864960D01*
X-9195716Y11777529D01*
X-9220471Y11690528D01*
X-9224661Y11682112D01*
X-9229003Y11667800D01*
X-9269710Y11591641D01*
X-9306877Y11517000D01*
X-9316218Y11504629D01*
X-9326125Y11486096D01*
X-9377357Y11423668D01*
X-9423698Y11362305D01*
X-9439660Y11347753D01*
X-9456831Y11326831D01*
X-9514777Y11279275D01*
X-9566951Y11231713D01*
X-9590496Y11217134D01*
X-9616096Y11196125D01*
X-9677015Y11163563D01*
X-9731767Y11129662D01*
X-9763282Y11117452D01*
X-9797800Y11099003D01*
X-9858209Y11080677D01*
X-9912525Y11059636D01*
X-9951739Y11052305D01*
X-9994960Y11039195D01*
X-10051860Y11033590D01*
X-10103077Y11024017D01*
X-10149062Y11024017D01*
X-10200000Y11019000D01*
X-10250938Y11024017D01*
X-10296923Y11024017D01*
X-10348139Y11033590D01*
X-10405040Y11039195D01*
X-10448261Y11052306D01*
X-10487474Y11059636D01*
X-10541785Y11080676D01*
X-10602200Y11099003D01*
X-10636720Y11117454D01*
X-10668232Y11129662D01*
X-10722977Y11163559D01*
X-10783904Y11196125D01*
X-10809506Y11217136D01*
X-10833048Y11231713D01*
X-10885212Y11279267D01*
X-10943169Y11326831D01*
X-10960342Y11347757D01*
X-10976301Y11362305D01*
X-11022629Y11423653D01*
X-11073875Y11486096D01*
X-11083783Y11504634D01*
X-11093122Y11517000D01*
X-11130274Y11591613D01*
X-11170997Y11667800D01*
X-11175340Y11682117D01*
X-11179528Y11690528D01*
X-11204267Y11777476D01*
X-11230805Y11864960D01*
X-11231676Y11873811D01*
X-11232577Y11876975D01*
X-11241940Y11978019D01*
X-11251000Y12070000D01*
X-11251000Y13570000D01*
X-11241939Y13661996D01*
X-11232577Y13763024D01*
X-11231676Y13766187D01*
X-11230805Y13775040D01*
X-11204262Y13862538D01*
X-11179528Y13949471D01*
X-11175341Y13957879D01*
X-11170997Y13972200D01*
X-11130267Y14048399D01*
X-11093122Y14122999D01*
X-11083785Y14135362D01*
X-11073875Y14153904D01*
X-11022620Y14216357D01*
X-10976301Y14277694D01*
X-10960345Y14292238D01*
X-10943169Y14313169D01*
X-10885201Y14360741D01*
X-10833048Y14408286D01*
X-10809511Y14422859D01*
X-10783904Y14443875D01*
X-10722965Y14476447D01*
X-10668232Y14510337D01*
X-10636726Y14522542D01*
X-10602200Y14540997D01*
X-10541773Y14559327D01*
X-10487474Y14580363D01*
X-10448268Y14587691D01*
X-10405040Y14600805D01*
X-10348136Y14606409D01*
X-10296923Y14615983D01*
X-10250938Y14615983D01*
X-10200000Y14621000D01*
X-10149062Y14615983D01*
G37*
G36*
X-7609062Y14615983D02*
G01*
X-7563077Y14615983D01*
X-7511863Y14606409D01*
X-7454960Y14600805D01*
X-7411732Y14587692D01*
X-7372525Y14580363D01*
X-7318221Y14559325D01*
X-7257800Y14540997D01*
X-7223275Y14522543D01*
X-7191767Y14510337D01*
X-7137027Y14476443D01*
X-7076096Y14443875D01*
X-7050491Y14422861D01*
X-7026951Y14408286D01*
X-6974788Y14360733D01*
X-6916831Y14313169D01*
X-6899656Y14292242D01*
X-6883698Y14277694D01*
X-6837367Y14216342D01*
X-6786125Y14153904D01*
X-6776216Y14135366D01*
X-6766877Y14122999D01*
X-6729717Y14048372D01*
X-6689003Y13972200D01*
X-6684660Y13957884D01*
X-6680471Y13949471D01*
X-6655721Y13862485D01*
X-6629195Y13775040D01*
X-6628323Y13766192D01*
X-6627422Y13763024D01*
X-6618052Y13661911D01*
X-6609000Y13570000D01*
X-6609000Y12070000D01*
X-6618051Y11978104D01*
X-6627422Y11876975D01*
X-6628323Y11873805D01*
X-6629195Y11864960D01*
X-6655716Y11777529D01*
X-6680471Y11690528D01*
X-6684661Y11682112D01*
X-6689003Y11667800D01*
X-6729710Y11591641D01*
X-6766877Y11517000D01*
X-6776218Y11504629D01*
X-6786125Y11486096D01*
X-6837357Y11423668D01*
X-6883698Y11362305D01*
X-6899660Y11347753D01*
X-6916831Y11326831D01*
X-6974777Y11279275D01*
X-7026951Y11231713D01*
X-7050496Y11217134D01*
X-7076096Y11196125D01*
X-7137015Y11163563D01*
X-7191767Y11129662D01*
X-7223282Y11117452D01*
X-7257800Y11099003D01*
X-7318209Y11080677D01*
X-7372525Y11059636D01*
X-7411739Y11052305D01*
X-7454960Y11039195D01*
X-7511860Y11033590D01*
X-7563077Y11024017D01*
X-7609062Y11024017D01*
X-7660000Y11019000D01*
X-7710938Y11024017D01*
X-7756923Y11024017D01*
X-7808139Y11033590D01*
X-7865040Y11039195D01*
X-7908261Y11052306D01*
X-7947474Y11059636D01*
X-8001785Y11080676D01*
X-8062200Y11099003D01*
X-8096720Y11117454D01*
X-8128232Y11129662D01*
X-8182977Y11163559D01*
X-8243904Y11196125D01*
X-8269506Y11217136D01*
X-8293048Y11231713D01*
X-8345212Y11279267D01*
X-8403169Y11326831D01*
X-8420342Y11347757D01*
X-8436301Y11362305D01*
X-8482629Y11423653D01*
X-8533875Y11486096D01*
X-8543783Y11504634D01*
X-8553122Y11517000D01*
X-8590274Y11591613D01*
X-8630997Y11667800D01*
X-8635340Y11682117D01*
X-8639528Y11690528D01*
X-8664267Y11777476D01*
X-8690805Y11864960D01*
X-8691676Y11873811D01*
X-8692577Y11876975D01*
X-8701940Y11978019D01*
X-8711000Y12070000D01*
X-8711000Y13570000D01*
X-8701939Y13661996D01*
X-8692577Y13763024D01*
X-8691676Y13766187D01*
X-8690805Y13775040D01*
X-8664262Y13862538D01*
X-8639528Y13949471D01*
X-8635341Y13957879D01*
X-8630997Y13972200D01*
X-8590267Y14048399D01*
X-8553122Y14122999D01*
X-8543785Y14135362D01*
X-8533875Y14153904D01*
X-8482620Y14216357D01*
X-8436301Y14277694D01*
X-8420345Y14292238D01*
X-8403169Y14313169D01*
X-8345201Y14360741D01*
X-8293048Y14408286D01*
X-8269511Y14422859D01*
X-8243904Y14443875D01*
X-8182965Y14476447D01*
X-8128232Y14510337D01*
X-8096726Y14522542D01*
X-8062200Y14540997D01*
X-8001773Y14559327D01*
X-7947474Y14580363D01*
X-7908268Y14587691D01*
X-7865040Y14600805D01*
X-7808136Y14606409D01*
X-7756923Y14615983D01*
X-7710938Y14615983D01*
X-7660000Y14621000D01*
X-7609062Y14615983D01*
G37*
G36*
X-5069062Y14615983D02*
G01*
X-5023077Y14615983D01*
X-4971863Y14606409D01*
X-4914960Y14600805D01*
X-4871732Y14587692D01*
X-4832525Y14580363D01*
X-4778221Y14559325D01*
X-4717800Y14540997D01*
X-4683275Y14522543D01*
X-4651767Y14510337D01*
X-4597027Y14476443D01*
X-4536096Y14443875D01*
X-4510491Y14422861D01*
X-4486951Y14408286D01*
X-4434788Y14360733D01*
X-4376831Y14313169D01*
X-4359656Y14292242D01*
X-4343698Y14277694D01*
X-4297367Y14216342D01*
X-4246125Y14153904D01*
X-4236216Y14135366D01*
X-4226877Y14122999D01*
X-4189717Y14048372D01*
X-4149003Y13972200D01*
X-4144660Y13957884D01*
X-4140471Y13949471D01*
X-4115721Y13862485D01*
X-4089195Y13775040D01*
X-4088323Y13766192D01*
X-4087422Y13763024D01*
X-4078052Y13661911D01*
X-4069000Y13570000D01*
X-4069000Y12070000D01*
X-4078051Y11978104D01*
X-4087422Y11876975D01*
X-4088323Y11873805D01*
X-4089195Y11864960D01*
X-4115716Y11777529D01*
X-4140471Y11690528D01*
X-4144661Y11682112D01*
X-4149003Y11667800D01*
X-4189710Y11591641D01*
X-4226877Y11517000D01*
X-4236218Y11504629D01*
X-4246125Y11486096D01*
X-4297357Y11423668D01*
X-4343698Y11362305D01*
X-4359660Y11347753D01*
X-4376831Y11326831D01*
X-4434777Y11279275D01*
X-4486951Y11231713D01*
X-4510496Y11217134D01*
X-4536096Y11196125D01*
X-4597015Y11163563D01*
X-4651767Y11129662D01*
X-4683282Y11117452D01*
X-4717800Y11099003D01*
X-4778209Y11080677D01*
X-4832525Y11059636D01*
X-4871739Y11052305D01*
X-4914960Y11039195D01*
X-4971860Y11033590D01*
X-5023077Y11024017D01*
X-5069062Y11024017D01*
X-5120000Y11019000D01*
X-5170938Y11024017D01*
X-5216923Y11024017D01*
X-5268139Y11033590D01*
X-5325040Y11039195D01*
X-5368261Y11052306D01*
X-5407474Y11059636D01*
X-5461785Y11080676D01*
X-5522200Y11099003D01*
X-5556720Y11117454D01*
X-5588232Y11129662D01*
X-5642977Y11163559D01*
X-5703904Y11196125D01*
X-5729506Y11217136D01*
X-5753048Y11231713D01*
X-5805212Y11279267D01*
X-5863169Y11326831D01*
X-5880342Y11347757D01*
X-5896301Y11362305D01*
X-5942629Y11423653D01*
X-5993875Y11486096D01*
X-6003783Y11504634D01*
X-6013122Y11517000D01*
X-6050274Y11591613D01*
X-6090997Y11667800D01*
X-6095340Y11682117D01*
X-6099528Y11690528D01*
X-6124267Y11777476D01*
X-6150805Y11864960D01*
X-6151676Y11873811D01*
X-6152577Y11876975D01*
X-6161940Y11978019D01*
X-6171000Y12070000D01*
X-6171000Y13570000D01*
X-6161939Y13661996D01*
X-6152577Y13763024D01*
X-6151676Y13766187D01*
X-6150805Y13775040D01*
X-6124262Y13862538D01*
X-6099528Y13949471D01*
X-6095341Y13957879D01*
X-6090997Y13972200D01*
X-6050267Y14048399D01*
X-6013122Y14122999D01*
X-6003785Y14135362D01*
X-5993875Y14153904D01*
X-5942620Y14216357D01*
X-5896301Y14277694D01*
X-5880345Y14292238D01*
X-5863169Y14313169D01*
X-5805201Y14360741D01*
X-5753048Y14408286D01*
X-5729511Y14422859D01*
X-5703904Y14443875D01*
X-5642965Y14476447D01*
X-5588232Y14510337D01*
X-5556726Y14522542D01*
X-5522200Y14540997D01*
X-5461773Y14559327D01*
X-5407474Y14580363D01*
X-5368268Y14587691D01*
X-5325040Y14600805D01*
X-5268136Y14606409D01*
X-5216923Y14615983D01*
X-5170938Y14615983D01*
X-5120000Y14621000D01*
X-5069062Y14615983D01*
G37*
G36*
X-2529062Y14615983D02*
G01*
X-2483077Y14615983D01*
X-2431863Y14606409D01*
X-2374960Y14600805D01*
X-2331732Y14587692D01*
X-2292525Y14580363D01*
X-2238221Y14559325D01*
X-2177800Y14540997D01*
X-2143275Y14522543D01*
X-2111767Y14510337D01*
X-2057027Y14476443D01*
X-1996096Y14443875D01*
X-1970491Y14422861D01*
X-1946951Y14408286D01*
X-1894788Y14360733D01*
X-1836831Y14313169D01*
X-1819656Y14292242D01*
X-1803698Y14277694D01*
X-1757367Y14216342D01*
X-1706125Y14153904D01*
X-1696216Y14135366D01*
X-1686877Y14122999D01*
X-1649717Y14048372D01*
X-1609003Y13972200D01*
X-1604660Y13957884D01*
X-1600471Y13949471D01*
X-1575721Y13862485D01*
X-1549195Y13775040D01*
X-1548323Y13766192D01*
X-1547422Y13763024D01*
X-1538052Y13661911D01*
X-1529000Y13570000D01*
X-1529000Y12070000D01*
X-1538051Y11978104D01*
X-1547422Y11876975D01*
X-1548323Y11873805D01*
X-1549195Y11864960D01*
X-1575716Y11777529D01*
X-1600471Y11690528D01*
X-1604661Y11682112D01*
X-1609003Y11667800D01*
X-1649710Y11591641D01*
X-1686877Y11517000D01*
X-1696218Y11504629D01*
X-1706125Y11486096D01*
X-1757357Y11423668D01*
X-1803698Y11362305D01*
X-1819660Y11347753D01*
X-1836831Y11326831D01*
X-1894777Y11279275D01*
X-1946951Y11231713D01*
X-1970496Y11217134D01*
X-1996096Y11196125D01*
X-2057015Y11163563D01*
X-2111767Y11129662D01*
X-2143282Y11117452D01*
X-2177800Y11099003D01*
X-2238209Y11080677D01*
X-2292525Y11059636D01*
X-2331739Y11052305D01*
X-2374960Y11039195D01*
X-2431860Y11033590D01*
X-2483077Y11024017D01*
X-2529062Y11024017D01*
X-2580000Y11019000D01*
X-2630938Y11024017D01*
X-2676923Y11024017D01*
X-2728139Y11033590D01*
X-2785040Y11039195D01*
X-2828261Y11052306D01*
X-2867474Y11059636D01*
X-2921785Y11080676D01*
X-2982200Y11099003D01*
X-3016720Y11117454D01*
X-3048232Y11129662D01*
X-3102977Y11163559D01*
X-3163904Y11196125D01*
X-3189506Y11217136D01*
X-3213048Y11231713D01*
X-3265212Y11279267D01*
X-3323169Y11326831D01*
X-3340342Y11347757D01*
X-3356301Y11362305D01*
X-3402629Y11423653D01*
X-3453875Y11486096D01*
X-3463783Y11504634D01*
X-3473122Y11517000D01*
X-3510274Y11591613D01*
X-3550997Y11667800D01*
X-3555340Y11682117D01*
X-3559528Y11690528D01*
X-3584267Y11777476D01*
X-3610805Y11864960D01*
X-3611676Y11873811D01*
X-3612577Y11876975D01*
X-3621940Y11978019D01*
X-3631000Y12070000D01*
X-3631000Y13570000D01*
X-3621939Y13661996D01*
X-3612577Y13763024D01*
X-3611676Y13766187D01*
X-3610805Y13775040D01*
X-3584262Y13862538D01*
X-3559528Y13949471D01*
X-3555341Y13957879D01*
X-3550997Y13972200D01*
X-3510267Y14048399D01*
X-3473122Y14122999D01*
X-3463785Y14135362D01*
X-3453875Y14153904D01*
X-3402620Y14216357D01*
X-3356301Y14277694D01*
X-3340345Y14292238D01*
X-3323169Y14313169D01*
X-3265201Y14360741D01*
X-3213048Y14408286D01*
X-3189511Y14422859D01*
X-3163904Y14443875D01*
X-3102965Y14476447D01*
X-3048232Y14510337D01*
X-3016726Y14522542D01*
X-2982200Y14540997D01*
X-2921773Y14559327D01*
X-2867474Y14580363D01*
X-2828268Y14587691D01*
X-2785040Y14600805D01*
X-2728136Y14606409D01*
X-2676923Y14615983D01*
X-2630938Y14615983D01*
X-2580000Y14621000D01*
X-2529062Y14615983D01*
G37*
G36*
X19253973Y13066064D02*
G01*
X19304180Y13066064D01*
X19347532Y13056849D01*
X19385659Y13053094D01*
X19433555Y13038564D01*
X19488424Y13026902D01*
X19523537Y13011268D01*
X19554566Y13001856D01*
X19603873Y12975500D01*
X19660500Y12950289D01*
X19686827Y12931161D01*
X19710232Y12918651D01*
X19757977Y12879467D01*
X19812887Y12839573D01*
X19830714Y12819773D01*
X19846675Y12806675D01*
X19889563Y12754415D01*
X19938924Y12699595D01*
X19949294Y12681633D01*
X19958651Y12670232D01*
X19993266Y12605470D01*
X20033104Y12536470D01*
X20037686Y12522366D01*
X20041856Y12514566D01*
X20064848Y12438771D01*
X20091311Y12357328D01*
X20092242Y12348466D01*
X20093094Y12345659D01*
X20101383Y12261494D01*
X20111000Y12170000D01*
X20101384Y12078513D01*
X20093094Y11994340D01*
X20092242Y11991532D01*
X20091311Y11982672D01*
X20064852Y11901242D01*
X20041856Y11825433D01*
X20037685Y11817630D01*
X20033104Y11803530D01*
X19993273Y11734542D01*
X19958651Y11669767D01*
X19949292Y11658363D01*
X19938924Y11640405D01*
X19889572Y11585594D01*
X19846675Y11533324D01*
X19830711Y11520223D01*
X19812887Y11500427D01*
X19757988Y11460540D01*
X19710232Y11421348D01*
X19686822Y11408835D01*
X19660500Y11389711D01*
X19603884Y11364504D01*
X19554566Y11338143D01*
X19523530Y11328728D01*
X19488424Y11313098D01*
X19433566Y11301437D01*
X19385659Y11286905D01*
X19347524Y11283149D01*
X19304180Y11273936D01*
X19253983Y11273936D01*
X19210000Y11269604D01*
X19166016Y11273936D01*
X19115820Y11273936D01*
X19072476Y11283148D01*
X19034340Y11286905D01*
X18986430Y11301438D01*
X18931576Y11313098D01*
X18896471Y11328727D01*
X18865433Y11338143D01*
X18816109Y11364506D01*
X18759500Y11389711D01*
X18733180Y11408833D01*
X18709767Y11421348D01*
X18662002Y11460546D01*
X18607113Y11500427D01*
X18589291Y11520219D01*
X18573324Y11533324D01*
X18530416Y11585607D01*
X18481076Y11640405D01*
X18470710Y11658359D01*
X18461348Y11669767D01*
X18426712Y11734565D01*
X18386896Y11803530D01*
X18382315Y11817626D01*
X18378143Y11825433D01*
X18355132Y11901288D01*
X18328689Y11982672D01*
X18327758Y11991527D01*
X18326905Y11994340D01*
X18318599Y12078664D01*
X18309000Y12170000D01*
X18318600Y12261342D01*
X18326905Y12345659D01*
X18327758Y12348471D01*
X18328689Y12357328D01*
X18355136Y12438725D01*
X18378143Y12514566D01*
X18382315Y12522371D01*
X18386896Y12536470D01*
X18426719Y12605447D01*
X18461348Y12670232D01*
X18470708Y12681637D01*
X18481076Y12699595D01*
X18530425Y12754402D01*
X18573324Y12806675D01*
X18589287Y12819776D01*
X18607113Y12839573D01*
X18662013Y12879460D01*
X18709767Y12918651D01*
X18733175Y12931163D01*
X18759500Y12950289D01*
X18816120Y12975498D01*
X18865433Y13001856D01*
X18896464Y13011269D01*
X18931576Y13026902D01*
X18986441Y13038563D01*
X19034340Y13053094D01*
X19072467Y13056849D01*
X19115820Y13066064D01*
X19166027Y13066064D01*
X19210000Y13070395D01*
X19253973Y13066064D01*
G37*
G36*
X16713973Y13086064D02*
G01*
X16764180Y13086064D01*
X16807532Y13076849D01*
X16845659Y13073094D01*
X16893555Y13058564D01*
X16948424Y13046902D01*
X16983537Y13031268D01*
X17014566Y13021856D01*
X17063873Y12995500D01*
X17120500Y12970289D01*
X17146827Y12951161D01*
X17170232Y12938651D01*
X17217977Y12899467D01*
X17272887Y12859573D01*
X17290714Y12839773D01*
X17306675Y12826675D01*
X17349563Y12774415D01*
X17398924Y12719595D01*
X17409294Y12701633D01*
X17418651Y12690232D01*
X17453266Y12625470D01*
X17493104Y12556470D01*
X17497686Y12542366D01*
X17501856Y12534566D01*
X17524848Y12458771D01*
X17551311Y12377328D01*
X17552242Y12368466D01*
X17553094Y12365659D01*
X17561383Y12281494D01*
X17571000Y12190000D01*
X17561384Y12098513D01*
X17553094Y12014340D01*
X17552242Y12011532D01*
X17551311Y12002672D01*
X17524852Y11921242D01*
X17501856Y11845433D01*
X17497685Y11837630D01*
X17493104Y11823530D01*
X17453273Y11754542D01*
X17418651Y11689767D01*
X17409292Y11678363D01*
X17398924Y11660405D01*
X17349572Y11605594D01*
X17306675Y11553324D01*
X17290711Y11540223D01*
X17272887Y11520427D01*
X17217988Y11480540D01*
X17170232Y11441348D01*
X17146822Y11428835D01*
X17120500Y11409711D01*
X17063884Y11384504D01*
X17014566Y11358143D01*
X16983530Y11348728D01*
X16948424Y11333098D01*
X16893566Y11321437D01*
X16845659Y11306905D01*
X16807524Y11303149D01*
X16764180Y11293936D01*
X16713983Y11293936D01*
X16670000Y11289604D01*
X16626016Y11293936D01*
X16575820Y11293936D01*
X16532476Y11303148D01*
X16494340Y11306905D01*
X16446430Y11321438D01*
X16391576Y11333098D01*
X16356471Y11348727D01*
X16325433Y11358143D01*
X16276109Y11384506D01*
X16219500Y11409711D01*
X16193180Y11428833D01*
X16169767Y11441348D01*
X16122002Y11480546D01*
X16067113Y11520427D01*
X16049291Y11540219D01*
X16033324Y11553324D01*
X15990416Y11605607D01*
X15941076Y11660405D01*
X15930710Y11678359D01*
X15921348Y11689767D01*
X15886712Y11754565D01*
X15846896Y11823530D01*
X15842315Y11837626D01*
X15838143Y11845433D01*
X15815132Y11921288D01*
X15788689Y12002672D01*
X15787758Y12011527D01*
X15786905Y12014340D01*
X15778599Y12098664D01*
X15769000Y12190000D01*
X15778600Y12281342D01*
X15786905Y12365659D01*
X15787758Y12368471D01*
X15788689Y12377328D01*
X15815136Y12458725D01*
X15838143Y12534566D01*
X15842315Y12542371D01*
X15846896Y12556470D01*
X15886719Y12625447D01*
X15921348Y12690232D01*
X15930708Y12701637D01*
X15941076Y12719595D01*
X15990425Y12774402D01*
X16033324Y12826675D01*
X16049287Y12839776D01*
X16067113Y12859573D01*
X16122013Y12899460D01*
X16169767Y12938651D01*
X16193175Y12951163D01*
X16219500Y12970289D01*
X16276120Y12995498D01*
X16325433Y13021856D01*
X16356464Y13031269D01*
X16391576Y13046902D01*
X16446441Y13058563D01*
X16494340Y13073094D01*
X16532467Y13076849D01*
X16575820Y13086064D01*
X16626027Y13086064D01*
X16670000Y13090395D01*
X16713973Y13086064D01*
G37*
G36*
X3977654Y14598879D02*
G01*
X4057328Y14591640D01*
X4069485Y14587851D01*
X4090457Y14585333D01*
X4139007Y14566187D01*
X4185759Y14551619D01*
X4204161Y14540494D01*
X4230051Y14530285D01*
X4265430Y14503456D01*
X4299244Y14483015D01*
X4320763Y14461495D01*
X4349616Y14439616D01*
X4371495Y14410763D01*
X4393015Y14389244D01*
X4413456Y14355430D01*
X4440285Y14320051D01*
X4450494Y14294161D01*
X4461619Y14275759D01*
X4476187Y14229007D01*
X4495333Y14180457D01*
X4497851Y14159485D01*
X4501640Y14147328D01*
X4508879Y14067654D01*
X4511000Y14050000D01*
X4511000Y13050000D01*
X4508880Y13032348D01*
X4501640Y12952671D01*
X4497851Y12940512D01*
X4495333Y12919543D01*
X4476189Y12870996D01*
X4461619Y12824240D01*
X4450493Y12805835D01*
X4440285Y12779949D01*
X4413459Y12744573D01*
X4393015Y12710755D01*
X4371492Y12689232D01*
X4349616Y12660384D01*
X4320767Y12638507D01*
X4299244Y12616984D01*
X4265423Y12596538D01*
X4230051Y12569715D01*
X4204166Y12559507D01*
X4185759Y12548380D01*
X4138994Y12533807D01*
X4090457Y12514667D01*
X4069490Y12512149D01*
X4057328Y12508359D01*
X3977620Y12501116D01*
X3960000Y12499000D01*
X3954333Y12499000D01*
X1465666Y12499000D01*
X1460000Y12499000D01*
X1442382Y12501115D01*
X1362671Y12508359D01*
X1350507Y12512149D01*
X1329543Y12514667D01*
X1281008Y12533806D01*
X1234240Y12548380D01*
X1215831Y12559508D01*
X1189949Y12569715D01*
X1154580Y12596535D01*
X1120755Y12616984D01*
X1099228Y12638510D01*
X1070384Y12660384D01*
X1048510Y12689228D01*
X1026984Y12710755D01*
X1006535Y12744580D01*
X979715Y12779949D01*
X969508Y12805831D01*
X958380Y12824240D01*
X943806Y12871008D01*
X924667Y12919543D01*
X922149Y12940507D01*
X918359Y12952671D01*
X911115Y13032382D01*
X909000Y13050000D01*
X909000Y14050000D01*
X911116Y14067620D01*
X918359Y14147328D01*
X922149Y14159490D01*
X924667Y14180457D01*
X943807Y14228994D01*
X958380Y14275759D01*
X969507Y14294166D01*
X979715Y14320051D01*
X1006538Y14355423D01*
X1026984Y14389244D01*
X1048507Y14410767D01*
X1070384Y14439616D01*
X1099232Y14461492D01*
X1120755Y14483015D01*
X1154573Y14503459D01*
X1189949Y14530285D01*
X1215835Y14540493D01*
X1234240Y14551619D01*
X1280996Y14566189D01*
X1329543Y14585333D01*
X1350512Y14587851D01*
X1362671Y14591640D01*
X1442348Y14598880D01*
X1460000Y14601000D01*
X3960000Y14601000D01*
X3977654Y14598879D01*
G37*
G36*
X14137654Y14598879D02*
G01*
X14217328Y14591640D01*
X14229485Y14587851D01*
X14250457Y14585333D01*
X14299007Y14566187D01*
X14345759Y14551619D01*
X14364161Y14540494D01*
X14390051Y14530285D01*
X14425430Y14503456D01*
X14459244Y14483015D01*
X14480763Y14461495D01*
X14509616Y14439616D01*
X14531495Y14410763D01*
X14553015Y14389244D01*
X14573456Y14355430D01*
X14600285Y14320051D01*
X14610494Y14294161D01*
X14621619Y14275759D01*
X14636187Y14229007D01*
X14655333Y14180457D01*
X14657851Y14159485D01*
X14661640Y14147328D01*
X14668879Y14067654D01*
X14671000Y14050000D01*
X14671000Y13050000D01*
X14668880Y13032348D01*
X14661640Y12952671D01*
X14657851Y12940512D01*
X14655333Y12919543D01*
X14636189Y12870996D01*
X14621619Y12824240D01*
X14610493Y12805835D01*
X14600285Y12779949D01*
X14573459Y12744573D01*
X14553015Y12710755D01*
X14531492Y12689232D01*
X14509616Y12660384D01*
X14480767Y12638507D01*
X14459244Y12616984D01*
X14425423Y12596538D01*
X14390051Y12569715D01*
X14364166Y12559507D01*
X14345759Y12548380D01*
X14298994Y12533807D01*
X14250457Y12514667D01*
X14229490Y12512149D01*
X14217328Y12508359D01*
X14137620Y12501116D01*
X14120000Y12499000D01*
X14114333Y12499000D01*
X11625666Y12499000D01*
X11620000Y12499000D01*
X11602382Y12501115D01*
X11522671Y12508359D01*
X11510507Y12512149D01*
X11489543Y12514667D01*
X11441008Y12533806D01*
X11394240Y12548380D01*
X11375831Y12559508D01*
X11349949Y12569715D01*
X11314580Y12596535D01*
X11280755Y12616984D01*
X11259228Y12638510D01*
X11230384Y12660384D01*
X11208510Y12689228D01*
X11186984Y12710755D01*
X11166535Y12744580D01*
X11139715Y12779949D01*
X11129508Y12805831D01*
X11118380Y12824240D01*
X11103806Y12871008D01*
X11084667Y12919543D01*
X11082149Y12940507D01*
X11078359Y12952671D01*
X11071115Y13032382D01*
X11069000Y13050000D01*
X11069000Y14050000D01*
X11071116Y14067620D01*
X11078359Y14147328D01*
X11082149Y14159490D01*
X11084667Y14180457D01*
X11103807Y14228994D01*
X11118380Y14275759D01*
X11129507Y14294166D01*
X11139715Y14320051D01*
X11166538Y14355423D01*
X11186984Y14389244D01*
X11208507Y14410767D01*
X11230384Y14439616D01*
X11259232Y14461492D01*
X11280755Y14483015D01*
X11314573Y14503459D01*
X11349949Y14530285D01*
X11375835Y14540493D01*
X11394240Y14551619D01*
X11440996Y14566189D01*
X11489543Y14585333D01*
X11510512Y14587851D01*
X11522671Y14591640D01*
X11602348Y14598880D01*
X11620000Y14601000D01*
X14120000Y14601000D01*
X14137654Y14598879D01*
G37*
G36*
X16713973Y15606064D02*
G01*
X16764180Y15606064D01*
X16807532Y15596849D01*
X16845659Y15593094D01*
X16893555Y15578564D01*
X16948424Y15566902D01*
X16983537Y15551268D01*
X17014566Y15541856D01*
X17063873Y15515500D01*
X17120500Y15490289D01*
X17146827Y15471161D01*
X17170232Y15458651D01*
X17217977Y15419467D01*
X17272887Y15379573D01*
X17290714Y15359773D01*
X17306675Y15346675D01*
X17349563Y15294415D01*
X17398924Y15239595D01*
X17409294Y15221633D01*
X17418651Y15210232D01*
X17453266Y15145470D01*
X17493104Y15076470D01*
X17497686Y15062366D01*
X17501856Y15054566D01*
X17524848Y14978771D01*
X17551311Y14897328D01*
X17552242Y14888466D01*
X17553094Y14885659D01*
X17561383Y14801494D01*
X17571000Y14710000D01*
X17561384Y14618513D01*
X17553094Y14534340D01*
X17552242Y14531532D01*
X17551311Y14522672D01*
X17524852Y14441242D01*
X17501856Y14365433D01*
X17497685Y14357630D01*
X17493104Y14343530D01*
X17453273Y14274542D01*
X17418651Y14209767D01*
X17409292Y14198363D01*
X17398924Y14180405D01*
X17349572Y14125594D01*
X17306675Y14073324D01*
X17290711Y14060223D01*
X17272887Y14040427D01*
X17217988Y14000540D01*
X17170232Y13961348D01*
X17146822Y13948835D01*
X17120500Y13929711D01*
X17063884Y13904504D01*
X17014566Y13878143D01*
X16983530Y13868728D01*
X16948424Y13853098D01*
X16893566Y13841437D01*
X16845659Y13826905D01*
X16807524Y13823149D01*
X16764180Y13813936D01*
X16713983Y13813936D01*
X16670000Y13809604D01*
X16626016Y13813936D01*
X16575820Y13813936D01*
X16532476Y13823148D01*
X16494340Y13826905D01*
X16446430Y13841438D01*
X16391576Y13853098D01*
X16356471Y13868727D01*
X16325433Y13878143D01*
X16276109Y13904506D01*
X16219500Y13929711D01*
X16193180Y13948833D01*
X16169767Y13961348D01*
X16122002Y14000546D01*
X16067113Y14040427D01*
X16049291Y14060219D01*
X16033324Y14073324D01*
X15990416Y14125607D01*
X15941076Y14180405D01*
X15930710Y14198359D01*
X15921348Y14209767D01*
X15886712Y14274565D01*
X15846896Y14343530D01*
X15842315Y14357626D01*
X15838143Y14365433D01*
X15815132Y14441288D01*
X15788689Y14522672D01*
X15787758Y14531527D01*
X15786905Y14534340D01*
X15778599Y14618664D01*
X15769000Y14710000D01*
X15778600Y14801342D01*
X15786905Y14885659D01*
X15787758Y14888471D01*
X15788689Y14897328D01*
X15815136Y14978725D01*
X15838143Y15054566D01*
X15842315Y15062371D01*
X15846896Y15076470D01*
X15886719Y15145447D01*
X15921348Y15210232D01*
X15930708Y15221637D01*
X15941076Y15239595D01*
X15990425Y15294402D01*
X16033324Y15346675D01*
X16049287Y15359776D01*
X16067113Y15379573D01*
X16122013Y15419460D01*
X16169767Y15458651D01*
X16193175Y15471163D01*
X16219500Y15490289D01*
X16276120Y15515498D01*
X16325433Y15541856D01*
X16356464Y15551269D01*
X16391576Y15566902D01*
X16446441Y15578563D01*
X16494340Y15593094D01*
X16532467Y15596849D01*
X16575820Y15606064D01*
X16626027Y15606064D01*
X16670000Y15610395D01*
X16713973Y15606064D01*
G37*
G36*
X19253973Y15606064D02*
G01*
X19304180Y15606064D01*
X19347532Y15596849D01*
X19385659Y15593094D01*
X19433555Y15578564D01*
X19488424Y15566902D01*
X19523537Y15551268D01*
X19554566Y15541856D01*
X19603873Y15515500D01*
X19660500Y15490289D01*
X19686827Y15471161D01*
X19710232Y15458651D01*
X19757977Y15419467D01*
X19812887Y15379573D01*
X19830714Y15359773D01*
X19846675Y15346675D01*
X19889563Y15294415D01*
X19938924Y15239595D01*
X19949294Y15221633D01*
X19958651Y15210232D01*
X19993266Y15145470D01*
X20033104Y15076470D01*
X20037686Y15062366D01*
X20041856Y15054566D01*
X20064848Y14978771D01*
X20091311Y14897328D01*
X20092242Y14888466D01*
X20093094Y14885659D01*
X20101383Y14801494D01*
X20111000Y14710000D01*
X20101384Y14618513D01*
X20093094Y14534340D01*
X20092242Y14531532D01*
X20091311Y14522672D01*
X20064852Y14441242D01*
X20041856Y14365433D01*
X20037685Y14357630D01*
X20033104Y14343530D01*
X19993273Y14274542D01*
X19958651Y14209767D01*
X19949292Y14198363D01*
X19938924Y14180405D01*
X19889572Y14125594D01*
X19846675Y14073324D01*
X19830711Y14060223D01*
X19812887Y14040427D01*
X19757988Y14000540D01*
X19710232Y13961348D01*
X19686822Y13948835D01*
X19660500Y13929711D01*
X19603884Y13904504D01*
X19554566Y13878143D01*
X19523530Y13868728D01*
X19488424Y13853098D01*
X19433566Y13841437D01*
X19385659Y13826905D01*
X19347524Y13823149D01*
X19304180Y13813936D01*
X19253983Y13813936D01*
X19210000Y13809604D01*
X19166016Y13813936D01*
X19115820Y13813936D01*
X19072476Y13823148D01*
X19034340Y13826905D01*
X18986430Y13841438D01*
X18931576Y13853098D01*
X18896471Y13868727D01*
X18865433Y13878143D01*
X18816109Y13904506D01*
X18759500Y13929711D01*
X18733180Y13948833D01*
X18709767Y13961348D01*
X18662002Y14000546D01*
X18607113Y14040427D01*
X18589291Y14060219D01*
X18573324Y14073324D01*
X18530416Y14125607D01*
X18481076Y14180405D01*
X18470710Y14198359D01*
X18461348Y14209767D01*
X18426712Y14274565D01*
X18386896Y14343530D01*
X18382315Y14357626D01*
X18378143Y14365433D01*
X18355132Y14441288D01*
X18328689Y14522672D01*
X18327758Y14531527D01*
X18326905Y14534340D01*
X18318599Y14618664D01*
X18309000Y14710000D01*
X18318600Y14801342D01*
X18326905Y14885659D01*
X18327758Y14888471D01*
X18328689Y14897328D01*
X18355136Y14978725D01*
X18378143Y15054566D01*
X18382315Y15062371D01*
X18386896Y15076470D01*
X18426719Y15145447D01*
X18461348Y15210232D01*
X18470708Y15221637D01*
X18481076Y15239595D01*
X18530425Y15294402D01*
X18573324Y15346675D01*
X18589287Y15359776D01*
X18607113Y15379573D01*
X18662013Y15419460D01*
X18709767Y15458651D01*
X18733175Y15471163D01*
X18759500Y15490289D01*
X18816120Y15515498D01*
X18865433Y15541856D01*
X18896464Y15551269D01*
X18931576Y15566902D01*
X18986441Y15578563D01*
X19034340Y15593094D01*
X19072467Y15596849D01*
X19115820Y15606064D01*
X19166027Y15606064D01*
X19210000Y15610395D01*
X19253973Y15606064D01*
G37*
G36*
X-3763396Y17596410D02*
G01*
X-3722304Y17596410D01*
X-3676545Y17587856D01*
X-3624469Y17582727D01*
X-3584902Y17570724D01*
X-3549888Y17564179D01*
X-3501389Y17545390D01*
X-3446068Y17528609D01*
X-3414461Y17511714D01*
X-3386343Y17500822D01*
X-3337490Y17470573D01*
X-3281653Y17440728D01*
X-3258188Y17421471D01*
X-3237215Y17408485D01*
X-3190744Y17366121D01*
X-3137541Y17322459D01*
X-3121775Y17303248D01*
X-3107599Y17290325D01*
X-3066439Y17235821D01*
X-3019272Y17178347D01*
X-3010151Y17161284D01*
X-3001900Y17150357D01*
X-2969067Y17084420D01*
X-2931391Y17013932D01*
X-2927372Y17000685D01*
X-2923717Y16993344D01*
X-2902124Y16917454D01*
X-2877273Y16835531D01*
X-2876456Y16827241D01*
X-2875719Y16824649D01*
X-2868046Y16741854D01*
X-2859000Y16650000D01*
X-2868045Y16558153D01*
X-2875719Y16475350D01*
X-2876456Y16472757D01*
X-2877273Y16464469D01*
X-2902119Y16382560D01*
X-2923717Y16306655D01*
X-2927373Y16299311D01*
X-2931391Y16286068D01*
X-2969060Y16215593D01*
X-3001900Y16149642D01*
X-3010153Y16138712D01*
X-3019272Y16121653D01*
X-3066430Y16064190D01*
X-3107599Y16009674D01*
X-3121778Y15996747D01*
X-3137541Y15977541D01*
X-3190733Y15933887D01*
X-3237215Y15891514D01*
X-3258193Y15878524D01*
X-3281653Y15859272D01*
X-3337478Y15829432D01*
X-3386343Y15799177D01*
X-3414467Y15788281D01*
X-3446068Y15771391D01*
X-3501377Y15754612D01*
X-3549888Y15735820D01*
X-3584909Y15729273D01*
X-3624469Y15717273D01*
X-3676542Y15712144D01*
X-3722304Y15703590D01*
X-3763396Y15703590D01*
X-3810000Y15699000D01*
X-3856604Y15703590D01*
X-3897696Y15703590D01*
X-3943456Y15712144D01*
X-3995531Y15717273D01*
X-4035091Y15729273D01*
X-4070111Y15735820D01*
X-4118617Y15754611D01*
X-4173932Y15771391D01*
X-4205534Y15788282D01*
X-4233656Y15799177D01*
X-4282513Y15829428D01*
X-4338347Y15859272D01*
X-4361809Y15878526D01*
X-4382784Y15891514D01*
X-4429256Y15933879D01*
X-4482459Y15977541D01*
X-4498224Y15996751D01*
X-4512400Y16009674D01*
X-4553557Y16064174D01*
X-4600728Y16121653D01*
X-4609848Y16138717D01*
X-4618099Y16149642D01*
X-4650925Y16215566D01*
X-4688609Y16286068D01*
X-4692628Y16299316D01*
X-4696282Y16306655D01*
X-4717864Y16382507D01*
X-4742727Y16464469D01*
X-4743543Y16472762D01*
X-4744280Y16475350D01*
X-4751937Y16557982D01*
X-4761000Y16650000D01*
X-4751936Y16742026D01*
X-4744280Y16824649D01*
X-4743544Y16827235D01*
X-4742727Y16835531D01*
X-4717859Y16917507D01*
X-4696282Y16993344D01*
X-4692628Y17000680D01*
X-4688609Y17013932D01*
X-4650917Y17084447D01*
X-4618099Y17150357D01*
X-4609850Y17161279D01*
X-4600728Y17178347D01*
X-4553547Y17235836D01*
X-4512400Y17290325D01*
X-4498227Y17303244D01*
X-4482459Y17322459D01*
X-4429245Y17366129D01*
X-4382784Y17408485D01*
X-4361814Y17421469D01*
X-4338347Y17440728D01*
X-4282502Y17470577D01*
X-4233656Y17500822D01*
X-4205541Y17511713D01*
X-4173932Y17528609D01*
X-4118605Y17545392D01*
X-4070111Y17564179D01*
X-4035098Y17570724D01*
X-3995531Y17582727D01*
X-3943453Y17587856D01*
X-3897696Y17596410D01*
X-3856604Y17596410D01*
X-3810000Y17601000D01*
X-3763396Y17596410D01*
G37*
G36*
X-1223396Y17596410D02*
G01*
X-1182304Y17596410D01*
X-1136545Y17587856D01*
X-1084469Y17582727D01*
X-1044902Y17570724D01*
X-1009888Y17564179D01*
X-961389Y17545390D01*
X-906068Y17528609D01*
X-874461Y17511714D01*
X-846343Y17500822D01*
X-797490Y17470573D01*
X-741653Y17440728D01*
X-718188Y17421471D01*
X-697215Y17408485D01*
X-650744Y17366121D01*
X-597541Y17322459D01*
X-581775Y17303248D01*
X-567599Y17290325D01*
X-526439Y17235821D01*
X-479272Y17178347D01*
X-470151Y17161284D01*
X-461900Y17150357D01*
X-429067Y17084420D01*
X-391391Y17013932D01*
X-387372Y17000685D01*
X-383717Y16993344D01*
X-362124Y16917454D01*
X-337273Y16835531D01*
X-336456Y16827241D01*
X-335719Y16824649D01*
X-328046Y16741854D01*
X-319000Y16650000D01*
X-328045Y16558153D01*
X-335719Y16475350D01*
X-336456Y16472757D01*
X-337273Y16464469D01*
X-362119Y16382560D01*
X-383717Y16306655D01*
X-387373Y16299311D01*
X-391391Y16286068D01*
X-429060Y16215593D01*
X-461900Y16149642D01*
X-470153Y16138712D01*
X-479272Y16121653D01*
X-526430Y16064190D01*
X-567599Y16009674D01*
X-581778Y15996747D01*
X-597541Y15977541D01*
X-650733Y15933887D01*
X-697215Y15891514D01*
X-718193Y15878524D01*
X-741653Y15859272D01*
X-797478Y15829432D01*
X-846343Y15799177D01*
X-874467Y15788281D01*
X-906068Y15771391D01*
X-961377Y15754612D01*
X-1009888Y15735820D01*
X-1044909Y15729273D01*
X-1084469Y15717273D01*
X-1136542Y15712144D01*
X-1182304Y15703590D01*
X-1223396Y15703590D01*
X-1270000Y15699000D01*
X-1316604Y15703590D01*
X-1357696Y15703590D01*
X-1403456Y15712144D01*
X-1455531Y15717273D01*
X-1495091Y15729273D01*
X-1530111Y15735820D01*
X-1578617Y15754611D01*
X-1633932Y15771391D01*
X-1665534Y15788282D01*
X-1693656Y15799177D01*
X-1742513Y15829428D01*
X-1798347Y15859272D01*
X-1821809Y15878526D01*
X-1842784Y15891514D01*
X-1889256Y15933879D01*
X-1942459Y15977541D01*
X-1958224Y15996751D01*
X-1972400Y16009674D01*
X-2013557Y16064174D01*
X-2060728Y16121653D01*
X-2069848Y16138717D01*
X-2078099Y16149642D01*
X-2110925Y16215566D01*
X-2148609Y16286068D01*
X-2152628Y16299316D01*
X-2156282Y16306655D01*
X-2177864Y16382507D01*
X-2202727Y16464469D01*
X-2203543Y16472762D01*
X-2204280Y16475350D01*
X-2211937Y16557982D01*
X-2221000Y16650000D01*
X-2211936Y16742026D01*
X-2204280Y16824649D01*
X-2203544Y16827235D01*
X-2202727Y16835531D01*
X-2177859Y16917507D01*
X-2156282Y16993344D01*
X-2152628Y17000680D01*
X-2148609Y17013932D01*
X-2110917Y17084447D01*
X-2078099Y17150357D01*
X-2069850Y17161279D01*
X-2060728Y17178347D01*
X-2013547Y17235836D01*
X-1972400Y17290325D01*
X-1958227Y17303244D01*
X-1942459Y17322459D01*
X-1889245Y17366129D01*
X-1842784Y17408485D01*
X-1821814Y17421469D01*
X-1798347Y17440728D01*
X-1742502Y17470577D01*
X-1693656Y17500822D01*
X-1665541Y17511713D01*
X-1633932Y17528609D01*
X-1578605Y17545392D01*
X-1530111Y17564179D01*
X-1495098Y17570724D01*
X-1455531Y17582727D01*
X-1403453Y17587856D01*
X-1357696Y17596410D01*
X-1316604Y17596410D01*
X-1270000Y17601000D01*
X-1223396Y17596410D01*
G37*
G36*
X1316604Y17596410D02*
G01*
X1357696Y17596410D01*
X1403453Y17587856D01*
X1455531Y17582727D01*
X1495098Y17570724D01*
X1530111Y17564179D01*
X1578605Y17545392D01*
X1633932Y17528609D01*
X1665541Y17511713D01*
X1693656Y17500822D01*
X1742502Y17470577D01*
X1798347Y17440728D01*
X1821814Y17421469D01*
X1842784Y17408485D01*
X1889245Y17366129D01*
X1942459Y17322459D01*
X1958227Y17303244D01*
X1972400Y17290325D01*
X2013547Y17235836D01*
X2060728Y17178347D01*
X2069850Y17161279D01*
X2078099Y17150357D01*
X2110917Y17084447D01*
X2148609Y17013932D01*
X2152628Y17000680D01*
X2156282Y16993344D01*
X2177859Y16917507D01*
X2202727Y16835531D01*
X2203544Y16827235D01*
X2204280Y16824649D01*
X2211936Y16742026D01*
X2221000Y16650000D01*
X2211937Y16557982D01*
X2204280Y16475350D01*
X2203543Y16472762D01*
X2202727Y16464469D01*
X2177864Y16382507D01*
X2156282Y16306655D01*
X2152628Y16299316D01*
X2148609Y16286068D01*
X2110925Y16215566D01*
X2078099Y16149642D01*
X2069848Y16138717D01*
X2060728Y16121653D01*
X2013557Y16064174D01*
X1972400Y16009674D01*
X1958224Y15996751D01*
X1942459Y15977541D01*
X1889256Y15933879D01*
X1842784Y15891514D01*
X1821809Y15878526D01*
X1798347Y15859272D01*
X1742513Y15829428D01*
X1693656Y15799177D01*
X1665534Y15788282D01*
X1633932Y15771391D01*
X1578617Y15754611D01*
X1530111Y15735820D01*
X1495091Y15729273D01*
X1455531Y15717273D01*
X1403456Y15712144D01*
X1357696Y15703590D01*
X1316604Y15703590D01*
X1270000Y15699000D01*
X1223396Y15703590D01*
X1182304Y15703590D01*
X1136542Y15712144D01*
X1084469Y15717273D01*
X1044909Y15729273D01*
X1009888Y15735820D01*
X961377Y15754612D01*
X906068Y15771391D01*
X874467Y15788281D01*
X846343Y15799177D01*
X797478Y15829432D01*
X741653Y15859272D01*
X718193Y15878524D01*
X697215Y15891514D01*
X650733Y15933887D01*
X597541Y15977541D01*
X581778Y15996747D01*
X567599Y16009674D01*
X526430Y16064190D01*
X479272Y16121653D01*
X470153Y16138712D01*
X461900Y16149642D01*
X429060Y16215593D01*
X391391Y16286068D01*
X387373Y16299311D01*
X383717Y16306655D01*
X362119Y16382560D01*
X337273Y16464469D01*
X336456Y16472757D01*
X335719Y16475350D01*
X328045Y16558153D01*
X319000Y16650000D01*
X328046Y16741854D01*
X335719Y16824649D01*
X336456Y16827241D01*
X337273Y16835531D01*
X362124Y16917454D01*
X383717Y16993344D01*
X387372Y17000685D01*
X391391Y17013932D01*
X429067Y17084420D01*
X461900Y17150357D01*
X470151Y17161284D01*
X479272Y17178347D01*
X526439Y17235821D01*
X567599Y17290325D01*
X581775Y17303248D01*
X597541Y17322459D01*
X650744Y17366121D01*
X697215Y17408485D01*
X718188Y17421471D01*
X741653Y17440728D01*
X797490Y17470573D01*
X846343Y17500822D01*
X874461Y17511714D01*
X906068Y17528609D01*
X961389Y17545390D01*
X1009888Y17564179D01*
X1044902Y17570724D01*
X1084469Y17582727D01*
X1136545Y17587856D01*
X1182304Y17596410D01*
X1223396Y17596410D01*
X1270000Y17601000D01*
X1316604Y17596410D01*
G37*
G36*
X3856604Y17596410D02*
G01*
X3897696Y17596410D01*
X3943453Y17587856D01*
X3995531Y17582727D01*
X4035098Y17570724D01*
X4070111Y17564179D01*
X4118605Y17545392D01*
X4173932Y17528609D01*
X4205541Y17511713D01*
X4233656Y17500822D01*
X4282502Y17470577D01*
X4338347Y17440728D01*
X4361814Y17421469D01*
X4382784Y17408485D01*
X4429245Y17366129D01*
X4482459Y17322459D01*
X4498227Y17303244D01*
X4512400Y17290325D01*
X4553547Y17235836D01*
X4600728Y17178347D01*
X4609850Y17161279D01*
X4618099Y17150357D01*
X4650917Y17084447D01*
X4688609Y17013932D01*
X4692628Y17000680D01*
X4696282Y16993344D01*
X4717859Y16917507D01*
X4742727Y16835531D01*
X4743544Y16827235D01*
X4744280Y16824649D01*
X4751936Y16742026D01*
X4761000Y16650000D01*
X4751937Y16557982D01*
X4744280Y16475350D01*
X4743543Y16472762D01*
X4742727Y16464469D01*
X4717864Y16382507D01*
X4696282Y16306655D01*
X4692628Y16299316D01*
X4688609Y16286068D01*
X4650925Y16215566D01*
X4618099Y16149642D01*
X4609848Y16138717D01*
X4600728Y16121653D01*
X4553557Y16064174D01*
X4512400Y16009674D01*
X4498224Y15996751D01*
X4482459Y15977541D01*
X4429256Y15933879D01*
X4382784Y15891514D01*
X4361809Y15878526D01*
X4338347Y15859272D01*
X4282513Y15829428D01*
X4233656Y15799177D01*
X4205534Y15788282D01*
X4173932Y15771391D01*
X4118617Y15754611D01*
X4070111Y15735820D01*
X4035091Y15729273D01*
X3995531Y15717273D01*
X3943456Y15712144D01*
X3897696Y15703590D01*
X3856604Y15703590D01*
X3810000Y15699000D01*
X3763396Y15703590D01*
X3722304Y15703590D01*
X3676542Y15712144D01*
X3624469Y15717273D01*
X3584909Y15729273D01*
X3549888Y15735820D01*
X3501377Y15754612D01*
X3446068Y15771391D01*
X3414467Y15788281D01*
X3386343Y15799177D01*
X3337478Y15829432D01*
X3281653Y15859272D01*
X3258193Y15878524D01*
X3237215Y15891514D01*
X3190733Y15933887D01*
X3137541Y15977541D01*
X3121778Y15996747D01*
X3107599Y16009674D01*
X3066430Y16064190D01*
X3019272Y16121653D01*
X3010153Y16138712D01*
X3001900Y16149642D01*
X2969060Y16215593D01*
X2931391Y16286068D01*
X2927373Y16299311D01*
X2923717Y16306655D01*
X2902119Y16382560D01*
X2877273Y16464469D01*
X2876456Y16472757D01*
X2875719Y16475350D01*
X2868045Y16558153D01*
X2859000Y16650000D01*
X2868046Y16741854D01*
X2875719Y16824649D01*
X2876456Y16827241D01*
X2877273Y16835531D01*
X2902124Y16917454D01*
X2923717Y16993344D01*
X2927372Y17000685D01*
X2931391Y17013932D01*
X2969067Y17084420D01*
X3001900Y17150357D01*
X3010151Y17161284D01*
X3019272Y17178347D01*
X3066439Y17235821D01*
X3107599Y17290325D01*
X3121775Y17303248D01*
X3137541Y17322459D01*
X3190744Y17366121D01*
X3237215Y17408485D01*
X3258188Y17421471D01*
X3281653Y17440728D01*
X3337490Y17470573D01*
X3386343Y17500822D01*
X3414461Y17511714D01*
X3446068Y17528609D01*
X3501389Y17545390D01*
X3549888Y17564179D01*
X3584902Y17570724D01*
X3624469Y17582727D01*
X3676545Y17587856D01*
X3722304Y17596410D01*
X3763396Y17596410D01*
X3810000Y17601000D01*
X3856604Y17596410D01*
G37*
G36*
X20079517Y18147118D02*
G01*
X20096062Y18136062D01*
X20107118Y18119517D01*
X20111000Y18100000D01*
X20111000Y16400000D01*
X20107118Y16380483D01*
X20096062Y16363938D01*
X20079517Y16352882D01*
X20060000Y16349000D01*
X20047686Y16349000D01*
X18372310Y16349000D01*
X18360000Y16349000D01*
X18340483Y16352882D01*
X18323938Y16363938D01*
X18312882Y16380483D01*
X18309000Y16400000D01*
X18309000Y18100000D01*
X18312882Y18119517D01*
X18323938Y18136062D01*
X18340483Y18147118D01*
X18360000Y18151000D01*
X20060000Y18151000D01*
X20079517Y18147118D01*
G37*
G36*
X-14734324Y20256129D02*
G01*
X-14682598Y20256129D01*
X-14625590Y20246616D01*
X-14564084Y20241235D01*
X-14515779Y20228291D01*
X-14470728Y20220774D01*
X-14410291Y20200026D01*
X-14345032Y20182540D01*
X-14305058Y20163900D01*
X-14267566Y20151029D01*
X-14205963Y20117691D01*
X-14139500Y20086699D01*
X-14108211Y20064790D01*
X-14078656Y20048796D01*
X-14018493Y20001969D01*
X-13953733Y19956624D01*
X-13930908Y19933799D01*
X-13893461Y19904653D01*
X-13895709Y19902265D01*
X-13853239Y19856130D01*
X-13793376Y19796267D01*
X-13778264Y19774685D01*
X-13763664Y19758825D01*
X-13714949Y19684262D01*
X-13663301Y19610500D01*
X-13654680Y19592013D01*
X-13646181Y19579004D01*
X-13607607Y19491065D01*
X-13567460Y19404968D01*
X-13563720Y19391011D01*
X-13559897Y19382295D01*
X-13534292Y19281185D01*
X-13508765Y19185916D01*
X-13508025Y19177458D01*
X-13507166Y19174066D01*
X-13497094Y19052521D01*
X-13489000Y18960000D01*
X-13497093Y18867486D01*
X-13507166Y18745933D01*
X-13508025Y18742540D01*
X-13508765Y18734084D01*
X-13534287Y18638831D01*
X-13559897Y18537704D01*
X-13563720Y18528986D01*
X-13567460Y18515032D01*
X-13607600Y18428950D01*
X-13646181Y18340995D01*
X-13654682Y18327982D01*
X-13663301Y18309500D01*
X-13714939Y18235751D01*
X-13763664Y18161174D01*
X-13778267Y18145310D01*
X-13793376Y18123733D01*
X-13853232Y18063876D01*
X-13909148Y18003136D01*
X-13930914Y17986194D01*
X-13953733Y17963376D01*
X-14018478Y17918040D01*
X-14078656Y17871203D01*
X-14108217Y17855204D01*
X-14139500Y17833301D01*
X-14205950Y17802314D01*
X-14267566Y17768970D01*
X-14305066Y17756096D01*
X-14345032Y17737460D01*
X-14410278Y17719977D01*
X-14470728Y17699225D01*
X-14515787Y17691706D01*
X-14564084Y17678765D01*
X-14625587Y17673384D01*
X-14682598Y17663871D01*
X-14734324Y17663871D01*
X-14790000Y17659000D01*
X-14845676Y17663871D01*
X-14897402Y17663871D01*
X-14954412Y17673384D01*
X-15015916Y17678765D01*
X-15064214Y17691706D01*
X-15109271Y17699225D01*
X-15169717Y17719976D01*
X-15234968Y17737460D01*
X-15274936Y17756097D01*
X-15312433Y17768970D01*
X-15374042Y17802311D01*
X-15440500Y17833301D01*
X-15471785Y17855207D01*
X-15501343Y17871203D01*
X-15561511Y17918033D01*
X-15626267Y17963376D01*
X-15649089Y17986198D01*
X-15670851Y18003136D01*
X-15726754Y18063863D01*
X-15786624Y18123733D01*
X-15801735Y18145315D01*
X-15816335Y18161174D01*
X-15865045Y18235730D01*
X-15916699Y18309500D01*
X-15925320Y18327987D01*
X-15933818Y18340995D01*
X-15972382Y18428914D01*
X-16012540Y18515032D01*
X-16016280Y18528991D01*
X-16020102Y18537704D01*
X-16045693Y18638763D01*
X-16071235Y18734084D01*
X-16071975Y18742546D01*
X-16072833Y18745933D01*
X-16082887Y18867270D01*
X-16091000Y18960000D01*
X-16082886Y19052737D01*
X-16072833Y19174066D01*
X-16071975Y19177452D01*
X-16071235Y19185916D01*
X-16045689Y19281253D01*
X-16020102Y19382295D01*
X-16016281Y19391005D01*
X-16012540Y19404968D01*
X-15972375Y19491101D01*
X-15933818Y19579004D01*
X-15925321Y19592008D01*
X-15916699Y19610500D01*
X-15865035Y19684283D01*
X-15816335Y19758825D01*
X-15801738Y19774680D01*
X-15786624Y19796267D01*
X-15726743Y19856147D01*
X-15670851Y19916863D01*
X-15649093Y19933797D01*
X-15626267Y19956624D01*
X-15561498Y20001975D01*
X-15501343Y20048796D01*
X-15471791Y20064788D01*
X-15440500Y20086699D01*
X-15374029Y20117694D01*
X-15312433Y20151029D01*
X-15274944Y20163898D01*
X-15234968Y20182540D01*
X-15169704Y20200027D01*
X-15109271Y20220774D01*
X-15064221Y20228291D01*
X-15015916Y20241235D01*
X-14954408Y20246616D01*
X-14897402Y20256129D01*
X-14845676Y20256129D01*
X-14790000Y20261000D01*
X-14734324Y20256129D01*
G37*
G36*
X-9654324Y20256129D02*
G01*
X-9602598Y20256129D01*
X-9545590Y20246616D01*
X-9484084Y20241235D01*
X-9435779Y20228291D01*
X-9390728Y20220774D01*
X-9330291Y20200026D01*
X-9265032Y20182540D01*
X-9225058Y20163900D01*
X-9187566Y20151029D01*
X-9125963Y20117691D01*
X-9059500Y20086699D01*
X-9028211Y20064790D01*
X-8998656Y20048796D01*
X-8938491Y20001968D01*
X-8873733Y19956624D01*
X-8850909Y19933800D01*
X-8829148Y19916863D01*
X-8773244Y19856135D01*
X-8713376Y19796267D01*
X-8698264Y19774685D01*
X-8683664Y19758825D01*
X-8634949Y19684262D01*
X-8583301Y19610500D01*
X-8574680Y19592013D01*
X-8566181Y19579004D01*
X-8527607Y19491065D01*
X-8487460Y19404968D01*
X-8483720Y19391011D01*
X-8479897Y19382295D01*
X-8454292Y19281185D01*
X-8428765Y19185916D01*
X-8428025Y19177458D01*
X-8427166Y19174066D01*
X-8417094Y19052521D01*
X-8409000Y18960000D01*
X-8417093Y18867486D01*
X-8427166Y18745933D01*
X-8428025Y18742540D01*
X-8428765Y18734084D01*
X-8454287Y18638831D01*
X-8479897Y18537704D01*
X-8483720Y18528986D01*
X-8487460Y18515032D01*
X-8527600Y18428950D01*
X-8566181Y18340995D01*
X-8574682Y18327982D01*
X-8583301Y18309500D01*
X-8634939Y18235751D01*
X-8683664Y18161174D01*
X-8698267Y18145310D01*
X-8713376Y18123733D01*
X-8773232Y18063876D01*
X-8829148Y18003136D01*
X-8850914Y17986194D01*
X-8873733Y17963376D01*
X-8938478Y17918040D01*
X-8998656Y17871203D01*
X-9028217Y17855204D01*
X-9059500Y17833301D01*
X-9125950Y17802314D01*
X-9187566Y17768970D01*
X-9225066Y17756096D01*
X-9265032Y17737460D01*
X-9330278Y17719977D01*
X-9390728Y17699225D01*
X-9435787Y17691706D01*
X-9484084Y17678765D01*
X-9545587Y17673384D01*
X-9602598Y17663871D01*
X-9654324Y17663871D01*
X-9710000Y17659000D01*
X-9765676Y17663871D01*
X-9817402Y17663871D01*
X-9874412Y17673384D01*
X-9935916Y17678765D01*
X-9984214Y17691706D01*
X-10029271Y17699225D01*
X-10089717Y17719976D01*
X-10154968Y17737460D01*
X-10194936Y17756097D01*
X-10232433Y17768970D01*
X-10294042Y17802311D01*
X-10360500Y17833301D01*
X-10391785Y17855207D01*
X-10421343Y17871203D01*
X-10481511Y17918033D01*
X-10546267Y17963376D01*
X-10569089Y17986198D01*
X-10590851Y18003136D01*
X-10646754Y18063863D01*
X-10706624Y18123733D01*
X-10721735Y18145315D01*
X-10736335Y18161174D01*
X-10785045Y18235730D01*
X-10836699Y18309500D01*
X-10845320Y18327987D01*
X-10853818Y18340995D01*
X-10892382Y18428914D01*
X-10932540Y18515032D01*
X-10936280Y18528991D01*
X-10940102Y18537704D01*
X-10965693Y18638763D01*
X-10991235Y18734084D01*
X-10991975Y18742546D01*
X-10992833Y18745933D01*
X-11002887Y18867270D01*
X-11011000Y18960000D01*
X-11002886Y19052737D01*
X-10992833Y19174066D01*
X-10991975Y19177452D01*
X-10991235Y19185916D01*
X-10965689Y19281253D01*
X-10940102Y19382295D01*
X-10936281Y19391005D01*
X-10932540Y19404968D01*
X-10892375Y19491101D01*
X-10853818Y19579004D01*
X-10845321Y19592008D01*
X-10836699Y19610500D01*
X-10785035Y19684283D01*
X-10736333Y19758828D01*
X-10721737Y19774683D01*
X-10706624Y19796267D01*
X-10646735Y19856155D01*
X-10604290Y19902263D01*
X-10606538Y19904653D01*
X-10569093Y19933797D01*
X-10546267Y19956624D01*
X-10481506Y20001969D01*
X-10421347Y20048794D01*
X-10391790Y20064788D01*
X-10360500Y20086699D01*
X-10294029Y20117694D01*
X-10232433Y20151029D01*
X-10194944Y20163898D01*
X-10154968Y20182540D01*
X-10089704Y20200027D01*
X-10029271Y20220774D01*
X-9984221Y20228291D01*
X-9935916Y20241235D01*
X-9874408Y20246616D01*
X-9817402Y20256129D01*
X-9765676Y20256129D01*
X-9710000Y20261000D01*
X-9654324Y20256129D01*
G37*
G36*
X9765676Y20256129D02*
G01*
X9817402Y20256129D01*
X9874408Y20246616D01*
X9935916Y20241235D01*
X9984221Y20228291D01*
X10029271Y20220774D01*
X10089704Y20200027D01*
X10154968Y20182540D01*
X10194944Y20163898D01*
X10232433Y20151029D01*
X10294029Y20117694D01*
X10360500Y20086699D01*
X10391790Y20064788D01*
X10421347Y20048794D01*
X10481506Y20001969D01*
X10546267Y19956624D01*
X10569093Y19933797D01*
X10606538Y19904653D01*
X10604290Y19902263D01*
X10646735Y19856155D01*
X10706624Y19796267D01*
X10721737Y19774683D01*
X10736333Y19758828D01*
X10785035Y19684283D01*
X10836699Y19610500D01*
X10845321Y19592008D01*
X10853818Y19579004D01*
X10892375Y19491101D01*
X10932540Y19404968D01*
X10936281Y19391005D01*
X10940102Y19382295D01*
X10965689Y19281253D01*
X10991235Y19185916D01*
X10991975Y19177452D01*
X10992833Y19174066D01*
X11002886Y19052737D01*
X11011000Y18960000D01*
X11002887Y18867270D01*
X10992833Y18745933D01*
X10991975Y18742546D01*
X10991235Y18734084D01*
X10965693Y18638763D01*
X10940102Y18537704D01*
X10936280Y18528991D01*
X10932540Y18515032D01*
X10892382Y18428914D01*
X10853818Y18340995D01*
X10845320Y18327987D01*
X10836699Y18309500D01*
X10785045Y18235730D01*
X10736335Y18161174D01*
X10721735Y18145315D01*
X10706624Y18123733D01*
X10646754Y18063863D01*
X10590851Y18003136D01*
X10569089Y17986198D01*
X10546267Y17963376D01*
X10481511Y17918033D01*
X10421343Y17871203D01*
X10391785Y17855207D01*
X10360500Y17833301D01*
X10294042Y17802311D01*
X10232433Y17768970D01*
X10194936Y17756097D01*
X10154968Y17737460D01*
X10089717Y17719976D01*
X10029271Y17699225D01*
X9984214Y17691706D01*
X9935916Y17678765D01*
X9874412Y17673384D01*
X9817402Y17663871D01*
X9765676Y17663871D01*
X9710000Y17659000D01*
X9654324Y17663871D01*
X9602598Y17663871D01*
X9545587Y17673384D01*
X9484084Y17678765D01*
X9435787Y17691706D01*
X9390728Y17699225D01*
X9330278Y17719977D01*
X9265032Y17737460D01*
X9225066Y17756096D01*
X9187566Y17768970D01*
X9125950Y17802314D01*
X9059500Y17833301D01*
X9028217Y17855204D01*
X8998656Y17871203D01*
X8938478Y17918040D01*
X8873733Y17963376D01*
X8850914Y17986194D01*
X8829148Y18003136D01*
X8773232Y18063876D01*
X8713376Y18123733D01*
X8698267Y18145310D01*
X8683664Y18161174D01*
X8634939Y18235751D01*
X8583301Y18309500D01*
X8574682Y18327982D01*
X8566181Y18340995D01*
X8527600Y18428950D01*
X8487460Y18515032D01*
X8483720Y18528986D01*
X8479897Y18537704D01*
X8454287Y18638831D01*
X8428765Y18734084D01*
X8428025Y18742540D01*
X8427166Y18745933D01*
X8417093Y18867486D01*
X8409000Y18960000D01*
X8417094Y19052521D01*
X8427166Y19174066D01*
X8428025Y19177458D01*
X8428765Y19185916D01*
X8454292Y19281185D01*
X8479897Y19382295D01*
X8483720Y19391011D01*
X8487460Y19404968D01*
X8527607Y19491065D01*
X8566181Y19579004D01*
X8574680Y19592013D01*
X8583301Y19610500D01*
X8634949Y19684262D01*
X8683664Y19758825D01*
X8698264Y19774685D01*
X8713376Y19796267D01*
X8773244Y19856135D01*
X8829148Y19916863D01*
X8850909Y19933800D01*
X8873733Y19956624D01*
X8938491Y20001968D01*
X8998656Y20048796D01*
X9028211Y20064790D01*
X9059500Y20086699D01*
X9125963Y20117691D01*
X9187566Y20151029D01*
X9225058Y20163900D01*
X9265032Y20182540D01*
X9330291Y20200026D01*
X9390728Y20220774D01*
X9435779Y20228291D01*
X9484084Y20241235D01*
X9545590Y20246616D01*
X9602598Y20256129D01*
X9654324Y20256129D01*
X9710000Y20261000D01*
X9765676Y20256129D01*
G37*
G36*
X14845676Y20256129D02*
G01*
X14897402Y20256129D01*
X14954408Y20246616D01*
X15015916Y20241235D01*
X15064221Y20228291D01*
X15109271Y20220774D01*
X15169704Y20200027D01*
X15234968Y20182540D01*
X15274944Y20163898D01*
X15312433Y20151029D01*
X15374029Y20117694D01*
X15440500Y20086699D01*
X15471791Y20064788D01*
X15501343Y20048796D01*
X15561498Y20001975D01*
X15626267Y19956624D01*
X15649093Y19933797D01*
X15670851Y19916863D01*
X15726743Y19856147D01*
X15786624Y19796267D01*
X15801738Y19774680D01*
X15816335Y19758825D01*
X15865035Y19684283D01*
X15916699Y19610500D01*
X15925321Y19592008D01*
X15933818Y19579004D01*
X15972375Y19491101D01*
X16012540Y19404968D01*
X16016281Y19391005D01*
X16020102Y19382295D01*
X16045689Y19281253D01*
X16071235Y19185916D01*
X16071975Y19177452D01*
X16072833Y19174066D01*
X16082886Y19052737D01*
X16091000Y18960000D01*
X16082887Y18867270D01*
X16072833Y18745933D01*
X16071975Y18742546D01*
X16071235Y18734084D01*
X16045693Y18638763D01*
X16020102Y18537704D01*
X16016280Y18528991D01*
X16012540Y18515032D01*
X15972382Y18428914D01*
X15933818Y18340995D01*
X15925320Y18327987D01*
X15916699Y18309500D01*
X15865045Y18235730D01*
X15816335Y18161174D01*
X15801735Y18145315D01*
X15786624Y18123733D01*
X15726754Y18063863D01*
X15670851Y18003136D01*
X15649089Y17986198D01*
X15626267Y17963376D01*
X15561511Y17918033D01*
X15501343Y17871203D01*
X15471785Y17855207D01*
X15440500Y17833301D01*
X15374042Y17802311D01*
X15312433Y17768970D01*
X15274936Y17756097D01*
X15234968Y17737460D01*
X15169717Y17719976D01*
X15109271Y17699225D01*
X15064214Y17691706D01*
X15015916Y17678765D01*
X14954412Y17673384D01*
X14897402Y17663871D01*
X14845676Y17663871D01*
X14790000Y17659000D01*
X14734324Y17663871D01*
X14682598Y17663871D01*
X14625587Y17673384D01*
X14564084Y17678765D01*
X14515787Y17691706D01*
X14470728Y17699225D01*
X14410278Y17719977D01*
X14345032Y17737460D01*
X14305066Y17756096D01*
X14267566Y17768970D01*
X14205950Y17802314D01*
X14139500Y17833301D01*
X14108217Y17855204D01*
X14078656Y17871203D01*
X14018478Y17918040D01*
X13953733Y17963376D01*
X13930914Y17986194D01*
X13909148Y18003136D01*
X13853232Y18063876D01*
X13793376Y18123733D01*
X13778267Y18145310D01*
X13763664Y18161174D01*
X13714939Y18235751D01*
X13663301Y18309500D01*
X13654682Y18327982D01*
X13646181Y18340995D01*
X13607600Y18428950D01*
X13567460Y18515032D01*
X13563720Y18528986D01*
X13559897Y18537704D01*
X13534287Y18638831D01*
X13508765Y18734084D01*
X13508025Y18742540D01*
X13507166Y18745933D01*
X13497093Y18867486D01*
X13489000Y18960000D01*
X13497094Y19052521D01*
X13507166Y19174066D01*
X13508025Y19177458D01*
X13508765Y19185916D01*
X13534292Y19281185D01*
X13559897Y19382295D01*
X13563720Y19391011D01*
X13567460Y19404968D01*
X13607607Y19491065D01*
X13646181Y19579004D01*
X13654680Y19592013D01*
X13663301Y19610500D01*
X13714949Y19684262D01*
X13763664Y19758825D01*
X13778264Y19774685D01*
X13793376Y19796267D01*
X13853239Y19856130D01*
X13895709Y19902265D01*
X13893461Y19904653D01*
X13930908Y19933799D01*
X13953733Y19956624D01*
X14018493Y20001969D01*
X14078656Y20048796D01*
X14108211Y20064790D01*
X14139500Y20086699D01*
X14205963Y20117691D01*
X14267566Y20151029D01*
X14305058Y20163900D01*
X14345032Y20182540D01*
X14410291Y20200026D01*
X14470728Y20220774D01*
X14515779Y20228291D01*
X14564084Y20241235D01*
X14625590Y20246616D01*
X14682598Y20256129D01*
X14734324Y20256129D01*
X14790000Y20261000D01*
X14845676Y20256129D01*
G37*
G36*
X-11832712Y23508101D02*
G01*
X-11563162Y23432577D01*
X-11306407Y23321053D01*
X-11067229Y23175605D01*
X-10850084Y22998945D01*
X-10848620Y22997377D01*
X-10829158Y22981544D01*
X-10831470Y22979014D01*
X-10659016Y22794361D01*
X-10497586Y22565667D01*
X-10368800Y22317121D01*
X-10275057Y22053353D01*
X-10218103Y21779278D01*
X-10199000Y21500000D01*
X-10218103Y21220722D01*
X-10275057Y20946647D01*
X-10368800Y20682879D01*
X-10497586Y20434333D01*
X-10659016Y20205639D01*
X-10831471Y20020984D01*
X-10829158Y20018453D01*
X-10848632Y20002609D01*
X-10850084Y20001055D01*
X-11067229Y19824395D01*
X-11306407Y19678947D01*
X-11563162Y19567423D01*
X-11832712Y19491899D01*
X-12110035Y19453781D01*
X-12389965Y19453781D01*
X-12667288Y19491899D01*
X-12936838Y19567423D01*
X-13193593Y19678947D01*
X-13432771Y19824395D01*
X-13649916Y20001055D01*
X-13651377Y20002620D01*
X-13670840Y20018454D01*
X-13668528Y20020983D01*
X-13840984Y20205639D01*
X-14002414Y20434333D01*
X-14131200Y20682879D01*
X-14224943Y20946647D01*
X-14281897Y21220722D01*
X-14301000Y21500000D01*
X-14281897Y21779278D01*
X-14224943Y22053353D01*
X-14131200Y22317121D01*
X-14002414Y22565667D01*
X-13840984Y22794361D01*
X-13668528Y22979015D01*
X-13670840Y22981544D01*
X-13651385Y22997371D01*
X-13649916Y22998945D01*
X-13432771Y23175605D01*
X-13193593Y23321053D01*
X-12936838Y23432577D01*
X-12667288Y23508101D01*
X-12389965Y23546219D01*
X-12110035Y23546219D01*
X-11832712Y23508101D01*
G37*
G36*
X12667288Y23508101D02*
G01*
X12936838Y23432577D01*
X13193593Y23321053D01*
X13432771Y23175605D01*
X13649916Y22998945D01*
X13651385Y22997371D01*
X13670840Y22981544D01*
X13668528Y22979015D01*
X13840984Y22794361D01*
X14002414Y22565667D01*
X14131200Y22317121D01*
X14224943Y22053353D01*
X14281897Y21779278D01*
X14301000Y21500000D01*
X14281897Y21220722D01*
X14224943Y20946647D01*
X14131200Y20682879D01*
X14002414Y20434333D01*
X13840984Y20205639D01*
X13668528Y20020983D01*
X13670840Y20018454D01*
X13651377Y20002620D01*
X13649916Y20001055D01*
X13432771Y19824395D01*
X13193593Y19678947D01*
X12936838Y19567423D01*
X12667288Y19491899D01*
X12389965Y19453781D01*
X12110035Y19453781D01*
X11832712Y19491899D01*
X11563162Y19567423D01*
X11306407Y19678947D01*
X11067229Y19824395D01*
X10850084Y20001055D01*
X10848632Y20002609D01*
X10829158Y20018453D01*
X10831471Y20020984D01*
X10659016Y20205639D01*
X10497586Y20434333D01*
X10368800Y20682879D01*
X10275057Y20946647D01*
X10218103Y21220722D01*
X10199000Y21500000D01*
X10218103Y21779278D01*
X10275057Y22053353D01*
X10368800Y22317121D01*
X10497586Y22565667D01*
X10659016Y22794361D01*
X10831470Y22979014D01*
X10829158Y22981544D01*
X10848620Y22997377D01*
X10850084Y22998945D01*
X11067229Y23175605D01*
X11306407Y23321053D01*
X11563162Y23432577D01*
X11832712Y23508101D01*
X12110035Y23546219D01*
X12389965Y23546219D01*
X12667288Y23508101D01*
G37*
G36*
X-14734324Y25336129D02*
G01*
X-14682598Y25336129D01*
X-14625590Y25326616D01*
X-14564084Y25321235D01*
X-14515779Y25308291D01*
X-14470728Y25300774D01*
X-14410291Y25280026D01*
X-14345032Y25262540D01*
X-14305058Y25243900D01*
X-14267566Y25231029D01*
X-14205963Y25197691D01*
X-14139500Y25166699D01*
X-14108211Y25144790D01*
X-14078656Y25128796D01*
X-14018491Y25081968D01*
X-13953733Y25036624D01*
X-13930909Y25013800D01*
X-13909148Y24996863D01*
X-13853244Y24936135D01*
X-13793376Y24876267D01*
X-13778264Y24854685D01*
X-13763664Y24838825D01*
X-13714949Y24764262D01*
X-13663301Y24690500D01*
X-13654680Y24672013D01*
X-13646181Y24659004D01*
X-13607607Y24571065D01*
X-13567460Y24484968D01*
X-13563720Y24471011D01*
X-13559897Y24462295D01*
X-13534292Y24361185D01*
X-13508765Y24265916D01*
X-13508025Y24257458D01*
X-13507166Y24254066D01*
X-13497094Y24132521D01*
X-13489000Y24040000D01*
X-13497093Y23947486D01*
X-13507166Y23825933D01*
X-13508025Y23822540D01*
X-13508765Y23814084D01*
X-13534287Y23718831D01*
X-13559897Y23617704D01*
X-13563720Y23608986D01*
X-13567460Y23595032D01*
X-13607600Y23508950D01*
X-13646181Y23420995D01*
X-13654682Y23407982D01*
X-13663301Y23389500D01*
X-13714934Y23315759D01*
X-13763666Y23241170D01*
X-13778272Y23225303D01*
X-13793376Y23203733D01*
X-13853212Y23143896D01*
X-13895709Y23097733D01*
X-13893462Y23095344D01*
X-13930917Y23066191D01*
X-13953733Y23043376D01*
X-14018475Y22998043D01*
X-14078656Y22951203D01*
X-14108217Y22935204D01*
X-14139500Y22913301D01*
X-14205950Y22882314D01*
X-14267566Y22848970D01*
X-14305066Y22836096D01*
X-14345032Y22817460D01*
X-14410278Y22799977D01*
X-14470728Y22779225D01*
X-14515787Y22771706D01*
X-14564084Y22758765D01*
X-14625587Y22753384D01*
X-14682598Y22743871D01*
X-14734324Y22743871D01*
X-14790000Y22739000D01*
X-14845676Y22743871D01*
X-14897402Y22743871D01*
X-14954412Y22753384D01*
X-15015916Y22758765D01*
X-15064214Y22771706D01*
X-15109271Y22779225D01*
X-15169717Y22799976D01*
X-15234968Y22817460D01*
X-15274936Y22836097D01*
X-15312433Y22848970D01*
X-15374042Y22882311D01*
X-15440500Y22913301D01*
X-15471785Y22935207D01*
X-15501343Y22951203D01*
X-15561511Y22998033D01*
X-15626267Y23043376D01*
X-15649089Y23066198D01*
X-15670851Y23083136D01*
X-15726754Y23143863D01*
X-15786624Y23203733D01*
X-15801735Y23225315D01*
X-15816335Y23241174D01*
X-15865045Y23315730D01*
X-15916699Y23389500D01*
X-15925320Y23407987D01*
X-15933818Y23420995D01*
X-15972382Y23508914D01*
X-16012540Y23595032D01*
X-16016280Y23608991D01*
X-16020102Y23617704D01*
X-16045693Y23718763D01*
X-16071235Y23814084D01*
X-16071975Y23822546D01*
X-16072833Y23825933D01*
X-16082887Y23947270D01*
X-16091000Y24040000D01*
X-16082886Y24132737D01*
X-16072833Y24254066D01*
X-16071975Y24257452D01*
X-16071235Y24265916D01*
X-16045689Y24361253D01*
X-16020102Y24462295D01*
X-16016281Y24471005D01*
X-16012540Y24484968D01*
X-15972375Y24571101D01*
X-15933818Y24659004D01*
X-15925321Y24672008D01*
X-15916699Y24690500D01*
X-15865035Y24764283D01*
X-15816335Y24838825D01*
X-15801738Y24854680D01*
X-15786624Y24876267D01*
X-15726743Y24936147D01*
X-15670851Y24996863D01*
X-15649093Y25013797D01*
X-15626267Y25036624D01*
X-15561498Y25081975D01*
X-15501343Y25128796D01*
X-15471791Y25144788D01*
X-15440500Y25166699D01*
X-15374029Y25197694D01*
X-15312433Y25231029D01*
X-15274944Y25243898D01*
X-15234968Y25262540D01*
X-15169704Y25280027D01*
X-15109271Y25300774D01*
X-15064221Y25308291D01*
X-15015916Y25321235D01*
X-14954408Y25326616D01*
X-14897402Y25336129D01*
X-14845676Y25336129D01*
X-14790000Y25341000D01*
X-14734324Y25336129D01*
G37*
G36*
X-9654324Y25336129D02*
G01*
X-9602598Y25336129D01*
X-9545590Y25326616D01*
X-9484084Y25321235D01*
X-9435779Y25308291D01*
X-9390728Y25300774D01*
X-9330291Y25280026D01*
X-9265032Y25262540D01*
X-9225058Y25243900D01*
X-9187566Y25231029D01*
X-9125963Y25197691D01*
X-9059500Y25166699D01*
X-9028211Y25144790D01*
X-8998656Y25128796D01*
X-8938491Y25081968D01*
X-8873733Y25036624D01*
X-8850909Y25013800D01*
X-8829148Y24996863D01*
X-8773244Y24936135D01*
X-8713376Y24876267D01*
X-8698264Y24854685D01*
X-8683664Y24838825D01*
X-8634949Y24764262D01*
X-8583301Y24690500D01*
X-8574680Y24672013D01*
X-8566181Y24659004D01*
X-8527607Y24571065D01*
X-8487460Y24484968D01*
X-8483720Y24471011D01*
X-8479897Y24462295D01*
X-8454292Y24361185D01*
X-8428765Y24265916D01*
X-8428025Y24257458D01*
X-8427166Y24254066D01*
X-8417094Y24132521D01*
X-8409000Y24040000D01*
X-8417093Y23947486D01*
X-8427166Y23825933D01*
X-8428025Y23822540D01*
X-8428765Y23814084D01*
X-8454287Y23718831D01*
X-8479897Y23617704D01*
X-8483720Y23608986D01*
X-8487460Y23595032D01*
X-8527600Y23508950D01*
X-8566181Y23420995D01*
X-8574682Y23407982D01*
X-8583301Y23389500D01*
X-8634939Y23315751D01*
X-8683664Y23241174D01*
X-8698267Y23225310D01*
X-8713376Y23203733D01*
X-8773232Y23143876D01*
X-8829148Y23083136D01*
X-8850914Y23066194D01*
X-8873733Y23043376D01*
X-8938478Y22998040D01*
X-8998656Y22951203D01*
X-9028217Y22935204D01*
X-9059500Y22913301D01*
X-9125950Y22882314D01*
X-9187566Y22848970D01*
X-9225066Y22836096D01*
X-9265032Y22817460D01*
X-9330278Y22799977D01*
X-9390728Y22779225D01*
X-9435787Y22771706D01*
X-9484084Y22758765D01*
X-9545587Y22753384D01*
X-9602598Y22743871D01*
X-9654324Y22743871D01*
X-9710000Y22739000D01*
X-9765676Y22743871D01*
X-9817402Y22743871D01*
X-9874412Y22753384D01*
X-9935916Y22758765D01*
X-9984214Y22771706D01*
X-10029271Y22779225D01*
X-10089717Y22799976D01*
X-10154968Y22817460D01*
X-10194936Y22836097D01*
X-10232433Y22848970D01*
X-10294042Y22882311D01*
X-10360500Y22913301D01*
X-10391785Y22935207D01*
X-10421343Y22951203D01*
X-10481510Y22998033D01*
X-10546267Y23043376D01*
X-10569089Y23066198D01*
X-10606537Y23095345D01*
X-10604290Y23097735D01*
X-10646752Y23143861D01*
X-10706624Y23203733D01*
X-10721736Y23225315D01*
X-10736335Y23241174D01*
X-10785045Y23315730D01*
X-10836699Y23389500D01*
X-10845320Y23407987D01*
X-10853818Y23420995D01*
X-10892382Y23508914D01*
X-10932540Y23595032D01*
X-10936280Y23608991D01*
X-10940102Y23617704D01*
X-10965693Y23718763D01*
X-10991235Y23814084D01*
X-10991975Y23822546D01*
X-10992833Y23825933D01*
X-11002887Y23947270D01*
X-11011000Y24040000D01*
X-11002886Y24132737D01*
X-10992833Y24254066D01*
X-10991975Y24257452D01*
X-10991235Y24265916D01*
X-10965689Y24361253D01*
X-10940102Y24462295D01*
X-10936281Y24471005D01*
X-10932540Y24484968D01*
X-10892375Y24571101D01*
X-10853818Y24659004D01*
X-10845321Y24672008D01*
X-10836699Y24690500D01*
X-10785035Y24764283D01*
X-10736335Y24838825D01*
X-10721738Y24854680D01*
X-10706624Y24876267D01*
X-10646743Y24936147D01*
X-10590851Y24996863D01*
X-10569093Y25013797D01*
X-10546267Y25036624D01*
X-10481498Y25081975D01*
X-10421343Y25128796D01*
X-10391791Y25144788D01*
X-10360500Y25166699D01*
X-10294029Y25197694D01*
X-10232433Y25231029D01*
X-10194944Y25243898D01*
X-10154968Y25262540D01*
X-10089704Y25280027D01*
X-10029271Y25300774D01*
X-9984221Y25308291D01*
X-9935916Y25321235D01*
X-9874408Y25326616D01*
X-9817402Y25336129D01*
X-9765676Y25336129D01*
X-9710000Y25341000D01*
X-9654324Y25336129D01*
G37*
G36*
X9765676Y25336129D02*
G01*
X9817402Y25336129D01*
X9874408Y25326616D01*
X9935916Y25321235D01*
X9984221Y25308291D01*
X10029271Y25300774D01*
X10089704Y25280027D01*
X10154968Y25262540D01*
X10194944Y25243898D01*
X10232433Y25231029D01*
X10294029Y25197694D01*
X10360500Y25166699D01*
X10391791Y25144788D01*
X10421343Y25128796D01*
X10481498Y25081975D01*
X10546267Y25036624D01*
X10569093Y25013797D01*
X10590851Y24996863D01*
X10646743Y24936147D01*
X10706624Y24876267D01*
X10721738Y24854680D01*
X10736335Y24838825D01*
X10785035Y24764283D01*
X10836699Y24690500D01*
X10845321Y24672008D01*
X10853818Y24659004D01*
X10892375Y24571101D01*
X10932540Y24484968D01*
X10936281Y24471005D01*
X10940102Y24462295D01*
X10965689Y24361253D01*
X10991235Y24265916D01*
X10991975Y24257452D01*
X10992833Y24254066D01*
X11002886Y24132737D01*
X11011000Y24040000D01*
X11002887Y23947270D01*
X10992833Y23825933D01*
X10991975Y23822546D01*
X10991235Y23814084D01*
X10965693Y23718763D01*
X10940102Y23617704D01*
X10936280Y23608991D01*
X10932540Y23595032D01*
X10892382Y23508914D01*
X10853818Y23420995D01*
X10845320Y23407987D01*
X10836699Y23389500D01*
X10785045Y23315730D01*
X10736335Y23241174D01*
X10721736Y23225315D01*
X10706624Y23203733D01*
X10646752Y23143861D01*
X10604290Y23097735D01*
X10606537Y23095345D01*
X10569089Y23066198D01*
X10546267Y23043376D01*
X10481510Y22998033D01*
X10421343Y22951203D01*
X10391785Y22935207D01*
X10360500Y22913301D01*
X10294042Y22882311D01*
X10232433Y22848970D01*
X10194936Y22836097D01*
X10154968Y22817460D01*
X10089717Y22799976D01*
X10029271Y22779225D01*
X9984214Y22771706D01*
X9935916Y22758765D01*
X9874412Y22753384D01*
X9817402Y22743871D01*
X9765676Y22743871D01*
X9710000Y22739000D01*
X9654324Y22743871D01*
X9602598Y22743871D01*
X9545587Y22753384D01*
X9484084Y22758765D01*
X9435787Y22771706D01*
X9390728Y22779225D01*
X9330278Y22799977D01*
X9265032Y22817460D01*
X9225066Y22836096D01*
X9187566Y22848970D01*
X9125950Y22882314D01*
X9059500Y22913301D01*
X9028217Y22935204D01*
X8998656Y22951203D01*
X8938478Y22998040D01*
X8873733Y23043376D01*
X8850914Y23066194D01*
X8829148Y23083136D01*
X8773232Y23143876D01*
X8713376Y23203733D01*
X8698267Y23225310D01*
X8683664Y23241174D01*
X8634939Y23315751D01*
X8583301Y23389500D01*
X8574682Y23407982D01*
X8566181Y23420995D01*
X8527600Y23508950D01*
X8487460Y23595032D01*
X8483720Y23608986D01*
X8479897Y23617704D01*
X8454287Y23718831D01*
X8428765Y23814084D01*
X8428025Y23822540D01*
X8427166Y23825933D01*
X8417093Y23947486D01*
X8409000Y24040000D01*
X8417094Y24132521D01*
X8427166Y24254066D01*
X8428025Y24257458D01*
X8428765Y24265916D01*
X8454292Y24361185D01*
X8479897Y24462295D01*
X8483720Y24471011D01*
X8487460Y24484968D01*
X8527607Y24571065D01*
X8566181Y24659004D01*
X8574680Y24672013D01*
X8583301Y24690500D01*
X8634949Y24764262D01*
X8683664Y24838825D01*
X8698264Y24854685D01*
X8713376Y24876267D01*
X8773244Y24936135D01*
X8829148Y24996863D01*
X8850909Y25013800D01*
X8873733Y25036624D01*
X8938491Y25081968D01*
X8998656Y25128796D01*
X9028211Y25144790D01*
X9059500Y25166699D01*
X9125963Y25197691D01*
X9187566Y25231029D01*
X9225058Y25243900D01*
X9265032Y25262540D01*
X9330291Y25280026D01*
X9390728Y25300774D01*
X9435779Y25308291D01*
X9484084Y25321235D01*
X9545590Y25326616D01*
X9602598Y25336129D01*
X9654324Y25336129D01*
X9710000Y25341000D01*
X9765676Y25336129D01*
G37*
G36*
X14845676Y25336129D02*
G01*
X14897402Y25336129D01*
X14954408Y25326616D01*
X15015916Y25321235D01*
X15064221Y25308291D01*
X15109271Y25300774D01*
X15169704Y25280027D01*
X15234968Y25262540D01*
X15274944Y25243898D01*
X15312433Y25231029D01*
X15374029Y25197694D01*
X15440500Y25166699D01*
X15471791Y25144788D01*
X15501343Y25128796D01*
X15561498Y25081975D01*
X15626267Y25036624D01*
X15649093Y25013797D01*
X15670851Y24996863D01*
X15726743Y24936147D01*
X15786624Y24876267D01*
X15801738Y24854680D01*
X15816335Y24838825D01*
X15865035Y24764283D01*
X15916699Y24690500D01*
X15925321Y24672008D01*
X15933818Y24659004D01*
X15972375Y24571101D01*
X16012540Y24484968D01*
X16016281Y24471005D01*
X16020102Y24462295D01*
X16045689Y24361253D01*
X16071235Y24265916D01*
X16071975Y24257452D01*
X16072833Y24254066D01*
X16082886Y24132737D01*
X16091000Y24040000D01*
X16082887Y23947270D01*
X16072833Y23825933D01*
X16071975Y23822546D01*
X16071235Y23814084D01*
X16045693Y23718763D01*
X16020102Y23617704D01*
X16016280Y23608991D01*
X16012540Y23595032D01*
X15972382Y23508914D01*
X15933818Y23420995D01*
X15925320Y23407987D01*
X15916699Y23389500D01*
X15865045Y23315730D01*
X15816335Y23241174D01*
X15801735Y23225315D01*
X15786624Y23203733D01*
X15726754Y23143863D01*
X15670851Y23083136D01*
X15649089Y23066198D01*
X15626267Y23043376D01*
X15561511Y22998033D01*
X15501343Y22951203D01*
X15471785Y22935207D01*
X15440500Y22913301D01*
X15374042Y22882311D01*
X15312433Y22848970D01*
X15274936Y22836097D01*
X15234968Y22817460D01*
X15169717Y22799976D01*
X15109271Y22779225D01*
X15064214Y22771706D01*
X15015916Y22758765D01*
X14954412Y22753384D01*
X14897402Y22743871D01*
X14845676Y22743871D01*
X14790000Y22739000D01*
X14734324Y22743871D01*
X14682598Y22743871D01*
X14625587Y22753384D01*
X14564084Y22758765D01*
X14515787Y22771706D01*
X14470728Y22779225D01*
X14410278Y22799977D01*
X14345032Y22817460D01*
X14305066Y22836096D01*
X14267566Y22848970D01*
X14205950Y22882314D01*
X14139500Y22913301D01*
X14108217Y22935204D01*
X14078656Y22951203D01*
X14018475Y22998043D01*
X13953733Y23043376D01*
X13930917Y23066191D01*
X13893462Y23095344D01*
X13895709Y23097733D01*
X13853212Y23143896D01*
X13793376Y23203733D01*
X13778272Y23225303D01*
X13763666Y23241170D01*
X13714934Y23315759D01*
X13663301Y23389500D01*
X13654682Y23407982D01*
X13646181Y23420995D01*
X13607600Y23508950D01*
X13567460Y23595032D01*
X13563720Y23608986D01*
X13559897Y23617704D01*
X13534287Y23718831D01*
X13508765Y23814084D01*
X13508025Y23822540D01*
X13507166Y23825933D01*
X13497093Y23947486D01*
X13489000Y24040000D01*
X13497094Y24132521D01*
X13507166Y24254066D01*
X13508025Y24257458D01*
X13508765Y24265916D01*
X13534292Y24361185D01*
X13559897Y24462295D01*
X13563720Y24471011D01*
X13567460Y24484968D01*
X13607607Y24571065D01*
X13646181Y24659004D01*
X13654680Y24672013D01*
X13663301Y24690500D01*
X13714949Y24764262D01*
X13763664Y24838825D01*
X13778264Y24854685D01*
X13793376Y24876267D01*
X13853244Y24936135D01*
X13909148Y24996863D01*
X13930909Y25013800D01*
X13953733Y25036624D01*
X14018491Y25081968D01*
X14078656Y25128796D01*
X14108211Y25144790D01*
X14139500Y25166699D01*
X14205963Y25197691D01*
X14267566Y25231029D01*
X14305058Y25243900D01*
X14345032Y25262540D01*
X14410291Y25280026D01*
X14470728Y25300774D01*
X14515779Y25308291D01*
X14564084Y25321235D01*
X14625590Y25326616D01*
X14682598Y25336129D01*
X14734324Y25336129D01*
X14790000Y25341000D01*
X14845676Y25336129D01*
G37*
M02*
